<svg width="57" height="77" viewBox="0 0 57 77" fill="none" xmlns="http://www.w3.org/2000/svg">
<g clip-path="url(#clip0_146_1203)">
<path d="M49.4764 40.976C49.4764 29.405 40.0714 20 28.5004 20C16.9294 20 7.52441 29.424 7.52441 40.995C7.52441 52.566 16.9294 61.971 28.5004 61.971C40.0714 61.971 49.4764 52.547 49.4764 40.976ZM28.5004 20.95C39.5394 20.95 48.5264 29.937 48.5264 40.976C48.5264 43.674 47.9944 46.239 47.0254 48.576L31.1034 32.654C30.4004 31.97 29.4884 31.59 28.5004 31.59C27.5124 31.59 26.6004 31.97 25.8974 32.654L9.97541 48.576C9.00641 46.239 8.47441 43.655 8.47441 40.976C8.47441 29.937 17.4614 20.95 28.5004 20.95ZM19.4944 40.425L21.0714 42.021C21.4704 42.42 22.0024 42.629 22.5344 42.629C23.0664 42.629 23.5984 42.439 24.0354 42.04L25.6314 40.444C25.8404 40.235 26.1254 40.102 26.4104 40.102C26.6954 40.083 26.9614 40.197 27.1514 40.387C27.9304 41.166 29.2224 41.128 30.0204 40.33C30.2674 40.083 30.5524 39.912 30.7994 39.836C30.9704 39.798 31.0844 39.817 31.1034 39.836C31.6544 40.387 32.6994 40.178 33.5354 39.342L34.9794 37.898L44.8024 47.721L42.5794 49.944C42.1614 50.362 41.4204 50.362 41.0024 49.944L38.3044 47.265C37.5064 46.448 36.1954 46.448 35.3784 47.265L32.1674 50.476C31.7304 50.913 31.0274 50.913 30.5904 50.476L26.3534 46.239C25.9734 45.84 25.4414 45.631 24.8904 45.631C24.3394 45.631 23.8264 45.84 23.4274 46.239L22.7814 46.885C22.3444 47.322 21.6414 47.322 21.2044 46.885L17.1194 42.8L19.4944 40.425ZM20.1784 39.76L26.6004 33.338C27.1134 32.825 27.7974 32.54 28.5194 32.54C29.2414 32.54 29.9254 32.825 30.4384 33.338L34.3144 37.214L32.8704 38.658C32.3574 39.171 31.8634 39.228 31.7874 39.152C31.4834 38.848 31.0274 38.772 30.5334 38.905C30.1154 39.019 29.6974 39.266 29.3364 39.627C28.8994 40.064 28.2154 40.083 27.8164 39.684C27.0374 38.905 25.7644 38.924 24.9474 39.741L23.3514 41.337C22.9144 41.774 22.2114 41.774 21.7744 41.337L20.1784 39.76ZM28.5004 61.002C20.5204 61.002 13.6044 56.309 10.3934 49.526L16.4354 43.484L20.5204 47.569C21.3184 48.386 22.6294 48.386 23.4464 47.569L24.0924 46.923C24.5104 46.505 25.2514 46.505 25.6694 46.923L29.9064 51.16C30.3054 51.559 30.8374 51.768 31.3694 51.768C31.9014 51.768 32.4334 51.559 32.8324 51.16L36.0624 47.949C36.4994 47.512 37.2024 47.512 37.6394 47.949L40.3374 50.628C40.7174 51.027 41.2494 51.236 41.8004 51.236C42.3514 51.236 42.8644 51.027 43.2634 50.628L45.4864 48.405L46.6074 49.526C43.3964 56.309 36.4804 61.002 28.5004 61.002Z" fill="#F5F5F5"/>
<path d="M7.88527 69.3053C7.88527 69.0773 7.88527 69.0013 7.80927 68.8873C7.73327 68.7733 7.60027 68.6973 7.44827 68.6973C7.29627 68.6973 7.16327 68.7733 7.08727 68.8873C7.03027 69.0013 7.01127 69.0773 7.01127 69.3053V72.4213H3.15427V69.3053C3.15427 69.0773 3.15427 69.0013 3.07827 68.8873C3.00227 68.7733 2.86927 68.6973 2.71727 68.6973C2.56527 68.6973 2.43227 68.7733 2.35627 68.8873C2.29927 69.0013 2.28027 69.0773 2.28027 69.3053V76.3733C2.28027 76.6013 2.28027 76.6773 2.35627 76.7913C2.43227 76.9053 2.56527 76.9813 2.71727 76.9813C2.86927 76.9813 3.00227 76.9053 3.07827 76.7913C3.13527 76.6773 3.15427 76.6013 3.15427 76.3733V73.2003H7.03027V76.3733C7.03027 76.6013 7.03027 76.6773 7.10627 76.7913C7.18227 76.9053 7.31527 76.9813 7.46727 76.9813C7.61927 76.9813 7.75227 76.9053 7.82827 76.7913C7.88527 76.6773 7.90427 76.6013 7.88527 76.3733V69.3053Z" fill="#F5F5F5"/>
<path d="M24.3771 76.2213C24.2821 76.1643 24.2061 76.1453 23.9971 76.1453H20.3301V69.3053C20.3301 69.0773 20.3301 69.0013 20.2541 68.8873C20.1781 68.7733 20.0451 68.6973 19.8931 68.6973C19.7411 68.6973 19.6081 68.7733 19.5321 68.8873C19.4751 69.0013 19.4561 69.0773 19.4561 69.3053V76.3923C19.4561 76.5253 19.4561 76.6963 19.5701 76.8103C19.7031 76.9243 19.8551 76.9243 19.9881 76.9433H23.9971C24.2251 76.9433 24.2821 76.9243 24.3771 76.8673C24.4911 76.7913 24.548 76.6773 24.548 76.5443C24.548 76.4113 24.4721 76.2973 24.3771 76.2213Z" fill="#F5F5F5"/>
<path d="M27.6255 68.6973C27.4735 68.6973 27.3405 68.7733 27.2645 68.8873C27.2075 69.0013 27.1885 69.0773 27.1885 69.3053V76.3733C27.1885 76.6013 27.1885 76.6773 27.2645 76.7913C27.3405 76.9053 27.4735 76.9813 27.6255 76.9813C27.7775 76.9813 27.9105 76.9053 27.9865 76.7913C28.0435 76.6773 28.0625 76.6013 28.0625 76.3733V69.3053C28.0625 69.0773 28.0625 69.0013 27.9865 68.8873C27.9105 68.7733 27.7775 68.6973 27.6255 68.6973Z" fill="#F5F5F5"/>
<path d="M34.7696 71.8703L36.7266 69.4953C36.8596 69.3243 36.9166 69.2293 36.9166 69.1153C36.9166 68.9823 36.8596 68.8873 36.7646 68.7923C36.6696 68.7353 36.5746 68.6973 36.4796 68.6973C36.3276 68.6973 36.1946 68.8113 36.0806 68.9633L32.4516 73.3713H32.4326V69.3053C32.4326 69.0773 32.4326 69.0013 32.3566 68.8873C32.2806 68.7733 32.1476 68.6973 31.9956 68.6973C31.8436 68.6973 31.7106 68.7733 31.6346 68.8873C31.5776 69.0013 31.5586 69.0773 31.5586 69.3053V76.3733C31.5586 76.6013 31.5586 76.6773 31.6346 76.7913C31.7106 76.9053 31.8436 76.9813 31.9956 76.9813C32.1476 76.9813 32.2806 76.9053 32.3566 76.7913C32.4136 76.6773 32.4326 76.6013 32.4326 76.3733V74.5873L34.1426 72.5353L36.4416 76.6203C36.5556 76.8103 36.6696 76.9813 36.8976 76.9813C36.9736 76.9813 37.0496 76.9623 37.1256 76.9243C37.2776 76.8483 37.3536 76.7153 37.3536 76.5823C37.3536 76.4683 37.3156 76.3733 37.2206 76.1833L34.7696 71.8703Z" fill="#F5F5F5"/>
<path d="M42.598 68.6973C41.743 68.6973 41.059 69.0013 40.546 69.4953C39.767 70.2743 39.71 70.9773 39.71 72.8583C39.71 74.7393 39.767 75.4423 40.546 76.2213C41.059 76.7153 41.743 77.0193 42.598 77.0193C43.453 77.0193 44.137 76.7153 44.65 76.2213C45.429 75.4423 45.486 74.7393 45.486 72.8583C45.486 70.9773 45.429 70.2743 44.65 69.4953C44.137 68.9823 43.453 68.6973 42.598 68.6973ZM44.004 75.6323C43.643 76.0123 43.149 76.2213 42.598 76.2213C42.047 76.2213 41.572 76.0123 41.192 75.6323C40.679 75.1003 40.622 74.5303 40.622 72.8393C40.622 71.1483 40.679 70.5783 41.192 70.0463C41.553 69.6663 42.047 69.4573 42.598 69.4573C43.149 69.4573 43.624 69.6663 44.004 70.0463C44.517 70.5783 44.574 71.1483 44.574 72.8393C44.574 74.5303 44.517 75.1003 44.004 75.6323Z" fill="#F5F5F5"/>
<path d="M54.6437 68.8873C54.5677 68.7733 54.4347 68.6973 54.2827 68.6973C54.1307 68.6973 53.9977 68.7733 53.9217 68.8873C53.8647 69.0013 53.8457 69.0773 53.8457 69.3053V75.2523L49.6467 69.0583C49.4947 68.8493 49.3617 68.7163 49.1527 68.7163C49.0197 68.7163 48.8867 68.7543 48.8107 68.8493C48.7157 68.9443 48.6777 69.0773 48.6777 69.2863V76.3733C48.6777 76.6013 48.6777 76.6773 48.7537 76.7913C48.8297 76.9053 48.9627 76.9813 49.1147 76.9813C49.2667 76.9813 49.3997 76.9053 49.4757 76.7913C49.5327 76.6773 49.5517 76.6013 49.5517 76.3733V70.4263L53.7507 76.6203C53.9027 76.8293 54.0357 76.9623 54.2447 76.9623C54.3777 76.9623 54.4917 76.9243 54.5867 76.8293C54.6817 76.7343 54.7197 76.6013 54.7197 76.3923V69.3053C54.7197 69.0773 54.7197 69.0013 54.6437 68.8873Z" fill="#F5F5F5"/>
<path d="M16.5106 69.1339C16.5106 68.9059 16.3396 68.7349 16.1116 68.7349H11.8366C11.6846 68.7349 11.5516 68.8109 11.4756 68.9439C11.4186 69.0769 11.4186 69.2479 11.5136 69.3619L14.0596 72.8199L11.5136 76.3539C11.4186 76.4869 11.3996 76.6389 11.4756 76.7719C11.5516 76.9049 11.6846 76.9809 11.8366 76.9809H16.0926C16.3206 76.9809 16.4726 76.8099 16.4726 76.5819C16.4726 76.3539 16.3016 76.1829 16.0736 76.1829H12.5966L14.8576 73.0669C14.9526 72.9149 14.9526 72.7249 14.8576 72.5919L12.6156 69.5329H16.1116C16.3396 69.5329 16.5106 69.3619 16.5106 69.1339Z" fill="#F5F5F5"/>
</g>
<path d="M3.82422 8.00008V2.40008H5.93622C6.32022 2.40008 6.66955 2.46941 6.98422 2.60808C7.30422 2.74141 7.58155 2.93341 7.81622 3.18408C8.05089 3.43474 8.23222 3.73074 8.36022 4.07208C8.48822 4.41341 8.55222 4.78941 8.55222 5.20008C8.55222 5.61074 8.48822 5.98941 8.36022 6.33608C8.23222 6.67741 8.05089 6.97341 7.81622 7.22408C7.58689 7.46941 7.31222 7.66141 6.99222 7.80008C6.67222 7.93341 6.32022 8.00008 5.93622 8.00008H3.82422ZM4.44822 7.50408L4.37622 7.39208H5.89622C6.18955 7.39208 6.45889 7.34141 6.70422 7.24008C6.95489 7.13341 7.16822 6.98408 7.34422 6.79208C7.52555 6.59474 7.66422 6.36274 7.76022 6.09608C7.86155 5.82941 7.91222 5.53074 7.91222 5.20008C7.91222 4.86941 7.86155 4.57074 7.76022 4.30408C7.66422 4.03741 7.52555 3.80808 7.34422 3.61608C7.16289 3.41874 6.94955 3.26941 6.70422 3.16808C6.45889 3.06141 6.18955 3.00808 5.89622 3.00808H4.35222L4.44822 2.91208V7.50408Z" fill="#F5F5F5"/>
<path d="M11.3695 8.08008C10.9535 8.08008 10.5829 7.98941 10.2575 7.80808C9.93753 7.62674 9.68686 7.37341 9.50553 7.04808C9.3242 6.72274 9.23353 6.34941 9.23353 5.92808C9.23353 5.60274 9.2842 5.30941 9.38553 5.04808C9.48686 4.78141 9.6282 4.54941 9.80953 4.35208C9.9962 4.15474 10.2175 4.00274 10.4735 3.89608C10.7295 3.78408 11.0069 3.72808 11.3055 3.72808C11.5882 3.72808 11.8442 3.77874 12.0735 3.88008C12.3082 3.98141 12.5082 4.12274 12.6735 4.30408C12.8442 4.48008 12.9722 4.69074 13.0575 4.93608C13.1429 5.18141 13.1802 5.45074 13.1695 5.74408L13.1615 6.02408H9.68153L9.59353 5.52008H12.7055L12.5615 5.65608V5.46408C12.5509 5.27208 12.4949 5.08808 12.3935 4.91208C12.2922 4.73074 12.1482 4.58408 11.9615 4.47208C11.7802 4.36008 11.5615 4.30408 11.3055 4.30408C11.0069 4.30408 10.7482 4.36541 10.5295 4.48808C10.3109 4.60541 10.1429 4.78141 10.0255 5.01608C9.9082 5.25074 9.84953 5.54141 9.84953 5.88808C9.84953 6.21874 9.91353 6.50674 10.0415 6.75208C10.1695 6.99208 10.3509 7.17874 10.5855 7.31208C10.8255 7.44541 11.1135 7.51208 11.4495 7.51208C11.6469 7.51208 11.8415 7.48008 12.0335 7.41608C12.2309 7.34674 12.4469 7.21341 12.6815 7.01608L12.9935 7.44808C12.8709 7.57074 12.7242 7.68008 12.5535 7.77608C12.3829 7.86674 12.1962 7.94141 11.9935 8.00008C11.7909 8.05341 11.5829 8.08008 11.3695 8.08008Z" fill="#F5F5F5"/>
<path d="M15.2396 8.00008L13.4796 3.82408H14.1436L15.5356 7.24008L15.3756 7.32808L16.9036 3.82408H17.5436L15.6716 8.00008H15.2396Z" fill="#F5F5F5"/>
<path d="M19.9711 8.08008C19.5551 8.08008 19.1844 7.98941 18.8591 7.80808C18.5391 7.62674 18.2884 7.37341 18.1071 7.04808C17.9258 6.72274 17.8351 6.34941 17.8351 5.92808C17.8351 5.60274 17.8858 5.30941 17.9871 5.04808C18.0884 4.78141 18.2298 4.54941 18.4111 4.35208C18.5978 4.15474 18.8191 4.00274 19.0751 3.89608C19.3311 3.78408 19.6084 3.72808 19.9071 3.72808C20.1898 3.72808 20.4458 3.77874 20.6751 3.88008C20.9098 3.98141 21.1098 4.12274 21.2751 4.30408C21.4458 4.48008 21.5738 4.69074 21.6591 4.93608C21.7444 5.18141 21.7818 5.45074 21.7711 5.74408L21.7631 6.02408H18.2831L18.1951 5.52008H21.3071L21.1631 5.65608V5.46408C21.1524 5.27208 21.0964 5.08808 20.9951 4.91208C20.8938 4.73074 20.7498 4.58408 20.5631 4.47208C20.3818 4.36008 20.1631 4.30408 19.9071 4.30408C19.6084 4.30408 19.3498 4.36541 19.1311 4.48808C18.9124 4.60541 18.7444 4.78141 18.6271 5.01608C18.5098 5.25074 18.4511 5.54141 18.4511 5.88808C18.4511 6.21874 18.5151 6.50674 18.6431 6.75208C18.7711 6.99208 18.9524 7.17874 19.1871 7.31208C19.4271 7.44541 19.7151 7.51208 20.0511 7.51208C20.2484 7.51208 20.4431 7.48008 20.6351 7.41608C20.8324 7.34674 21.0484 7.21341 21.2831 7.01608L21.5951 7.44808C21.4724 7.57074 21.3258 7.68008 21.1551 7.77608C20.9844 7.86674 20.7978 7.94141 20.5951 8.00008C20.3924 8.05341 20.1844 8.08008 19.9711 8.08008Z" fill="#F5F5F5"/>
<path d="M22.6393 8.00008V2.08008H23.2393V8.00008H22.6393Z" fill="#F5F5F5"/>
<path d="M26.19 8.08008C25.774 8.08008 25.4034 7.98675 25.078 7.80008C24.758 7.61341 24.5047 7.35475 24.318 7.02408C24.1367 6.69341 24.046 6.31741 24.046 5.89608C24.046 5.48008 24.1367 5.10941 24.318 4.78408C24.5047 4.45874 24.758 4.20274 25.078 4.01608C25.4034 3.82941 25.774 3.73608 26.19 3.73608C26.6007 3.73608 26.966 3.82941 27.286 4.01608C27.6114 4.20274 27.8647 4.45874 28.046 4.78408C28.2327 5.10941 28.326 5.48008 28.326 5.89608C28.326 6.31741 28.2327 6.69341 28.046 7.02408C27.8647 7.35475 27.6114 7.61341 27.286 7.80008C26.966 7.98675 26.6007 8.08008 26.19 8.08008ZM26.19 7.51208C26.4834 7.51208 26.7447 7.44274 26.974 7.30408C27.2034 7.16008 27.382 6.96808 27.51 6.72808C27.638 6.48274 27.702 6.20541 27.702 5.89608C27.702 5.58674 27.638 5.31208 27.51 5.07208C27.382 4.83208 27.2034 4.64541 26.974 4.51208C26.7447 4.37341 26.4834 4.30408 26.19 4.30408C25.8967 4.30408 25.6327 4.37341 25.398 4.51208C25.1687 4.64541 24.9874 4.83474 24.854 5.08008C24.726 5.32008 24.6647 5.59208 24.67 5.89608C24.6647 6.20541 24.726 6.48274 24.854 6.72808C24.9874 6.96808 25.1687 7.16008 25.398 7.30408C25.6327 7.44274 25.8967 7.51208 26.19 7.51208Z" fill="#F5F5F5"/>
<path d="M29.2014 9.76008V3.82408H29.8014L29.8174 4.84008L29.7054 4.85608C29.7534 4.65341 29.8574 4.46941 30.0174 4.30408C30.1774 4.13341 30.3721 3.99741 30.6014 3.89608C30.8307 3.79474 31.0734 3.74408 31.3294 3.74408C31.7027 3.74408 32.0361 3.83741 32.3294 4.02408C32.6281 4.21075 32.8654 4.46674 33.0414 4.79208C33.2174 5.11741 33.3054 5.49074 33.3054 5.91208C33.3054 6.32808 33.2201 6.69875 33.0494 7.02408C32.8787 7.34941 32.6441 7.60808 32.3454 7.80008C32.0467 7.98675 31.7107 8.08008 31.3374 8.08008C31.0761 8.08008 30.8281 8.02674 30.5934 7.92008C30.3587 7.81341 30.1587 7.67475 29.9934 7.50408C29.8281 7.32808 29.7187 7.13874 29.6654 6.93608H29.8094V9.76008H29.2014ZM31.2414 7.50408C31.5241 7.50408 31.7747 7.43474 31.9934 7.29608C32.2121 7.15741 32.3854 6.96808 32.5134 6.72808C32.6414 6.48808 32.7054 6.21608 32.7054 5.91208C32.7054 5.60274 32.6414 5.32808 32.5134 5.08808C32.3854 4.84808 32.2121 4.65874 31.9934 4.52008C31.7747 4.38141 31.5241 4.31208 31.2414 4.31208C30.9587 4.31208 30.7054 4.38141 30.4814 4.52008C30.2627 4.65341 30.0894 4.84008 29.9614 5.08008C29.8334 5.32008 29.7694 5.59474 29.7694 5.90408C29.7694 6.21341 29.8334 6.48808 29.9614 6.72808C30.0894 6.96808 30.2627 7.15741 30.4814 7.29608C30.7054 7.43474 30.9587 7.50408 31.2414 7.50408Z" fill="#F5F5F5"/>
<path d="M36.018 8.08008C35.602 8.08008 35.2313 7.98941 34.906 7.80808C34.586 7.62674 34.3353 7.37341 34.154 7.04808C33.9726 6.72274 33.882 6.34941 33.882 5.92808C33.882 5.60274 33.9326 5.30941 34.034 5.04808C34.1353 4.78141 34.2766 4.54941 34.458 4.35208C34.6446 4.15474 34.866 4.00274 35.122 3.89608C35.378 3.78408 35.6553 3.72808 35.954 3.72808C36.2366 3.72808 36.4926 3.77874 36.722 3.88008C36.9566 3.98141 37.1566 4.12274 37.322 4.30408C37.4926 4.48008 37.6206 4.69074 37.706 4.93608C37.7913 5.18141 37.8286 5.45074 37.818 5.74408L37.81 6.02408H34.33L34.242 5.52008H37.354L37.21 5.65608V5.46408C37.1993 5.27208 37.1433 5.08808 37.042 4.91208C36.9406 4.73074 36.7966 4.58408 36.61 4.47208C36.4286 4.36008 36.21 4.30408 35.954 4.30408C35.6553 4.30408 35.3966 4.36541 35.178 4.48808C34.9593 4.60541 34.7913 4.78141 34.674 5.01608C34.5566 5.25074 34.498 5.54141 34.498 5.88808C34.498 6.21874 34.562 6.50674 34.69 6.75208C34.818 6.99208 34.9993 7.17874 35.234 7.31208C35.474 7.44541 35.762 7.51208 36.098 7.51208C36.2953 7.51208 36.49 7.48008 36.682 7.41608C36.8793 7.34674 37.0953 7.21341 37.33 7.01608L37.642 7.44808C37.5193 7.57074 37.3726 7.68008 37.202 7.77608C37.0313 7.86674 36.8446 7.94141 36.642 8.00008C36.4393 8.05341 36.2313 8.08008 36.018 8.08008Z" fill="#F5F5F5"/>
<path d="M40.3662 8.08008C39.9875 8.08008 39.6462 7.98675 39.3422 7.80008C39.0435 7.61341 38.8062 7.35741 38.6302 7.03208C38.4595 6.70141 38.3742 6.32808 38.3742 5.91208C38.3742 5.49074 38.4622 5.11741 38.6382 4.79208C38.8142 4.46141 39.0515 4.20274 39.3502 4.01608C39.6488 3.82941 39.9848 3.73608 40.3582 3.73608C40.5662 3.73608 40.7662 3.76808 40.9582 3.83208C41.1555 3.89608 41.3315 3.98675 41.4862 4.10408C41.6408 4.21608 41.7688 4.34674 41.8702 4.49608C41.9715 4.64008 42.0328 4.79208 42.0542 4.95208L41.8702 4.88808V2.08008H42.4702V8.00008H41.8782L41.8622 6.96008L42.0142 6.90408C41.9928 7.05341 41.9315 7.20008 41.8302 7.34408C41.7342 7.48274 41.6115 7.60808 41.4622 7.72008C41.3128 7.83208 41.1422 7.92008 40.9502 7.98408C40.7635 8.04808 40.5688 8.08008 40.3662 8.08008ZM40.4542 7.52808C40.7315 7.52808 40.9795 7.45875 41.1982 7.32008C41.4168 7.18141 41.5875 6.98941 41.7102 6.74408C41.8382 6.49874 41.9022 6.21874 41.9022 5.90408C41.9022 5.58941 41.8382 5.31208 41.7102 5.07208C41.5875 4.82674 41.4168 4.63474 41.1982 4.49608C40.9795 4.35208 40.7315 4.28008 40.4542 4.28008C40.1662 4.28008 39.9128 4.35208 39.6942 4.49608C39.4808 4.63474 39.3102 4.82674 39.1822 5.07208C39.0595 5.31208 38.9982 5.58941 38.9982 5.90408C38.9982 6.21341 39.0595 6.49074 39.1822 6.73608C39.3048 6.98141 39.4755 7.17608 39.6942 7.32008C39.9128 7.45875 40.1662 7.52808 40.4542 7.52808Z" fill="#F5F5F5"/>
<path d="M48.0011 8.08008C47.8038 8.08008 47.6118 8.05074 47.4251 7.99208C47.2384 7.92808 47.0678 7.84274 46.9131 7.73608C46.7638 7.62941 46.6358 7.50674 46.5291 7.36808C46.4278 7.22941 46.3584 7.08541 46.3211 6.93608L46.4971 6.94408L46.4731 7.99208H45.8811V2.08008H46.4811V4.82408L46.3611 4.85608C46.3984 4.70674 46.4651 4.56541 46.5611 4.43208C46.6624 4.29341 46.7878 4.17341 46.9371 4.07208C47.0864 3.96541 47.2491 3.88274 47.4251 3.82408C47.6064 3.76541 47.7931 3.73608 47.9851 3.73608C48.3584 3.73608 48.6918 3.82941 48.9851 4.01608C49.2838 4.20274 49.5211 4.45874 49.6971 4.78408C49.8731 5.10941 49.9611 5.48274 49.9611 5.90408C49.9611 6.32541 49.8758 6.70141 49.7051 7.03208C49.5344 7.35741 49.2998 7.61341 49.0011 7.80008C48.7078 7.98675 48.3744 8.08008 48.0011 8.08008ZM47.9051 7.51208C48.1878 7.51208 48.4384 7.44274 48.6571 7.30408C48.8758 7.16008 49.0464 6.96808 49.1691 6.72808C49.2971 6.48274 49.3611 6.20808 49.3611 5.90408C49.3611 5.59474 49.2971 5.32008 49.1691 5.08008C49.0464 4.84008 48.8758 4.65074 48.6571 4.51208C48.4384 4.37341 48.1878 4.30408 47.9051 4.30408C47.6224 4.30408 47.3718 4.37341 47.1531 4.51208C46.9344 4.65074 46.7611 4.84008 46.6331 5.08008C46.5104 5.32008 46.4491 5.59474 46.4491 5.90408C46.4491 6.21341 46.5104 6.49074 46.6331 6.73608C46.7611 6.97608 46.9344 7.16541 47.1531 7.30408C47.3718 7.44274 47.6224 7.51208 47.9051 7.51208Z" fill="#F5F5F5"/>
<path d="M51.382 9.84008L52.19 7.87208L52.246 8.44008L50.15 3.82408H50.83L52.262 7.02408C52.3046 7.10941 52.3473 7.21074 52.39 7.32808C52.4326 7.44008 52.4726 7.55208 52.51 7.66408L52.286 7.64008C52.3233 7.54941 52.358 7.45608 52.39 7.36008C52.4273 7.26408 52.462 7.17074 52.494 7.08008L53.75 3.82408H54.438L52.75 8.00008L52.03 9.84008H51.382Z" fill="#F5F5F5"/>
<defs>
<clipPath id="clip0_146_1203">
<rect width="57" height="57" fill="white" transform="translate(0 20)"/>
</clipPath>
</defs>
</svg>
