<svg width="62" height="79" viewBox="0 0 62 79" fill="none" xmlns="http://www.w3.org/2000/svg">
<path d="M12.4389 64.1481C12.0412 64.1481 11.3967 63.723 10.9578 63.1607C10.6699 62.8042 10.2447 62.1048 10.5876 61.4465C10.6836 61.2956 10.7659 61.1448 10.8618 60.9939L10.9167 60.8979L13.2755 63.2704L13.2343 63.3253C13.1383 63.4761 13.0561 63.627 12.9601 63.7778C12.8915 63.8876 12.7681 64.0658 12.5349 64.1344C12.5075 64.1481 12.4801 64.1481 12.4389 64.1481ZM10.9441 61.1859C10.8756 61.3094 10.807 61.4191 10.7384 61.5288C10.4504 62.0911 10.8344 62.7219 11.095 63.0373C11.575 63.6407 12.2332 64.011 12.5075 63.9424C12.6721 63.9013 12.7544 63.7641 12.8229 63.6681C12.8915 63.5447 12.9738 63.4213 13.0561 63.2841L10.9441 61.1859Z" fill="#F5F5F5"/>
<path d="M53.4698 23.1436C53.3738 23.1436 53.2778 23.1299 53.1407 23.0614C53.1269 23.0614 52.3864 22.5951 52.4138 22.2248C52.4138 22.1425 52.4687 22.0328 52.647 21.9642C52.743 21.9368 52.8115 21.9231 52.8801 21.8957C52.9212 21.882 52.9624 21.8682 53.0172 21.8545L53.0721 21.8408L54.1829 22.9516L54.032 22.9928C53.9223 23.0202 53.8126 23.0614 53.7029 23.0888C53.6481 23.1299 53.5658 23.1436 53.4698 23.1436ZM53.0172 22.0602C52.9761 22.074 52.9487 22.074 52.9212 22.0877C52.8527 22.1014 52.7978 22.1151 52.7018 22.1425C52.5921 22.1837 52.5921 22.2248 52.5921 22.2385C52.5784 22.4442 53.1132 22.8419 53.2229 22.8968C53.4149 22.9928 53.5521 22.9516 53.6344 22.9242C53.7029 22.8968 53.7578 22.8831 53.8263 22.8694L53.0172 22.0602Z" fill="#F5F5F5"/>
<path d="M49.3972 26.0919L49.3561 26.0233C49.0407 25.5159 48.7253 25.0085 48.4099 24.5011L48.1904 24.1445L48.5333 24.3777C49.0955 24.7479 49.6441 25.1182 50.2064 25.4885L50.3298 25.5708L50.1926 25.6393C49.9595 25.7765 49.7127 25.9136 49.4658 26.0507L49.3972 26.0919ZM48.7801 24.7479C49.0133 25.1182 49.2327 25.4748 49.4521 25.845C49.6304 25.749 49.8087 25.6393 49.9732 25.5433C49.5755 25.2828 49.1778 25.0085 48.7801 24.7479Z" fill="#F5F5F5"/>
<path d="M36.9722 36.1305C36.0534 36.1305 35.3677 35.1294 35.2854 34.9374C34.9837 34.3065 35.0934 33.8403 35.6694 33.3054C35.8614 33.1409 36.0671 32.9626 36.2591 32.798L36.3276 32.7432L38.6864 35.1157L38.6178 35.1842C38.4258 35.3488 38.2338 35.5134 38.0281 35.6916C37.8362 35.8425 37.4933 36.1168 36.9996 36.1305C36.9859 36.1305 36.9722 36.1305 36.9722 36.1305ZM35.45 34.8688C35.5185 35.0059 36.1631 35.9522 36.9722 35.9522H36.9859C37.411 35.9522 37.7264 35.6916 37.891 35.5545C38.0556 35.4036 38.2339 35.2665 38.3984 35.1157L36.3002 33.0037C36.1219 33.1546 35.9574 33.3054 35.7791 33.4563C35.2717 33.9226 35.1757 34.3065 35.45 34.8688Z" fill="#F5F5F5"/>
<path d="M9.73613 68.8107L9.6127 68.6598C9.07787 67.9879 8.87216 67.741 8.36475 67.1102L7.88477 66.5205L8.48817 66.9868C9.10529 67.4668 9.17386 67.5216 9.85955 68.0427L9.91441 68.0839L9.90069 68.1387C9.85955 68.3033 9.81841 68.4679 9.77727 68.6324L9.73613 68.8107ZM8.98187 67.5902C9.18758 67.837 9.36586 68.0702 9.64013 68.3993C9.65385 68.317 9.68127 68.2347 9.7087 68.1387C9.36586 67.8782 9.17386 67.741 8.98187 67.5902Z" fill="#F5F5F5"/>
<path d="M12.9458 79L0 66.0542L18.2668 47.7874L0.425127 29.9458L13.3709 17L31.2126 34.8416L48.6291 17.4251L52.5923 21.3884L52.4415 21.4296C52.2906 21.4707 52.1261 21.5255 51.9615 21.5804C51.9204 21.5941 51.8792 21.6215 51.8518 21.6353C51.7558 21.7038 51.7284 21.7998 51.7558 21.937C51.8655 22.4855 52.7706 23.2809 53.4289 23.4043L53.566 23.4318L53.4837 23.5415C53.374 23.706 53.7443 24.1312 54.1146 24.5289C54.4437 24.8854 54.6083 25.0774 54.6768 25.2008C54.7866 25.1597 54.8825 25.1186 54.9923 25.0774C54.8688 24.9266 54.7454 24.7757 54.5946 24.6386C54.4026 24.4329 54.1969 24.2272 54.046 23.9803C53.9774 23.8569 53.95 23.7609 53.9912 23.6786C54.0323 23.5689 54.142 23.5278 54.2106 23.5003L54.3203 23.4729C54.3889 23.4455 54.4437 23.4318 54.5397 23.4043L54.5946 23.3906L56.0071 24.8031L61.5749 30.3709L44.1584 47.7874L62 65.6291L49.0542 78.5749L31.2126 60.7332L12.9458 79ZM0.260562 66.0542L12.9458 78.7394L31.2126 60.4727L49.0542 78.3143L61.7394 65.6291L43.8978 47.7874L61.328 30.3709L54.5397 23.5826C54.4848 23.5963 54.43 23.61 54.3751 23.6375L54.2791 23.6649C54.238 23.6786 54.1831 23.706 54.1694 23.7335C54.1694 23.7472 54.1557 23.7883 54.2106 23.8843C54.3477 24.1175 54.526 24.3094 54.7317 24.5152C54.8963 24.6934 55.0745 24.8717 55.2117 25.0774L55.2802 25.1734L55.1705 25.2146C55.006 25.2694 54.8414 25.338 54.6768 25.4065L54.5946 25.4477L54.5671 25.3654C54.526 25.2557 54.3889 25.0774 54.0049 24.666C53.5249 24.1449 53.2643 23.8157 53.3055 23.5689C52.6061 23.3769 51.7284 22.5678 51.605 21.9781C51.5501 21.7038 51.6598 21.5667 51.7695 21.4844C51.8244 21.4433 51.8929 21.4158 51.9204 21.4158C52.0438 21.3747 52.1535 21.3473 52.2632 21.3061L48.6291 17.672L31.2126 35.1022L13.3709 17.2606L0.671975 29.9458L18.5136 47.7874L0.260562 66.0542ZM11.2179 72.6231L10.5596 71.9648C10.4362 71.8003 10.3402 71.6083 10.2853 71.3889L9.76421 70.854C9.77792 70.8814 9.79164 70.9089 9.81907 70.9363L9.68193 71.046L9.07852 70.4426C8.96881 70.278 8.88653 70.0998 8.83167 69.9078L8.40655 69.4826C8.43397 69.5238 8.4614 69.5649 8.48883 69.5923L8.35169 69.7158L7.72086 69.0849C7.54258 68.8381 7.43287 68.5501 7.37801 68.2073L7.35059 68.029C7.29573 67.6724 7.30944 67.2473 7.39173 66.7673L7.41915 66.589L8.22827 67.4119L8.21455 67.453C8.18713 67.6038 8.17341 67.7547 8.1597 67.8918L10.779 70.5249C9.88764 69.4415 8.8591 68.1935 7.47401 66.4519L7.44658 66.4245L7.4603 66.3833C7.48772 66.2462 7.52887 66.109 7.57001 65.9582L7.61115 65.8348L7.72086 65.9171C8.40655 66.4245 9.14709 67.0004 10.0933 67.6861C10.0522 67.645 10.0111 67.6038 9.96992 67.5764L9.92878 67.5353L9.94249 67.4804C9.99735 67.3296 10.0522 67.1787 10.1071 67.0142L10.1482 66.8907L10.2442 66.973C10.779 67.4393 10.971 67.4256 11.0259 67.3844C11.1082 67.3433 11.1219 67.2061 11.1219 67.0964C11.0807 66.3833 9.87392 65.0805 9.20195 64.8885C9.0511 64.8474 8.9551 64.8611 8.90024 64.9297C8.83167 65.0257 8.72196 65.3136 9.27052 65.9856L9.29794 66.0268L9.28423 66.0816C9.22937 66.2325 9.17452 66.3833 9.11966 66.5342L9.06481 66.685L8.96881 66.5753C7.77571 65.2451 7.96771 64.4908 8.04999 64.2851V64.2714C8.21455 63.9697 8.47512 63.8326 8.81796 63.8737C9.92878 63.9971 11.547 65.8073 11.8898 67.0279C12.0407 67.5764 11.9721 68.0701 11.7116 68.2895C11.5744 68.413 11.3002 68.4952 10.8476 68.2621C11.0396 68.3992 11.2316 68.5501 11.451 68.701L11.5059 68.7421L11.4784 68.8107C11.4236 68.9615 11.3687 69.1124 11.3276 69.2632L11.2864 69.3866L11.1904 69.3044C10.9436 69.1261 10.7105 68.9341 10.4636 68.7558C10.4088 68.9341 10.3676 69.1124 10.3402 69.2769C10.587 69.5786 10.8202 69.8666 11.067 70.1683L11.0944 70.1958L11.0807 70.2369C11.0533 70.374 11.0396 70.4975 11.0259 70.6209L11.0122 70.7854V70.8266C10.9985 70.9363 10.9985 71.046 10.9985 71.1557V71.3751L8.1597 68.509C8.1597 68.5638 8.17341 68.6187 8.17341 68.6735L8.20084 68.8244L11.0533 71.6906V71.718C11.0944 72.0334 11.2042 72.3077 11.355 72.5134L11.2179 72.6231ZM10.6967 71.8551L10.9436 72.102C10.9162 71.9923 10.8887 71.8825 10.875 71.7728L10.4636 71.3614C10.5048 71.5397 10.587 71.718 10.6967 71.8551ZM7.95399 68.0427L10.8202 70.9226C10.8202 70.8952 10.8202 70.8677 10.8202 70.8403L7.96771 67.9741V67.933C7.98142 67.7958 7.99513 67.6313 8.02256 67.4804L7.52887 66.9867C7.47401 67.357 7.47401 67.6998 7.51515 67.9878L7.96771 68.4404C7.96771 68.3855 7.96771 68.3307 7.96771 68.2758L7.95399 68.0427ZM8.99624 69.8803C9.0511 70.0586 9.11966 70.2095 9.20195 70.3466L9.43508 70.5797C9.43508 70.566 9.42137 70.5386 9.42137 70.5249L9.3528 70.2506L8.99624 69.8803ZM7.62486 66.3696C8.98253 68.0701 9.98363 69.3044 10.8613 70.3603C10.875 70.3192 10.875 70.2643 10.8887 70.2095C10.6419 69.9078 10.395 69.6198 10.1619 69.3181L10.1345 69.2906L10.1482 69.2495C10.1893 69.0301 10.2579 68.7969 10.3265 68.5501L10.3676 68.4267L10.4773 68.509C10.7242 68.6872 10.9573 68.8792 11.2042 69.0575C11.2316 68.9615 11.259 68.8792 11.3002 68.7832C9.73678 67.6587 8.63968 66.8496 7.67972 66.1228C7.666 66.205 7.63858 66.2873 7.62486 66.3696ZM7.59743 68.4678C7.65229 68.6598 7.73457 68.8244 7.83057 68.9615L8.0637 69.1946C8.04999 69.1672 8.04999 69.1398 8.03627 69.1124L7.96771 68.8381L7.59743 68.4678ZM10.0933 67.4667C10.299 67.6587 10.6008 67.9193 10.9162 68.0838C11.1219 68.1935 11.3962 68.2758 11.5744 68.1387C11.7801 67.9741 11.8213 67.5353 11.6979 67.069C11.3413 65.8211 9.73678 64.148 8.77682 64.0383C8.50254 64.0108 8.31055 64.1068 8.18713 64.34C8.11856 64.5182 7.96771 65.1491 8.96881 66.3148C8.99624 66.2325 9.03738 66.1365 9.06481 66.0542C8.51626 65.3685 8.57111 64.9982 8.72196 64.8062C8.79053 64.7102 8.92767 64.6142 9.21566 64.6965C9.9562 64.9159 11.2042 66.2599 11.259 67.069C11.259 67.1787 11.259 67.4393 11.067 67.5353C10.875 67.6313 10.587 67.5079 10.1893 67.1787C10.1619 67.2884 10.1345 67.3707 10.0933 67.4667ZM12.3698 66.6987L8.72196 63.0372L8.74939 62.9823C8.84539 62.804 8.94139 62.612 9.03738 62.4338L9.09224 62.324L12.7401 65.9856L12.7127 66.0405C12.6167 66.2325 12.5207 66.4108 12.4247 66.589L12.3698 66.6987ZM8.94138 62.996L12.315 66.397C12.3835 66.2736 12.4384 66.1365 12.507 66.0131L9.13338 62.612C9.07852 62.7355 9.00995 62.8589 8.94138 62.996ZM12.6304 65.0531C12.5481 65.0531 12.4521 65.0394 12.3698 65.0257C11.163 64.7514 9.81907 62.7903 9.69564 61.9812C9.61336 61.4052 9.80535 61.0487 9.90135 60.8841C10.1208 60.5138 10.3539 60.1298 10.6008 59.7459L10.6556 59.6499L14.2898 63.3114L14.2486 63.3663C14.0018 63.7503 13.7686 64.1343 13.5492 64.5045C13.3161 64.8611 13.0007 65.0531 12.6304 65.0531ZM10.0522 60.9664C9.96992 61.1172 9.79164 61.4326 9.87392 61.9538C9.98363 62.708 11.2864 64.6005 12.3973 64.8474C12.8087 64.9434 13.1515 64.7925 13.4121 64.4085C13.6178 64.0657 13.8372 63.6954 14.0703 63.3251L10.683 59.9241C10.4636 60.2807 10.2442 60.6372 10.0522 60.9664ZM14.4543 63.0509L10.8202 59.3893L10.8613 59.3344C10.9985 59.1287 11.1219 58.923 11.2727 58.7036L11.3276 58.6076L13.4258 60.7195C13.1241 60.0064 12.6578 58.9093 12.1093 57.5242L12.0956 57.4831L12.123 57.4419C12.2875 57.2088 12.4521 56.9757 12.6167 56.7425L12.6852 56.6465C12.8635 56.386 13.0555 56.1254 13.2475 55.8649L13.2887 55.81L13.3846 55.8374C13.8921 56.002 14.372 56.1666 15.14 56.4134C14.8932 55.7551 14.7149 55.3026 14.3858 54.3975L14.372 54.3563L14.3995 54.3152C14.6189 54.0409 14.8246 53.7529 15.0577 53.4649L15.1674 53.3278L15.2223 53.4924C15.5514 54.466 15.8668 55.3986 16.388 56.8797L17.8005 58.2922L17.7593 58.3608C17.5811 58.5939 17.4028 58.8407 17.2245 59.0739L17.1559 59.1562L15.7434 57.7436C14.8657 57.4694 14.0841 57.2225 12.8498 56.8111L16.3194 60.3081L16.2783 60.3767C16.1137 60.5961 15.9628 60.8155 15.812 61.035L15.7434 61.1172L13.6315 58.9916C13.9332 59.7459 14.372 60.8292 14.9617 62.2143L14.9754 62.2555L14.948 62.2966C14.8109 62.516 14.66 62.7355 14.5229 62.9412L14.4543 63.0509ZM11.0396 59.3756L14.4132 62.7766C14.5229 62.612 14.6326 62.4338 14.7423 62.2555C14.0429 60.6235 13.5629 59.403 13.2612 58.6762L13.0967 58.2648L13.4121 58.5665L15.6886 60.8567C15.812 60.6921 15.9217 60.5138 16.0451 60.3355L12.6715 56.9345C12.5344 57.1265 12.3973 57.3185 12.2738 57.5105C12.9458 59.1836 13.4806 60.4178 13.7549 61.0898L13.9332 61.5286L11.3276 58.9093C11.2453 59.0602 11.1356 59.211 11.0396 59.3756ZM12.8772 56.6603C14.1252 57.0717 14.9069 57.3185 15.7846 57.5928H15.812L17.1011 58.8956C17.2382 58.7036 17.3754 58.5253 17.5262 58.3333L16.196 56.9757C15.6886 55.5494 15.3869 54.6443 15.0714 53.7255C14.8932 53.9449 14.7286 54.1781 14.5503 54.3975C14.8932 55.33 15.0714 55.7826 15.332 56.4957L15.4143 56.7014L15.236 56.6465C14.3858 56.3723 13.8646 56.194 13.3298 56.0294C13.1789 56.2488 13.0281 56.4545 12.8772 56.6603ZM18.3353 56.8248C18.3216 56.8248 18.2942 56.8248 18.2805 56.8248C17.5399 56.7837 17.0737 56.0568 17.0188 55.9746C16.5937 55.2889 16.9228 54.5072 17.2382 53.7666C17.4028 53.3827 17.5811 52.985 17.4576 52.7655C17.4165 52.6833 17.3205 52.6284 17.1834 52.601C17.0462 52.5735 16.8817 52.6558 16.7308 52.8067C16.5251 53.0261 16.4154 53.3278 16.4702 53.5472C16.5114 53.7118 16.5662 53.7941 16.676 53.9449L16.7171 53.9998L16.676 54.0546C16.484 54.2878 16.3057 54.5346 16.1137 54.7677L16.0451 54.85L15.9766 54.7677C15.044 53.7255 15.428 52.793 15.8943 52.2033C16.5662 51.4216 17.1834 51.3942 17.5674 51.5176C18.1433 51.6959 18.5685 52.2993 18.6233 52.7655C18.6782 53.2044 18.5136 53.6295 18.2942 54.1506C18.0473 54.754 17.8965 55.1243 17.9239 55.3026C17.9513 55.4397 18.0885 55.6317 18.2668 55.6866C18.4587 55.7414 18.6782 55.6317 18.8839 55.3849C19.4324 54.6992 19.0347 54.2466 18.8702 54.0409L18.8153 53.9861L18.8702 53.9312C19.0759 53.6706 19.2953 53.4238 19.501 53.1632L19.5696 53.081L19.6381 53.1632C20.5021 54.1369 20.2553 55.0695 20.0358 55.5357C19.7067 56.2626 18.9524 56.8248 18.3353 56.8248ZM17.1422 52.4227C17.1697 52.4227 17.2108 52.4227 17.2382 52.4364C17.4302 52.4775 17.5674 52.5598 17.6359 52.697C17.7868 52.985 17.5948 53.4238 17.4165 53.8489C17.1148 54.5483 16.7994 55.2752 17.1834 55.8923C17.2245 55.9608 17.6496 56.6191 18.2942 56.6465C18.8564 56.674 19.5696 56.1391 19.8987 55.4534C20.1044 55.042 20.3238 54.2192 19.6107 53.3552C19.4324 53.5609 19.2679 53.7804 19.0896 53.9861C19.2816 54.2192 19.6518 54.7678 19.0622 55.4946C18.7467 55.8923 18.445 55.9197 18.2668 55.8649C17.9925 55.7963 17.8142 55.5357 17.7868 55.3437C17.7456 55.1106 17.8828 54.7677 18.157 54.0958C18.3628 53.5884 18.5273 53.1907 18.4725 52.793C18.4176 52.3816 18.0473 51.8604 17.5399 51.6959C17.0599 51.545 16.5388 51.7644 16.0588 52.3267C15.6337 52.8478 15.3046 53.6569 16.0588 54.5758C16.2097 54.3838 16.3605 54.1918 16.4977 54.0135C16.4017 53.8901 16.3468 53.7804 16.3057 53.6021C16.2234 53.2867 16.4017 52.9164 16.6074 52.697C16.772 52.505 16.9639 52.4227 17.1422 52.4227ZM22.0243 53.0398L18.3902 49.3782L18.445 49.3097C18.6645 49.0491 18.8839 48.8023 19.1033 48.5417L19.1719 48.4731L21.3524 50.6673C21.1466 49.8856 20.8312 48.6925 20.4198 47.1155L20.4061 47.0743L20.4335 47.0332C20.6804 46.7589 20.9272 46.4846 21.1878 46.2104L21.2564 46.1418L24.8905 49.8034L24.8357 49.8719C24.6025 50.1325 24.3557 50.3931 24.1225 50.6536L24.054 50.7222L21.8598 48.5143C22.0518 49.296 22.3672 50.5302 22.7923 52.0798L22.806 52.121L22.7786 52.1621C22.5455 52.4227 22.3123 52.697 22.0929 52.9575L22.0243 53.0398ZM18.637 49.3782L22.0243 52.7793C22.2163 52.5461 22.422 52.3267 22.614 52.0936C22.134 50.3245 21.7912 48.9805 21.6129 48.2537L21.5306 47.9383L24.054 50.4753C24.246 50.2559 24.4517 50.0365 24.6437 49.8171L21.2564 46.4023C21.0369 46.6492 20.8175 46.8823 20.6118 47.1292C21.0644 48.9257 21.4072 50.1873 21.6129 50.9553L21.6952 51.2845L19.1719 48.7474C18.9936 48.9531 18.8153 49.1725 18.637 49.3782ZM25.1785 49.4879L23.1489 47.4446L23.2037 47.376C23.6837 46.8549 24.1774 46.3201 24.6711 45.7989L24.7397 45.7304L25.4391 46.4298L25.3842 46.4983C25.1374 46.7589 24.9042 47.0058 24.6711 47.2663C25.1236 47.6092 25.5076 47.5269 25.7682 47.3897C26.2207 47.1566 26.5362 46.5806 26.495 46.1006C26.4402 45.5247 25.8093 44.6744 25.0825 44.4413C24.6025 44.2904 24.15 44.4413 23.7934 44.8801C23.4643 45.2778 23.4368 45.6755 23.6837 46.1006L23.7248 46.1555L23.6837 46.2104C23.4368 46.4709 23.19 46.7452 22.9432 47.0058L22.8609 47.088L22.7923 46.992C21.7912 45.5658 22.7512 44.3727 23.0666 44.0436C23.9168 43.2207 24.9042 42.9876 25.8642 43.3716C26.879 43.783 27.6607 44.8801 27.6881 45.9086C27.7018 46.4435 27.455 47.28 26.879 47.856C26.495 48.2263 26.0288 48.432 25.5076 48.4457L25.7819 48.8434L25.7271 48.8983C25.5625 49.0765 25.4116 49.2411 25.2471 49.4194L25.1785 49.4879ZM23.3957 47.4446L25.1648 49.2274C25.2882 49.0902 25.4116 48.9668 25.5351 48.8297L25.1511 48.2537L25.3294 48.2674C25.8779 48.2948 26.3442 48.1166 26.7419 47.7326C27.2767 47.1977 27.5098 46.4161 27.4961 45.9224C27.4687 44.9487 26.7282 43.9339 25.7819 43.5499C24.9042 43.1933 23.9717 43.4127 23.1763 44.1807C22.8883 44.4824 22.0518 45.5384 22.8609 46.8138C23.0666 46.5943 23.2723 46.3749 23.478 46.1555C23.2174 45.6892 23.2723 45.223 23.6288 44.7841C24.15 44.167 24.7122 44.167 25.1099 44.2904C25.919 44.5373 26.591 45.4561 26.6596 46.1006C26.7144 46.6629 26.3442 47.3075 25.8368 47.568C25.3842 47.8011 24.9042 47.7326 24.4654 47.3623L24.3968 47.3075L24.4654 47.2389C24.6985 46.9783 24.9454 46.7178 25.1922 46.4572L24.7534 46.0046C24.2871 46.4709 23.8346 46.9646 23.3957 47.4446ZM28.8264 45.6207L25.1922 41.9591L25.2608 41.8905C25.5351 41.6162 25.8093 41.3282 26.0973 41.054L26.1659 40.9854L29.8 44.647L29.7315 44.7155C29.4572 44.9898 29.1692 45.2778 28.8949 45.5521L28.8264 45.6207ZM25.4528 41.9591L28.8401 45.3601C29.0732 45.127 29.3063 44.8801 29.5395 44.647L26.1522 41.246C25.919 41.4928 25.6859 41.7259 25.4528 41.9591ZM29.9098 43.7007C29.8686 43.7007 29.8138 43.7007 29.7726 43.687C29.1692 43.6184 28.7441 43.1522 28.6207 42.8642C28.2915 42.1785 28.6481 41.5202 29.2789 40.5328C29.5121 40.1763 29.7863 39.7237 29.6903 39.5043C29.6492 39.422 29.5669 39.3672 29.4161 39.3535C29.2378 39.326 28.9909 39.4357 28.7715 39.6552C28.5247 39.8883 28.3738 40.1763 28.4012 40.382C28.415 40.5603 28.4835 40.6563 28.5795 40.7797L28.6207 40.8483L28.5658 40.9031C28.3052 41.1637 28.0447 41.4242 27.7841 41.6848L27.7155 41.7534L27.647 41.6848C26.7419 40.6288 27.3316 39.6415 27.9898 38.9969C29.0184 38.0507 29.8 38.1878 30.1703 38.3386C30.7189 38.5718 31.0206 39.1203 31.0206 39.518C31.0206 39.9706 30.76 40.4231 30.4446 40.9443C30.0332 41.6437 29.8275 41.9865 29.8275 42.1648C29.8275 42.3019 29.9372 42.4391 30.0743 42.4939C30.3212 42.5899 30.6503 42.4665 30.9657 42.1648C31.7063 41.438 31.336 40.9991 31.1577 40.7934L31.1029 40.7248L31.1577 40.67C31.432 40.4094 31.7063 40.1489 31.9805 39.8883L32.0491 39.8197L32.1177 39.8883C32.6799 40.5328 32.7759 41.3008 32.3919 42.0551C31.8571 43.015 30.6777 43.7007 29.9098 43.7007ZM29.3475 39.1615C29.3749 39.1615 29.4023 39.1615 29.4298 39.1752C29.6355 39.2163 29.7863 39.2986 29.8412 39.4357C29.9783 39.7374 29.6903 40.2037 29.4161 40.6426C28.8264 41.5888 28.4835 42.1922 28.7715 42.7956C28.8812 43.0425 29.2652 43.4539 29.7863 43.5087C30.4583 43.591 31.6925 42.919 32.2 41.9454C32.4468 41.4791 32.6114 40.7797 32.0217 40.0529C31.7885 40.2723 31.5554 40.4917 31.336 40.7111C31.5417 40.958 31.8708 41.4928 31.0754 42.2608C30.5543 42.7682 30.1429 42.6859 29.992 42.6311C29.7726 42.5488 29.6355 42.3568 29.6218 42.1374C29.6081 41.9179 29.8 41.5888 30.2663 40.8208C30.568 40.3271 30.8149 39.8883 30.8149 39.4906C30.8149 39.1478 30.5543 38.6815 30.0743 38.4758C29.4983 38.2289 28.7989 38.4484 28.0858 39.0929C27.4961 39.6689 26.9613 40.5328 27.6881 41.4517C27.9075 41.2323 28.127 41.0128 28.3464 40.7934C28.2641 40.6837 28.2092 40.5603 28.1818 40.3683C28.1407 40.0529 28.3738 39.71 28.6069 39.4906C28.8675 39.2849 29.1281 39.1615 29.3475 39.1615ZM33.5165 41.1774L32.7485 40.3957L32.8171 40.3271C33.0639 40.094 33.2971 39.8746 33.5302 39.6415C33.9279 39.2575 34.353 38.8598 34.7644 38.4758L34.0513 37.7489C33.4616 38.2838 32.8719 38.8323 32.2822 39.3946L32.2137 39.4495L31.4868 38.7089L31.5554 38.6403C32.1451 38.0918 32.7348 37.5295 33.3245 36.9947L32.6936 36.3501C32.0491 36.9398 31.4046 37.5432 30.76 38.1466L30.6914 38.2015L29.9372 37.4335L30.0058 37.365C30.952 36.4736 32.0354 35.4725 32.9816 34.6222L33.0502 34.5674L36.6295 38.1329L36.5609 38.2015C36.0124 38.6952 35.4364 39.2712 34.8604 39.8472C34.449 40.2586 34.0239 40.6837 33.6125 41.0677L33.5165 41.1774ZM33.0091 40.4094L33.5302 40.9305C33.9142 40.5603 34.3119 40.1626 34.7096 39.7786C35.2581 39.23 35.8204 38.6678 36.3415 38.2015L33.0228 34.8828C32.1177 35.6919 31.0891 36.6381 30.184 37.5021L30.6914 38.0095C31.336 37.4061 31.9805 36.8027 32.6251 36.213L32.6936 36.1581L33.585 37.0495L33.5165 37.1181C32.9268 37.653 32.3371 38.2015 31.7474 38.7638L32.2274 39.2438C32.8171 38.6815 33.4068 38.1329 33.9965 37.5981L34.065 37.5432L35.0387 38.5169L34.9701 38.5855C34.5313 38.9832 34.0925 39.4083 33.681 39.806C33.4342 39.998 33.2285 40.2037 33.0091 40.4094ZM36.7804 37.1181C36.3827 37.1181 35.985 37.0084 35.6147 36.8027C34.5587 36.1993 33.9416 34.9651 34.0513 34.2108C34.1473 33.4977 34.449 33.2371 34.641 33.0588L34.8056 32.908C35.025 32.7297 35.2581 32.5103 35.4913 32.3046C35.793 32.0303 36.1221 31.7423 36.3964 31.5092L36.4649 31.4543L40.0991 35.1159L40.0305 35.1845C39.5505 35.5959 39.0568 36.0073 38.5632 36.4324C37.9872 36.885 37.3838 37.1181 36.7804 37.1181ZM34.7919 33.1685L34.7644 33.196C34.5724 33.3605 34.3256 33.5937 34.2296 34.2382C34.1336 34.9239 34.7507 36.1033 35.7107 36.6381C36.3278 36.981 37.3015 37.2004 38.4397 36.2816C38.906 35.8839 39.3723 35.4862 39.8385 35.0885L36.4512 31.6875C36.1907 31.9069 35.9027 32.1674 35.6147 32.428C35.3816 32.6474 35.1484 32.8531 34.929 33.0314L34.7919 33.1685ZM41.2648 34.2108L40.4968 33.4291L40.5791 33.3605C41.1825 32.8668 41.7996 32.3869 42.3893 31.9206L41.6488 31.18C41.1139 31.6052 40.5654 32.0303 40.0168 32.4829L39.9482 32.5377L39.2077 31.7972L39.29 31.7286C39.8385 31.2898 40.3871 30.8509 40.9082 30.4395L40.2774 29.795C39.6877 30.2475 39.0843 30.7275 38.4809 31.2212L38.4123 31.276L37.658 30.5081L37.7403 30.4395C38.618 29.7264 39.4957 29.0407 40.3322 28.3962L40.4419 28.3139C40.7025 28.1219 40.9493 27.9299 41.2099 27.7379L41.2648 27.6967L41.3196 27.7242C42.1424 28.2042 43.0476 28.7527 44.2407 29.4658C43.9252 28.9036 43.3493 27.9162 42.6773 26.7642L42.6361 26.6956L42.7047 26.6545C42.9516 26.4762 43.1984 26.3117 43.4315 26.1334L43.5138 26.0785L43.5275 26.0648C43.7607 25.9002 43.9938 25.7494 44.2132 25.5848L44.3504 25.4888C45.2006 24.9129 46.0234 24.3917 46.7914 23.9255L46.8463 23.8843L47.628 24.6797L47.532 24.7346C47.2851 24.8854 47.0246 25.05 46.764 25.2146L49.6165 28.1082L49.5205 28.163C49.301 28.3002 49.0816 28.4373 48.8622 28.5881L48.8073 28.6293L45.9549 25.7631C45.6806 25.9414 45.3926 26.1334 45.1046 26.3254L45.0498 26.3528L47.9022 29.219L47.8062 29.2738C47.5731 29.4247 47.3537 29.5892 47.1205 29.7538L47.052 29.795L43.6647 26.3802C44.3778 27.6145 45.0635 28.7939 45.996 30.4395L46.0372 30.5081L45.9686 30.5492C45.6943 30.7412 45.4338 30.9469 45.1595 31.1389L45.1183 31.18L45.0635 31.1526C43.6235 30.3024 42.4167 29.603 40.5928 28.547L44.0212 32.0029L43.9389 32.0714C43.075 32.7297 42.1973 33.4291 41.3059 34.1422L41.2648 34.2108ZM40.7574 33.4428L41.2785 33.9639C42.115 33.2783 42.9516 32.62 43.7607 32.0029L40.3734 28.6019C39.578 29.219 38.7414 29.8635 37.9186 30.5355L38.426 31.0429C39.0294 30.5492 39.6328 30.0692 40.2225 29.6167L40.2911 29.5618L41.1825 30.4532L41.1002 30.5218C40.5654 30.9332 40.0305 31.372 39.482 31.8109L39.962 32.2909C40.5105 31.852 41.0591 31.4132 41.6076 30.9881L41.6762 30.9332L42.6636 31.9343L42.5813 32.0029C41.9779 32.4691 41.3608 32.9491 40.7574 33.4428ZM40.6614 28.3962C42.4716 29.4384 43.6784 30.1515 45.1183 30.9881C45.3515 30.8098 45.5846 30.6452 45.8177 30.4806C44.8715 28.8213 44.1858 27.6282 43.4453 26.3665C43.2533 26.5036 43.0613 26.6408 42.8556 26.7779C43.6372 28.1219 44.2681 29.2327 44.5286 29.6852L44.7206 30.0281L44.4189 29.8498C43.1161 29.0681 42.1287 28.4784 41.251 27.9573C41.0591 28.0807 40.8534 28.2316 40.6614 28.3962ZM43.7058 26.1745L47.0794 29.5755C47.2577 29.4521 47.436 29.3287 47.6142 29.2053L44.2407 25.8042C44.0624 25.914 43.8841 26.0374 43.7058 26.1745ZM45.9823 25.53L48.8348 28.3962C48.9993 28.2864 49.1639 28.1767 49.3285 28.0807L46.476 25.2146L46.572 25.1597C46.8326 24.9951 47.0931 24.8306 47.34 24.6797L46.8188 24.1586C46.092 24.5974 45.324 25.0911 44.5286 25.626L45.0498 26.1608C45.3378 25.9688 45.6257 25.7768 45.9 25.5985L45.9823 25.53ZM49.7125 28.067L49.6713 27.9847C48.9171 26.6819 48.2177 25.4614 47.2303 23.802L47.1891 23.7198L47.2714 23.6786C47.4771 23.5552 47.6828 23.4318 47.8885 23.3221L47.9297 23.2946L47.9708 23.3221C49.4107 24.2683 50.6724 25.0911 52.4826 26.3254L52.5375 26.3665L51.7832 25.6123L51.8929 25.5574C52.3181 25.338 52.7158 25.146 53.1135 24.9677L52.3866 24.2409C52.0301 24.4054 51.6461 24.5837 51.2484 24.7894L51.1935 24.8169L50.453 24.0763L50.5627 24.0215C50.933 23.8295 51.2895 23.6512 51.6461 23.5003L51.0153 22.8695C50.6176 23.0478 50.2061 23.2535 49.7673 23.4729L49.7125 23.5003L48.9445 22.7324L49.0542 22.6775C49.6987 22.3484 50.3021 22.0604 50.8644 21.8273L50.9193 21.7998L54.5671 25.4751L54.4437 25.53C53.8814 25.7631 53.2643 26.0511 52.6198 26.3802L52.5649 26.4077L52.5923 26.4214L52.4552 26.4899C52.2632 26.5859 52.0712 26.6956 51.8655 26.8054L51.8244 26.8328L51.7832 26.8054C51.4678 26.5859 51.1524 26.3802 50.8233 26.1608C50.5353 26.3254 50.2336 26.4899 49.9319 26.6682C50.1102 26.9425 50.2747 27.2305 50.4393 27.5048L50.4804 27.587L50.3981 27.6282C50.1787 27.7516 49.9593 27.8887 49.7399 28.0259L49.7125 28.067ZM47.436 23.7883C48.3822 25.3791 49.0542 26.5585 49.781 27.8202C49.9456 27.7105 50.1239 27.6145 50.2884 27.5185C50.1239 27.2442 49.9456 26.9562 49.7673 26.6819L49.7262 26.5996L49.8085 26.5585C50.1513 26.3528 50.4941 26.1608 50.8233 25.9825L50.8781 25.9551L50.9193 25.9825C51.2347 26.2019 51.5501 26.4077 51.8792 26.6271C52.0164 26.5585 52.1535 26.4762 52.2769 26.4077C50.549 25.242 49.3285 24.4329 47.9297 23.5278C47.7651 23.5963 47.6005 23.6923 47.436 23.7883ZM52.0986 25.6671L52.6061 26.1882C53.182 25.8865 53.7443 25.626 54.2654 25.4065L50.8918 22.0192C50.3844 22.2387 49.8359 22.4855 49.2599 22.7872L49.7536 23.2946C50.1924 23.0752 50.6038 22.8695 51.0015 22.6912L51.0564 22.6638L51.9615 23.5689L51.8381 23.6238C51.4952 23.7746 51.125 23.9529 50.7547 24.1312L51.221 24.6111C51.6187 24.4054 52.0027 24.2272 52.3592 24.0626L52.4141 24.0352L53.4152 25.0363L53.2918 25.0911C52.9352 25.2557 52.5238 25.4477 52.0986 25.6671Z" fill="#F5F5F5"/>
<path d="M19.0892 30.124L16.799 42.4527L12.2186 37.8723L13.9465 30.3023L11.7523 30.3571L8.21415 33.8679L4.60742 30.2611L16.5658 18.3027L20.1863 21.9369L17.7452 24.3368C16.607 25.475 16.9361 25.1048 15.8664 26.1196L23.5324 25.283L28.0717 29.8223L19.0892 30.124Z" fill="#F5F5F5"/>
<path d="M26.714 52.3677L17.7314 43.3852L29.6899 31.4268L33.3652 35.1021L24.5335 43.9337L29.8407 49.241L26.714 52.3677Z" fill="#F5F5F5"/>
<path d="M58.1876 59.9241C61.8492 63.5856 62.0001 68.166 58.2699 71.8962C54.2929 75.8732 50.0691 75.7223 46.1607 71.8139L40.8809 66.5341L52.8393 54.5757L58.1876 59.9241ZM47.5046 67.1101L48.9446 68.55C50.7411 70.3465 52.757 70.1134 54.5535 68.3169C56.5831 66.2872 56.4048 64.1479 54.5261 62.2691L53.429 61.172L47.5046 67.1101Z" fill="#F5F5F5"/>
<path d="M10.2856 71.1001C10.1347 71.1001 9.76443 71.1001 11.9175 73.212C14.0843 75.3239 14.1117 74.7891 14.098 74.6657C14.0706 74.4325 13.7551 74.0074 13.1655 73.3629C13.0557 73.3766 12.9323 73.3766 12.8363 73.3766C13.3849 73.9663 13.3849 74.076 13.3437 74.1446C13.2614 74.1583 13.0969 74.172 12.1506 73.2806C12.1369 73.2669 10.7381 71.9366 10.8478 71.7721C10.8478 71.7721 10.9987 71.6212 11.8352 72.3892C11.9449 72.3892 12.0546 72.3892 12.1643 72.3755C11.1221 71.3744 10.4501 71.1138 10.2856 71.1001Z" fill="#F5F5F5"/>
<path d="M13.0967 72.7183L12.1231 71.7447C12.2465 71.7172 12.3836 71.7035 12.507 71.6624C12.7265 71.6212 12.9185 71.6898 13.179 71.9229C13.179 71.9229 13.7413 72.4029 13.5904 72.5812C13.5493 72.6223 13.4944 72.636 13.4533 72.6498C13.3436 72.6772 13.2202 72.6909 13.0967 72.7183ZM12.0271 71.0315C11.7116 71.1001 11.4236 71.155 11.1631 71.1824L14.6738 74.7068C14.7972 74.6931 14.9207 74.6794 15.0441 74.652L13.6727 73.2669C13.7824 73.2532 13.9058 73.2257 14.0156 73.1983C14.1115 73.1846 14.2761 73.1572 14.5641 73.3629C15.0304 73.692 15.3732 74.1446 15.8258 74.4737C15.9766 74.4326 16.1275 74.3914 16.2783 74.3366C16.1275 74.2543 15.9355 74.0897 15.5104 73.6783C14.9481 73.1435 14.5778 72.8418 14.2487 72.8006C14.3447 72.3206 12.8636 70.8533 12.0271 71.0315Z" fill="#F5F5F5"/>
<path d="M14.592 70.0991C14.0023 70.3734 13.4401 70.5928 12.9189 70.7711L16.4297 74.2955C16.9508 74.1172 17.5131 73.8978 18.1165 73.6236L17.4719 72.979C17.0468 73.171 16.6354 73.3493 16.2377 73.5001L15.3737 72.6362C15.7303 72.499 16.1005 72.3482 16.4845 72.1836L15.8811 71.5802C15.4971 71.7585 15.1269 71.9093 14.7703 72.0328L14.0023 71.2648C14.3863 71.1277 14.784 70.9494 15.2091 70.7574L14.592 70.0991Z" fill="#F5F5F5"/>
<path d="M17.7867 71.7723C17.3341 71.0866 17.2793 70.9906 16.8267 70.2775C17.3753 70.6615 17.9238 71.0318 18.4724 71.4158C18.2392 71.5392 18.0198 71.6626 17.7867 71.7723ZM16.2645 69.2627C16.0725 69.3724 15.8668 69.4684 15.6885 69.5644C16.4839 70.8124 17.2244 71.9643 18.2667 73.5551C18.4449 73.4728 18.6232 73.3905 18.8152 73.2945C18.6232 72.9928 18.4312 72.7049 18.2392 72.4032C18.5546 72.2523 18.8701 72.0877 19.1992 71.9095C19.5283 72.1289 19.8575 72.362 20.1866 72.5814C20.3923 72.4717 20.598 72.3483 20.8037 72.2249C19.5695 71.4432 18.1707 70.5381 16.2645 69.2627Z" fill="#F5F5F5"/>
<path d="M19.0491 67.6172C18.24 68.1383 17.4583 68.6046 16.7314 69.0023L17.3897 69.6605C17.664 69.5097 17.9383 69.3588 18.2125 69.1943L21.065 72.0605C21.2707 71.937 21.4764 71.8136 21.6821 71.6902L18.8297 68.824C19.1177 68.6457 19.4056 68.4674 19.7073 68.2754L19.0491 67.6172Z" fill="#F5F5F5"/>
<path d="M19.8438 67.0962C19.6244 67.247 19.405 67.3842 19.1855 67.5213L22.6963 71.0458C22.9157 70.9086 23.1351 70.7578 23.3545 70.6206L19.8438 67.0962Z" fill="#F5F5F5"/>
<path d="M22.8203 65.0391C22.5734 65.2173 22.3266 65.3956 22.0797 65.5739C22.5734 66.4379 23.0534 67.2607 23.8214 68.5635C23.2317 68.1932 22.1483 67.5213 20.6535 66.575C20.4204 66.7396 20.1872 66.8904 19.9541 67.0413C21.4489 67.9875 22.6146 68.7281 24.4796 69.8937C24.7402 69.7155 25.0008 69.5372 25.2613 69.3452C24.4522 67.9601 23.8077 66.8081 22.8203 65.0391Z" fill="#F5F5F5"/>
<path d="M25.4394 63.0366C24.5754 63.7086 23.7388 64.3531 22.916 64.9566L26.4267 68.481C27.2633 67.8776 28.1135 67.2193 28.9912 66.5336L28.3467 65.8891C27.7296 66.3828 27.1124 66.8491 26.509 67.3016L25.6451 66.4376C26.1936 66.0262 26.7422 65.6148 27.3044 65.176L26.701 64.5726C26.1388 65.0114 25.5902 65.4365 25.0417 65.8342L24.2737 65.0663C24.8634 64.6274 25.4668 64.1611 26.0839 63.6812L25.4394 63.0366Z" fill="#F5F5F5"/>
<path d="M30.6371 64.0515L28.4154 61.8162C28.6074 61.6653 28.7994 61.5007 28.9914 61.3362C30.5137 60.1705 31.7753 62.0904 31.7205 62.735C31.693 63.1464 31.3776 63.4207 31.2131 63.5715C31.0211 63.7361 30.8291 63.9007 30.6371 64.0515ZM28.4429 60.6094C27.9629 61.0208 27.4829 61.4048 27.0029 61.8025L30.5137 65.3269C30.9936 64.9429 31.4736 64.5452 31.9536 64.1338C34.093 62.1864 31.5148 60.0471 30.1982 59.9511C29.3206 59.91 28.676 60.4174 28.4429 60.6094Z" fill="#F5F5F5"/>
<path d="M33.3112 56.3306C32.3787 57.1945 31.4462 58.0174 30.5273 58.8265L34.0381 62.3509C34.9706 61.5418 35.9031 60.6915 36.8631 59.8276L36.2186 59.183C35.5466 59.8001 34.8746 60.4173 34.2026 61.007L33.3387 60.143C33.9421 59.6082 34.5455 59.0596 35.1626 58.5111L34.5592 57.9076C33.9558 58.4699 33.3387 59.0047 32.7353 59.5396L31.9673 58.7716C32.6256 58.1956 33.2838 57.5922 33.9421 56.9888L33.3112 56.3306Z" fill="#F5F5F5"/>
<path d="M47.3949 41.4924C46.0646 43.2066 47.3949 44.386 48.1765 44.3174C48.5331 44.29 48.8485 44.0843 49.4245 43.714C49.8771 43.426 50.1788 43.234 50.3433 43.2477C50.6862 43.2752 51.0976 43.8237 50.5353 44.4957C49.9045 45.2637 49.3971 44.8111 49.1914 44.6328C48.9719 44.8934 48.7525 45.154 48.5194 45.4145C50.165 46.8956 51.6736 44.7288 51.6599 43.6866C51.6461 42.8226 50.933 42.3426 50.9193 42.3289C50.261 41.9038 49.7536 42.2192 48.9034 42.7952C48.4508 43.1106 47.8748 43.4946 47.7103 42.8226C47.6143 42.4112 48.1354 41.6707 48.684 41.7804C48.8211 41.8078 48.9719 41.9312 49.0268 41.9724C49.2325 41.7255 49.4245 41.4787 49.6165 41.2455C48.8485 40.5736 48.0943 40.6421 47.3949 41.4924Z" fill="#F5F5F5"/>
<path d="M50.9335 37.145C50.7415 37.4056 50.5358 37.6799 50.3301 37.9541C50.5907 38.6673 50.7964 39.2432 51.1255 40.1621C50.3164 39.9152 50.0147 39.8192 49.0959 39.5449C48.8628 39.8329 48.6296 40.1209 48.3965 40.4089C49.2879 40.642 50.2067 40.8889 51.5781 41.2729L52.9495 42.6442C53.1415 42.3974 53.3335 42.1505 53.5254 41.9037L52.1815 40.546C51.8112 39.5724 51.4821 38.6398 50.9335 37.145Z" fill="#F5F5F5"/>
<path d="M53.0039 34.2788C52.8531 34.4982 52.7022 34.7176 52.5514 34.9371L54.8964 37.2958C54.293 37.0901 53.1685 36.7199 51.6188 36.2399C51.4405 36.4867 51.2623 36.7199 51.084 36.9667L54.5947 40.4911C54.773 40.258 54.9376 40.0249 55.1021 39.8055L52.7571 37.433C53.429 37.6387 54.5536 37.9952 56.0484 38.4889C56.2129 38.2558 56.3638 38.0364 56.5146 37.817L53.0039 34.2788Z" fill="#F5F5F5"/>
<path d="M56.5834 36.1029L54.3617 33.8676C54.4577 33.703 54.5674 33.5521 54.6634 33.4013C55.4588 32.2905 56.9673 34.2515 57.0496 34.9509C57.0908 35.2801 56.981 35.4858 56.8851 35.6366C56.7891 35.7875 56.6793 35.9383 56.5834 36.1029ZM54.06 32.6745C53.8132 33.0722 53.5526 33.4699 53.2783 33.8676L56.7891 37.392C57.0633 36.9806 57.3239 36.5829 57.5707 36.1989C58.6404 34.279 55.692 31.8105 54.6908 32.1396C54.348 32.2356 54.1286 32.5648 54.06 32.6745Z" fill="#F5F5F5"/>
<path d="M55.376 30.4526C55.2663 30.6446 55.1566 30.8366 55.0469 31.0423L58.5576 34.5668C58.6673 34.3611 58.777 34.1691 58.8867 33.9771L55.376 30.4526Z" fill="#F5F5F5"/>
<path d="M56.0617 28.903C55.376 30.6447 58.3107 33.3737 59.353 32.976C59.3667 32.976 60.7518 32.3726 58.7633 30.1236C58.6947 30.2881 58.6262 30.4527 58.5439 30.6173C59.5861 31.8378 58.9553 32.1669 58.7084 32.1532C57.817 32.0709 56.1302 29.9727 56.8022 29.4379C57.0491 29.2459 57.433 29.5476 57.5702 29.6573C57.6525 29.4927 57.721 29.3282 57.7896 29.1636C56.5828 28.0939 56.1577 28.6836 56.0617 28.903Z" fill="#F5F5F5"/>
<path d="M59.0378 29.4516C58.6401 28.9167 58.2287 28.3956 57.831 27.8608C58.2973 28.2173 58.5716 28.423 59.2298 28.903C59.175 29.0813 59.1064 29.2733 59.0378 29.4516ZM57.0493 26.7637C56.9945 26.9145 56.9533 27.0654 56.8848 27.2299C57.735 28.3819 58.7087 29.7121 60.0664 31.6046C60.1349 31.4401 60.2035 31.2618 60.2721 31.1109C60.0389 30.7955 59.7921 30.4664 59.559 30.151C59.655 29.8904 59.751 29.6299 59.8195 29.383C60.0938 29.5887 60.3681 29.8081 60.6424 30.0138C60.6835 29.863 60.7246 29.7121 60.7521 29.575C59.6412 28.6973 58.5716 27.8882 57.0493 26.7637Z" fill="#F5F5F5"/>
<path d="M57.4197 24.9673C57.406 25.3924 57.31 25.8587 57.1729 26.3798L57.8311 27.0381C57.886 26.8461 57.9271 26.6678 57.9683 26.4895L60.8207 29.3557C60.8482 29.2186 60.8756 29.0951 60.8893 28.9717L58.0368 26.1055C58.0643 25.941 58.078 25.7764 58.078 25.6255L57.4197 24.9673Z" fill="#F5F5F5"/>
<path d="M57.3105 23.8701C57.4065 24.1581 57.4477 24.4872 57.434 24.8575L60.9447 28.3819C60.9584 27.998 60.9173 27.6688 60.8076 27.3808L60.163 26.7363C60.2316 26.942 60.2727 27.1614 60.2864 27.422L59.4225 26.558C59.4088 26.3249 59.3676 26.1192 59.3128 25.9409L58.7094 25.3375C58.7642 25.5295 58.8053 25.7352 58.8191 25.9546L58.0511 25.1866C58.0374 24.9398 57.9962 24.7204 57.9277 24.5147L57.3105 23.8701Z" fill="#F5F5F5"/>
<path d="M54.2921 22.3211C54.4155 22.2937 54.5526 22.2663 54.6623 22.2526C54.5526 22.1154 54.2098 21.7177 54.3606 21.608C54.7172 21.3474 56.8565 23.5005 56.884 23.8982C56.884 23.8982 56.8017 24.3233 55.636 23.2399C55.5126 23.2537 55.3892 23.2811 55.252 23.3085C57.0485 24.9816 57.5834 24.6113 57.5834 24.5976C57.8851 24.337 56.5274 22.9931 55.9377 22.4171C54.9229 21.4572 54.1961 20.9497 53.7572 20.936C53.4967 20.9772 53.4144 21.3612 54.2921 22.3211Z" fill="#F5F5F5"/>
<path d="M53.0439 21.9505L53.5376 22.4442L54.0039 22.9105C54.0313 22.8968 54.0587 22.8968 54.0725 22.8831L54.0039 22.9105L54.5524 23.4591L55.2518 24.1585L55.9375 24.8442C56.0747 24.803 56.2804 24.7482 56.4175 24.7207L52.9068 21.1963C52.7422 21.2374 52.5777 21.2786 52.4131 21.3197L53.0439 21.9505Z" fill="#F5F5F5"/>
<path d="M46.4202 50.2011C46.1734 50.4617 45.9265 50.7359 45.6797 50.9965L42.1689 47.472C42.4295 47.1978 42.6901 46.9098 42.9506 46.6355C43.9517 46.8549 44.7746 47.0332 45.4328 47.1841L43.842 45.5933L27.4678 53.1358L31.1842 56.8523L33.0493 55.9472L33.4744 55.7415L35.1612 57.4283L36.0663 58.3334L36.8069 59.0739L37.0263 59.2933L37.328 59.595L37.136 59.979L36.2172 61.8715L39.9336 65.588L47.4899 49.2274L47.0648 48.8023L46.6671 48.4046C45.9814 48.2537 45.1037 48.0617 44.0752 47.8423L46.4202 50.2011ZM38.8776 57.922C38.3839 58.4019 37.7257 58.7311 37.0537 58.6214C36.7246 58.5665 36.3817 58.4156 36.0526 58.1139C36.1349 58.0317 36.2309 57.9494 36.3132 57.8671C36.4914 57.7025 36.6834 57.5243 36.8754 57.346C37.0811 57.5243 37.5474 57.9219 38.2879 57.2911C38.3017 57.2774 38.3154 57.2637 38.3291 57.25C39.1519 56.5231 38.6582 55.9746 38.3839 55.9472C38.1782 55.9197 37.9725 56.0157 37.4925 56.2763C37.4103 56.3174 37.3143 56.3723 37.2183 56.4271C36.5326 56.7974 36.0937 57.0306 35.6275 57.0031C35.5589 57.0031 35.4766 56.9894 35.3943 56.962C35.0378 56.8523 34.6127 56.5231 34.4755 56.0432C34.3384 55.5769 34.4755 54.9461 35.2161 54.2055C35.2983 54.1232 35.3943 54.041 35.504 53.9587C35.9566 53.6021 36.5326 53.3553 37.136 53.5473C37.3554 53.6158 37.5748 53.7392 37.7943 53.9312C37.7531 53.9724 37.6983 54.0272 37.6571 54.0684C37.4377 54.2741 37.232 54.4798 37.0126 54.6855C36.8891 54.5895 36.7794 54.5209 36.5737 54.4935C36.4229 54.4798 36.2446 54.5209 36.08 54.6169C35.7098 54.8226 35.3806 55.2478 35.4218 55.5495C35.5315 56.2352 36.2172 55.8375 36.7657 55.522C36.7931 55.5083 36.8069 55.4946 36.8343 55.4809C37.4377 55.1381 37.9588 54.8501 38.4388 54.8226C38.6445 54.8089 38.8365 54.8364 39.0285 54.9323C39.1656 55.0009 39.3713 55.1655 39.5222 55.3712C39.6456 55.5495 39.7553 55.7689 39.7827 56.0157C39.8376 56.578 39.4673 57.346 38.8776 57.922ZM40.8524 55.8375C40.8113 55.8786 40.7564 55.9335 40.7016 55.9746L39.7142 54.9872L37.8491 53.1084L37.1908 52.4502C37.4651 52.1759 37.7531 51.9016 38.0274 51.6273L38.9462 52.5462L40.2902 53.9038L41.209 54.8363L41.5244 55.1655C41.3187 55.3849 41.0856 55.618 40.8524 55.8375ZM44.8568 51.7782C44.7197 51.6822 44.5277 51.5588 44.3769 51.4628C44.4729 52.9987 43.0192 53.7941 42.2238 53.8627C42.0181 53.8764 41.8124 53.8627 41.593 53.8215C41.2364 53.753 40.8798 53.6021 40.5644 53.3827C40.1393 53.0947 39.7965 52.697 39.577 52.217C39.3988 51.8193 39.3165 51.3668 39.385 50.8868C39.4536 50.3794 39.7005 49.8445 40.1667 49.3234C40.4821 48.9943 41.6067 48.0069 42.9506 48.9394C42.7038 49.2 42.4432 49.4743 42.1827 49.7485C41.7301 49.4743 41.2913 49.5291 40.8799 49.9131C40.6604 50.1188 40.5233 50.3382 40.441 50.5577C40.3176 50.9416 40.3999 51.3393 40.5919 51.6959C40.729 51.9427 40.9073 52.1622 41.1267 52.3542C41.3873 52.5873 41.689 52.7519 41.9632 52.8204C42.0318 52.8341 42.0867 52.8479 42.1552 52.8479C43.0466 52.9164 44.2123 51.7782 43.3072 50.6948C43.0329 50.9828 42.8683 51.1611 42.5804 51.449L42.4981 51.3668L42.0181 50.8731C42.4158 50.4617 42.7586 50.1051 43.1289 49.7074C43.2249 49.5977 43.3346 49.488 43.4443 49.3783L45.3368 51.2845C45.1997 51.4353 45.0351 51.5999 44.8568 51.7782Z" fill="#F5F5F5"/>
<path d="M45.0353 44.3179C44.8022 44.5784 44.5691 44.839 44.3359 45.0996L46.681 47.4583C46.489 47.4172 46.2559 47.3623 45.9953 47.3075C45.817 47.2663 45.625 47.2252 45.433 47.184L45.8307 47.5817L46.6536 48.4046C46.8593 48.4457 47.0376 48.4869 47.2158 48.528C47.4627 48.5829 47.6684 48.624 47.8192 48.6651C48.0661 48.3909 48.2992 48.1303 48.5461 47.856L45.0353 44.3179Z" fill="#F5F5F5"/>
<path d="M8.82422 7.99985V2.39985H10.9362C11.3202 2.39985 11.6696 2.46918 11.9842 2.60785C12.3042 2.74118 12.5816 2.93318 12.8162 3.18385C13.0509 3.43452 13.2322 3.73052 13.3602 4.07185C13.4882 4.41318 13.5522 4.78918 13.5522 5.19985C13.5522 5.61052 13.4882 5.98919 13.3602 6.33585C13.2322 6.67718 13.0509 6.97318 12.8162 7.22385C12.5869 7.46919 12.3122 7.66119 11.9922 7.79985C11.6722 7.93319 11.3202 7.99985 10.9362 7.99985H8.82422ZM9.44822 7.50385L9.37622 7.39185H10.8962C11.1896 7.39185 11.4589 7.34118 11.7042 7.23985C11.9549 7.13318 12.1682 6.98385 12.3442 6.79185C12.5256 6.59452 12.6642 6.36252 12.7602 6.09585C12.8616 5.82918 12.9122 5.53052 12.9122 5.19985C12.9122 4.86918 12.8616 4.57052 12.7602 4.30385C12.6642 4.03718 12.5256 3.80785 12.3442 3.61585C12.1629 3.41852 11.9496 3.26918 11.7042 3.16785C11.4589 3.06118 11.1896 3.00785 10.8962 3.00785H9.35222L9.44822 2.91185V7.50385Z" fill="#F5F5F5"/>
<path d="M16.3695 8.07985C15.9535 8.07985 15.5829 7.98919 15.2575 7.80785C14.9375 7.62652 14.6869 7.37318 14.5055 7.04785C14.3242 6.72252 14.2335 6.34918 14.2335 5.92785C14.2335 5.60252 14.2842 5.30918 14.3855 5.04785C14.4869 4.78118 14.6282 4.54918 14.8095 4.35185C14.9962 4.15452 15.2175 4.00252 15.4735 3.89585C15.7295 3.78385 16.0069 3.72785 16.3055 3.72785C16.5882 3.72785 16.8442 3.77852 17.0735 3.87985C17.3082 3.98118 17.5082 4.12252 17.6735 4.30385C17.8442 4.47985 17.9722 4.69052 18.0575 4.93585C18.1429 5.18118 18.1802 5.45052 18.1695 5.74385L18.1615 6.02385H14.6815L14.5935 5.51985H17.7055L17.5615 5.65585V5.46385C17.5509 5.27185 17.4949 5.08785 17.3935 4.91185C17.2922 4.73052 17.1482 4.58385 16.9615 4.47185C16.7802 4.35985 16.5615 4.30385 16.3055 4.30385C16.0069 4.30385 15.7482 4.36518 15.5295 4.48785C15.3109 4.60518 15.1429 4.78118 15.0255 5.01585C14.9082 5.25052 14.8495 5.54118 14.8495 5.88785C14.8495 6.21852 14.9135 6.50652 15.0415 6.75185C15.1695 6.99185 15.3509 7.17852 15.5855 7.31185C15.8255 7.44518 16.1135 7.51185 16.4495 7.51185C16.6469 7.51185 16.8415 7.47985 17.0335 7.41585C17.2309 7.34652 17.4469 7.21318 17.6815 7.01585L17.9935 7.44785C17.8709 7.57052 17.7242 7.67985 17.5535 7.77585C17.3829 7.86652 17.1962 7.94119 16.9935 7.99985C16.7909 8.05319 16.5829 8.07985 16.3695 8.07985Z" fill="#F5F5F5"/>
<path d="M20.3897 8.07985C20.0324 8.07985 19.7124 8.01319 19.4297 7.87985C19.1471 7.74652 18.9231 7.57052 18.7577 7.35185L19.1817 6.98385C19.3364 7.17052 19.5177 7.31185 19.7257 7.40785C19.9391 7.50385 20.1764 7.55185 20.4377 7.55185C20.5711 7.55185 20.6911 7.53852 20.7977 7.51185C20.9044 7.47985 20.9977 7.43452 21.0777 7.37585C21.1577 7.31718 21.2191 7.24785 21.2617 7.16785C21.3044 7.08785 21.3257 6.99985 21.3257 6.90385C21.3257 6.72785 21.2484 6.58118 21.0937 6.46385C21.0244 6.41585 20.9257 6.36785 20.7977 6.31985C20.6697 6.26652 20.5151 6.21585 20.3337 6.16785C20.0351 6.08252 19.7871 5.99718 19.5897 5.91185C19.3924 5.82118 19.2377 5.71718 19.1257 5.59985C19.0457 5.50385 18.9844 5.39985 18.9417 5.28785C18.9044 5.17585 18.8857 5.05319 18.8857 4.91985C18.8857 4.74919 18.9204 4.59185 18.9897 4.44785C19.0644 4.30385 19.1657 4.17852 19.2937 4.07185C19.4271 3.95985 19.5817 3.87718 19.7577 3.82385C19.9391 3.76518 20.1337 3.73585 20.3417 3.73585C20.5391 3.73585 20.7337 3.76252 20.9257 3.81585C21.1177 3.86918 21.2964 3.94652 21.4617 4.04785C21.6271 4.14918 21.7684 4.26919 21.8857 4.40785L21.5177 4.80785C21.4164 4.70118 21.3044 4.60518 21.1817 4.51985C21.0591 4.43452 20.9284 4.36785 20.7897 4.31985C20.6564 4.27185 20.5177 4.24785 20.3737 4.24785C20.2457 4.24785 20.1257 4.26385 20.0137 4.29585C19.9071 4.32785 19.8137 4.37319 19.7337 4.43185C19.6591 4.48519 19.6004 4.55185 19.5577 4.63185C19.5204 4.71185 19.5017 4.79985 19.5017 4.89585C19.5017 4.97585 19.5177 5.04785 19.5497 5.11185C19.5817 5.17585 19.6271 5.23185 19.6857 5.27985C19.7604 5.33852 19.8644 5.39452 19.9977 5.44785C20.1364 5.49585 20.3071 5.54652 20.5097 5.59985C20.7444 5.66385 20.9417 5.73052 21.1017 5.79985C21.2671 5.86385 21.4031 5.94119 21.5097 6.03185C21.6537 6.13852 21.7551 6.26119 21.8137 6.39985C21.8777 6.53852 21.9097 6.69585 21.9097 6.87185C21.9097 7.10652 21.8431 7.31452 21.7097 7.49585C21.5817 7.67718 21.4031 7.82119 21.1737 7.92785C20.9444 8.02919 20.6831 8.07985 20.3897 8.07985Z" fill="#F5F5F5"/>
<path d="M23.0098 7.99985V3.82385H23.6098V7.99985H23.0098ZM23.3058 2.91985C23.1565 2.91985 23.0418 2.88252 22.9618 2.80785C22.8872 2.72785 22.8498 2.62118 22.8498 2.48785C22.8498 2.35452 22.8898 2.24785 22.9698 2.16785C23.0498 2.08785 23.1618 2.04785 23.3058 2.04785C23.4498 2.04785 23.5618 2.08785 23.6418 2.16785C23.7218 2.24252 23.7618 2.34918 23.7618 2.48785C23.7618 2.61585 23.7218 2.71985 23.6418 2.79985C23.5618 2.87985 23.4498 2.91985 23.3058 2.91985Z" fill="#F5F5F5"/>
<path d="M26.7202 9.83985C26.4108 9.83985 26.1175 9.79185 25.8402 9.69585C25.5628 9.59985 25.3335 9.47985 25.1522 9.33585L25.3922 8.83185C25.4988 8.91718 25.6215 8.99185 25.7602 9.05585C25.9042 9.12518 26.0588 9.17852 26.2242 9.21585C26.3895 9.25852 26.5575 9.27985 26.7282 9.27985C27.0375 9.27985 27.2988 9.22119 27.5122 9.10385C27.7308 8.99185 27.8962 8.82385 28.0082 8.59985C28.1255 8.37585 28.1842 8.09852 28.1842 7.76785V6.96785L28.2802 6.94385C28.2322 7.14652 28.1282 7.33585 27.9682 7.51185C27.8082 7.68252 27.6135 7.82119 27.3842 7.92785C27.1548 8.02919 26.9122 8.07985 26.6562 8.07985C26.2668 8.07985 25.9175 7.98652 25.6082 7.79985C25.3042 7.61319 25.0642 7.35719 24.8882 7.03185C24.7122 6.70119 24.6242 6.32785 24.6242 5.91185C24.6242 5.49052 24.7122 5.11718 24.8882 4.79185C25.0695 4.46118 25.3122 4.20252 25.6162 4.01585C25.9202 3.82918 26.2615 3.73585 26.6402 3.73585C26.8055 3.73585 26.9655 3.75718 27.1202 3.79985C27.2748 3.83718 27.4162 3.89318 27.5442 3.96785C27.6775 4.04252 27.7975 4.12785 27.9042 4.22385C28.0108 4.31985 28.0988 4.42385 28.1682 4.53585C28.2428 4.64785 28.2962 4.76252 28.3282 4.87985L28.1602 4.85585L28.1842 3.82385H28.7842V7.74385C28.7842 8.07985 28.7362 8.37585 28.6402 8.63185C28.5442 8.89319 28.4028 9.11185 28.2162 9.28785C28.0348 9.46919 27.8162 9.60519 27.5602 9.69585C27.3095 9.79185 27.0295 9.83985 26.7202 9.83985ZM26.7282 7.50385C27.0108 7.50385 27.2615 7.43718 27.4802 7.30385C27.7042 7.16518 27.8802 6.97585 28.0082 6.73585C28.1362 6.49585 28.2002 6.21852 28.2002 5.90385C28.2002 5.59452 28.1362 5.31985 28.0082 5.07985C27.8855 4.83985 27.7122 4.65052 27.4882 4.51185C27.2642 4.37319 27.0108 4.30385 26.7282 4.30385C26.4402 4.30385 26.1842 4.37319 25.9602 4.51185C25.7415 4.65052 25.5682 4.83985 25.4402 5.07985C25.3122 5.31985 25.2482 5.59452 25.2482 5.90385C25.2482 6.20785 25.3095 6.48252 25.4322 6.72785C25.5602 6.96785 25.7335 7.15719 25.9522 7.29585C26.1762 7.43452 26.4348 7.50385 26.7282 7.50385Z" fill="#F5F5F5"/>
<path d="M29.9514 7.99985V3.82385H30.5434L30.5674 4.69585L30.4714 4.73585C30.5247 4.55452 30.6287 4.38918 30.7834 4.23985C30.9381 4.09052 31.1221 3.97052 31.3354 3.87985C31.5541 3.78385 31.7781 3.73585 32.0074 3.73585C32.3167 3.73585 32.5754 3.79718 32.7834 3.91985C32.9914 4.04252 33.1487 4.23185 33.2554 4.48785C33.3621 4.74385 33.4154 5.06918 33.4154 5.46385V7.99985H32.8074V5.49585C32.8074 5.21852 32.7701 4.99185 32.6954 4.81585C32.6261 4.63452 32.5167 4.50118 32.3674 4.41585C32.2181 4.33052 32.0341 4.29052 31.8154 4.29585C31.6341 4.29585 31.4661 4.32785 31.3114 4.39185C31.1567 4.45052 31.0234 4.53318 30.9114 4.63985C30.7994 4.74652 30.7114 4.86918 30.6474 5.00785C30.5834 5.14652 30.5514 5.29585 30.5514 5.45585V7.99985H30.2554C30.2181 7.99985 30.1754 7.99985 30.1274 7.99985C30.0794 7.99985 30.0207 7.99985 29.9514 7.99985Z" fill="#F5F5F5"/>
<path d="M36.4008 8.07985C35.9848 8.07985 35.6141 7.98919 35.2888 7.80785C34.9688 7.62652 34.7181 7.37318 34.5368 7.04785C34.3554 6.72252 34.2648 6.34918 34.2648 5.92785C34.2648 5.60252 34.3154 5.30918 34.4168 5.04785C34.5181 4.78118 34.6594 4.54918 34.8408 4.35185C35.0274 4.15452 35.2488 4.00252 35.5048 3.89585C35.7608 3.78385 36.0381 3.72785 36.3368 3.72785C36.6194 3.72785 36.8754 3.77852 37.1048 3.87985C37.3394 3.98118 37.5394 4.12252 37.7048 4.30385C37.8754 4.47985 38.0034 4.69052 38.0888 4.93585C38.1741 5.18118 38.2114 5.45052 38.2008 5.74385L38.1928 6.02385H34.7128L34.6248 5.51985H37.7368L37.5928 5.65585V5.46385C37.5821 5.27185 37.5261 5.08785 37.4248 4.91185C37.3234 4.73052 37.1794 4.58385 36.9928 4.47185C36.8114 4.35985 36.5928 4.30385 36.3368 4.30385C36.0381 4.30385 35.7794 4.36518 35.5608 4.48785C35.3421 4.60518 35.1741 4.78118 35.0568 5.01585C34.9394 5.25052 34.8808 5.54118 34.8808 5.88785C34.8808 6.21852 34.9448 6.50652 35.0728 6.75185C35.2008 6.99185 35.3821 7.17852 35.6168 7.31185C35.8568 7.44518 36.1448 7.51185 36.4808 7.51185C36.6781 7.51185 36.8728 7.47985 37.0648 7.41585C37.2621 7.34652 37.4781 7.21318 37.7128 7.01585L38.0248 7.44785C37.9021 7.57052 37.7554 7.67985 37.5848 7.77585C37.4141 7.86652 37.2274 7.94119 37.0248 7.99985C36.8221 8.05319 36.6141 8.07985 36.4008 8.07985Z" fill="#F5F5F5"/>
<path d="M40.749 8.07985C40.3703 8.07985 40.029 7.98652 39.725 7.79985C39.4263 7.61319 39.189 7.35719 39.013 7.03185C38.8423 6.70119 38.757 6.32785 38.757 5.91185C38.757 5.49052 38.845 5.11718 39.021 4.79185C39.197 4.46118 39.4343 4.20252 39.733 4.01585C40.0316 3.82918 40.3676 3.73585 40.741 3.73585C40.949 3.73585 41.149 3.76785 41.341 3.83185C41.5383 3.89585 41.7143 3.98652 41.869 4.10385C42.0236 4.21585 42.1516 4.34652 42.253 4.49585C42.3543 4.63985 42.4156 4.79185 42.437 4.95185L42.253 4.88785V2.07985H42.853V7.99985H42.261L42.245 6.95985L42.397 6.90385C42.3756 7.05318 42.3143 7.19985 42.213 7.34385C42.117 7.48252 41.9943 7.60785 41.845 7.71985C41.6956 7.83185 41.525 7.91985 41.333 7.98385C41.1463 8.04785 40.9516 8.07985 40.749 8.07985ZM40.837 7.52785C41.1143 7.52785 41.3623 7.45852 41.581 7.31985C41.7996 7.18119 41.9703 6.98918 42.093 6.74385C42.221 6.49852 42.285 6.21852 42.285 5.90385C42.285 5.58918 42.221 5.31185 42.093 5.07185C41.9703 4.82652 41.7996 4.63452 41.581 4.49585C41.3623 4.35185 41.1143 4.27985 40.837 4.27985C40.549 4.27985 40.2956 4.35185 40.077 4.49585C39.8636 4.63452 39.693 4.82652 39.565 5.07185C39.4423 5.31185 39.381 5.58918 39.381 5.90385C39.381 6.21318 39.4423 6.49052 39.565 6.73585C39.6876 6.98119 39.8583 7.17585 40.077 7.31985C40.2956 7.45852 40.549 7.52785 40.837 7.52785Z" fill="#F5F5F5"/>
<path d="M48.3839 8.07985C48.1866 8.07985 47.9946 8.05052 47.8079 7.99185C47.6212 7.92785 47.4506 7.84252 47.2959 7.73585C47.1466 7.62919 47.0186 7.50652 46.9119 7.36785C46.8106 7.22919 46.7412 7.08518 46.7039 6.93585L46.8799 6.94385L46.8559 7.99185H46.2639V2.07985H46.8639V4.82385L46.7439 4.85585C46.7812 4.70652 46.8479 4.56519 46.9439 4.43185C47.0452 4.29319 47.1706 4.17318 47.3199 4.07185C47.4692 3.96518 47.6319 3.88252 47.8079 3.82385C47.9892 3.76518 48.1759 3.73585 48.3679 3.73585C48.7412 3.73585 49.0746 3.82918 49.3679 4.01585C49.6666 4.20252 49.9039 4.45852 50.0799 4.78385C50.2559 5.10918 50.3439 5.48252 50.3439 5.90385C50.3439 6.32518 50.2586 6.70119 50.0879 7.03185C49.9172 7.35719 49.6826 7.61319 49.3839 7.79985C49.0906 7.98652 48.7572 8.07985 48.3839 8.07985ZM48.2879 7.51185C48.5706 7.51185 48.8212 7.44252 49.0399 7.30385C49.2586 7.15985 49.4292 6.96785 49.5519 6.72785C49.6799 6.48252 49.7439 6.20785 49.7439 5.90385C49.7439 5.59452 49.6799 5.31985 49.5519 5.07985C49.4292 4.83985 49.2586 4.65052 49.0399 4.51185C48.8212 4.37319 48.5706 4.30385 48.2879 4.30385C48.0052 4.30385 47.7546 4.37319 47.5359 4.51185C47.3172 4.65052 47.1439 4.83985 47.0159 5.07985C46.8932 5.31985 46.8319 5.59452 46.8319 5.90385C46.8319 6.21318 46.8932 6.49052 47.0159 6.73585C47.1439 6.97585 47.3172 7.16518 47.5359 7.30385C47.7546 7.44252 48.0052 7.51185 48.2879 7.51185Z" fill="#F5F5F5"/>
<path d="M51.7648 9.83985L52.5728 7.87185L52.6288 8.43985L50.5328 3.82385H51.2128L52.6448 7.02385C52.6874 7.10919 52.7301 7.21052 52.7728 7.32785C52.8154 7.43985 52.8554 7.55185 52.8928 7.66385L52.6688 7.63985C52.7061 7.54918 52.7408 7.45585 52.7728 7.35985C52.8101 7.26385 52.8448 7.17052 52.8768 7.07985L54.1328 3.82385H54.8208L53.1328 7.99985L52.4128 9.83985H51.7648Z" fill="#F5F5F5"/>
</svg>
