<svg width="141" height="45" viewBox="0 0 141 45" fill="none" xmlns="http://www.w3.org/2000/svg">
<path d="M28.6003 22.5813C28.6242 20.6263 29.6867 18.8323 31.4178 17.8088C30.3195 16.3023 28.5526 15.3823 26.6544 15.3248C24.6487 15.1178 22.7027 16.4748 21.688 16.4748C20.6493 16.4748 19.0735 15.3363 17.3782 15.3708C15.1457 15.4398 13.1281 16.6358 12.0417 18.5103C9.73761 22.3628 11.4567 28.0208 13.6654 31.1373C14.7756 32.6668 16.065 34.3688 17.7602 34.2998C19.4197 34.2308 20.0405 33.2878 22.0342 33.2878C24.016 33.2878 24.589 34.2998 26.3201 34.2653C28.0989 34.2423 29.2211 32.7358 30.2836 31.1948C31.0835 30.1138 31.6924 28.9063 32.0983 27.6413C29.9732 26.7788 28.6003 24.7893 28.6003 22.5813Z" fill="#F5F5F5"/>
<path d="M25.3412 13.2777C26.3082 12.1622 26.7858 10.7132 26.6664 9.26425C25.186 9.41374 23.8131 10.0922 22.8342 11.1732C21.8671 12.2312 21.3777 13.6227 21.4732 15.0372C22.9774 15.0487 24.3981 14.4047 25.3412 13.2777Z" fill="#F5F5F5"/>
<path d="M49.5284 30.4486H43.8815L42.5205 34.3126H40.1328L45.4812 20.0296H47.9644L53.3128 34.3126H50.8774L49.5284 30.4486ZM44.4665 28.6661H48.9434L46.7348 22.3986H46.6751L44.4665 28.6661Z" fill="#F5F5F5"/>
<path d="M64.8812 29.1017C64.8812 32.3332 63.0785 34.4147 60.3685 34.4147C58.9717 34.4837 57.6465 33.7822 56.966 32.5977H56.9183V37.7497H54.6978V23.8922H56.8467V25.6287H56.8825C57.5868 24.4557 58.912 23.7426 60.3207 23.7886C63.0785 23.7886 64.8812 25.8702 64.8812 29.1017ZM62.601 29.1017C62.601 26.9972 61.4668 25.6057 59.7477 25.6057C58.0524 25.6057 56.9064 27.0202 56.9064 29.1017C56.9064 31.1947 58.0524 32.6092 59.7477 32.6092C61.4668 32.6092 62.601 31.2292 62.601 29.1017Z" fill="#F5F5F5"/>
<path d="M76.7717 29.1017C76.7717 32.3332 74.969 34.4147 72.2589 34.4147C70.8621 34.4837 69.537 33.7822 68.8565 32.5977H68.8087V37.7497H66.6001V23.8922H68.749V25.6287H68.7848C69.4892 24.4557 70.8144 23.7426 72.2231 23.7886C74.969 23.7886 76.7717 25.8702 76.7717 29.1017ZM74.4914 29.1017C74.4914 26.9972 73.3573 25.6057 71.6381 25.6057C69.9429 25.6057 68.7968 27.0202 68.7968 29.1017C68.7968 31.1947 69.9429 32.6092 71.6381 32.6092C73.3692 32.6092 74.4914 31.2292 74.4914 29.1017Z" fill="#F5F5F5"/>
<path d="M84.6394 30.3322C84.8065 31.7467 86.2272 32.6782 88.1851 32.6782C90.0594 32.6782 91.3966 31.7467 91.3966 30.4702C91.3966 29.3662 90.5847 28.6992 88.6627 28.2392L86.7406 27.7907C84.0186 27.1582 82.7531 25.9277 82.7531 23.9382C82.7531 21.4772 84.9856 19.7867 88.1493 19.7867C91.2772 19.7867 93.4261 21.4772 93.4977 23.9382H91.2533C91.122 22.5122 89.8923 21.6497 88.1135 21.6497C86.3347 21.6497 85.105 22.5237 85.105 23.7887C85.105 24.8007 85.881 25.3872 87.7911 25.8472L89.4267 26.2382C92.471 26.9282 93.7365 28.1127 93.7365 30.1942C93.7365 32.8622 91.5279 34.5412 88.018 34.5412C84.7349 34.5412 82.5144 32.9082 82.3711 30.3207L84.6394 30.3322Z" fill="#F5F5F5"/>
<path d="M98.5354 21.4312V23.8922H100.589V25.5827H98.5354V31.3212C98.5354 32.2182 98.9413 32.6322 99.8487 32.6322C100.087 32.6322 100.338 32.6092 100.577 32.5862V34.2652C100.171 34.3342 99.7532 34.3687 99.3472 34.3687C97.1625 34.3687 96.3029 33.5752 96.3029 31.5627V25.5942H94.7271V23.9037H96.3029V21.4312H98.5354Z" fill="#F5F5F5"/>
<path d="M101.783 29.1017C101.783 25.8242 103.788 23.7657 106.904 23.7657C110.032 23.7657 112.026 25.8242 112.026 29.1017C112.026 32.3907 110.044 34.4377 106.904 34.4377C103.765 34.4377 101.783 32.3907 101.783 29.1017ZM109.77 29.1017C109.77 26.8592 108.695 25.5252 106.904 25.5252C105.114 25.5252 104.039 26.8592 104.039 29.1017C104.039 31.3557 105.102 32.6782 106.904 32.6782C108.707 32.6782 109.77 31.3557 109.77 29.1017Z" fill="#F5F5F5"/>
<path d="M113.864 23.8923H115.977V25.6633H116.025C116.324 24.5248 117.41 23.7428 118.628 23.7773C118.878 23.7773 119.141 23.8003 119.392 23.8578V25.8588C119.069 25.7668 118.735 25.7208 118.401 25.7323C117.171 25.6863 116.121 26.6063 116.073 27.8022C116.073 27.9172 116.073 28.0207 116.085 28.1357V34.3112H113.864V23.8923Z" fill="#F5F5F5"/>
<path d="M129.611 31.2522C129.313 33.1382 127.403 34.4377 124.955 34.4377C121.815 34.4377 119.857 32.4137 119.857 29.1477C119.857 25.8817 121.815 23.7657 124.86 23.7657C127.844 23.7657 129.731 25.7437 129.731 28.9062V29.6422H122.102V29.7687C121.971 31.2637 123.105 32.5747 124.657 32.7127C124.776 32.7242 124.895 32.7242 125.003 32.7242C126.077 32.8162 127.092 32.2297 127.498 31.2637L129.611 31.2522ZM122.114 28.1357H127.522C127.605 26.7557 126.507 25.5712 125.075 25.5022C125.003 25.5022 124.943 25.5022 124.872 25.5022C123.355 25.4907 122.126 26.6637 122.114 28.1242V28.1357Z" fill="#F5F5F5"/>
<path d="M44.192 9.27536C45.9231 9.16036 47.4393 10.4139 47.5587 12.0814C47.5706 12.2769 47.5706 12.4839 47.5467 12.6794C47.5467 14.8759 46.3171 16.1294 44.192 16.1294H41.6133V9.27536H44.192ZM42.7236 15.1634H44.0607C45.2904 15.2324 46.3529 14.3239 46.4245 13.1394C46.4365 12.9899 46.4245 12.8404 46.4006 12.6909C46.5678 11.5064 45.7082 10.4139 44.4785 10.2529C44.3353 10.2299 44.192 10.2299 44.0487 10.2414H42.7236V15.1634Z" fill="#F5F5F5"/>
<path d="M48.7882 13.5423C48.6569 12.1968 49.6836 11.0008 51.0803 10.8628C52.4771 10.7363 53.7187 11.7253 53.862 13.0708C53.8739 13.2318 53.8739 13.3813 53.862 13.5423C53.9933 14.8878 52.9786 16.0953 51.5698 16.2218C50.173 16.3483 48.9195 15.3708 48.7882 14.0138C48.7762 13.8643 48.7762 13.7033 48.7882 13.5423ZM52.7637 13.5423C52.7637 12.4153 52.2384 11.7598 51.3191 11.7598C50.3999 11.7598 49.8746 12.4153 49.8746 13.5423C49.8746 14.6693 50.3879 15.3248 51.3191 15.3248C52.2503 15.3248 52.7637 14.6693 52.7637 13.5423Z" fill="#F5F5F5"/>
<path d="M60.5957 16.1413H59.4973L58.3871 12.3233H58.3035L57.1932 16.1413H56.1068L54.6265 10.9663H55.7009L56.6679 14.9223H56.7515L57.8618 10.9663H58.8765L59.9868 14.9223H60.0704L61.0254 10.9663H62.088L60.5957 16.1413Z" fill="#F5F5F5"/>
<path d="M63.3174 10.9547H64.3441V11.7827H64.4277C64.7022 11.1732 65.3469 10.8052 66.0274 10.8627C66.9944 10.7937 67.8301 11.4837 67.9017 12.4152C67.9137 12.5417 67.9017 12.6682 67.8898 12.7832V16.1297H66.8273V13.0362C66.8273 12.2082 66.4572 11.7942 65.6692 11.7942C64.9888 11.7597 64.4157 12.2657 64.3799 12.9212C64.3799 12.9787 64.3799 13.0477 64.3799 13.1052V16.1297H63.3174V10.9547Z" fill="#F5F5F5"/>
<path d="M69.5732 8.94228H70.6363V16.1413H69.5732V8.94228Z" fill="#F5F5F5"/>
<path d="M72.1161 13.5423C71.9847 12.1968 73.0114 11.0008 74.4082 10.8628C75.805 10.7363 77.0466 11.7253 77.1899 13.0708C77.2018 13.2318 77.2018 13.3813 77.1899 13.5423C77.3212 14.8878 76.3065 16.0953 74.8977 16.2218C73.489 16.3483 72.2474 15.3708 72.1161 14.0138C72.0922 13.8643 72.0922 13.7033 72.1161 13.5423ZM76.0916 13.5423C76.0916 12.4153 75.5663 11.7598 74.647 11.7598C73.7277 11.7598 73.2025 12.4153 73.2025 13.5423C73.2025 14.6693 73.7158 15.3248 74.647 15.3248C75.5663 15.3248 76.0916 14.6693 76.0916 13.5423Z" fill="#F5F5F5"/>
<path d="M78.3003 14.6693C78.3003 13.7378 79.0166 13.1973 80.294 13.1283L81.7505 13.0478V12.5993C81.7505 12.0473 81.3804 11.7483 80.6522 11.7483C80.0553 11.7483 79.6493 11.9553 79.53 12.3233H78.5032C78.6107 11.4378 79.4822 10.8628 80.6999 10.8628C82.049 10.8628 82.813 11.5068 82.813 12.5993V16.1413H81.7863V15.4168H81.7028C81.3566 15.9458 80.7357 16.2563 80.0911 16.2333C79.1957 16.3253 78.3958 15.6928 78.3122 14.8418C78.3003 14.7728 78.3003 14.7268 78.3003 14.6693ZM81.7625 14.2323V13.7953L80.4492 13.8758C79.709 13.9218 79.3748 14.1633 79.3748 14.6233C79.3748 15.0948 79.7926 15.3593 80.3657 15.3593C81.0581 15.4283 81.6789 14.9338 81.7505 14.2668C81.7505 14.2553 81.7505 14.2438 81.7625 14.2323Z" fill="#F5F5F5"/>
<path d="M84.2095 13.5423C84.2095 11.9093 85.081 10.8743 86.442 10.8743C87.1225 10.8398 87.7672 11.1963 88.0896 11.7828H88.1731V8.94228H89.2357V16.1413H88.2089V15.3248H88.1254C87.7791 15.8998 87.1345 16.2563 86.442 16.2333C85.0691 16.2218 84.2095 15.1868 84.2095 13.5423ZM85.3078 13.5423C85.3078 14.6463 85.8451 15.3018 86.7405 15.3018C87.6359 15.3018 88.1851 14.6348 88.1851 13.5423C88.1851 12.4613 87.6239 11.7828 86.7405 11.7828C85.8451 11.7943 85.3078 12.4613 85.3078 13.5423Z" fill="#F5F5F5"/>
<path d="M93.6173 13.5422C93.486 12.1967 94.5126 11.0007 95.9094 10.8627C97.3062 10.7247 98.5478 11.7252 98.6911 13.0707C98.703 13.2317 98.703 13.3812 98.6911 13.5422C98.8224 14.8877 97.8076 16.0952 96.3989 16.2217C95.0021 16.3482 93.7486 15.3707 93.6173 14.0137C93.6053 13.8642 93.6053 13.7032 93.6173 13.5422ZM97.5927 13.5422C97.5927 12.4152 97.0674 11.7597 96.1482 11.7597C95.2289 11.7597 94.7037 12.4152 94.7037 13.5422C94.7037 14.6692 95.217 15.3247 96.1482 15.3247C97.0674 15.3247 97.5927 14.6692 97.5927 13.5422Z" fill="#F5F5F5"/>
<path d="M100.112 10.9547H101.139V11.7827H101.222C101.497 11.1732 102.141 10.8052 102.822 10.8627C103.789 10.7937 104.624 11.4837 104.696 12.4152C104.708 12.5417 104.696 12.6682 104.684 12.7832V16.1297H103.622V13.0362C103.622 12.2082 103.252 11.7942 102.464 11.7942C101.783 11.7597 101.21 12.2657 101.174 12.9212C101.174 12.9787 101.174 13.0477 101.174 13.1052V16.1297H100.112V10.9547V10.9547Z" fill="#F5F5F5"/>
<path d="M110.677 9.66674V10.9777H111.847V11.8402H110.677V14.5083C110.677 15.0488 110.904 15.2903 111.442 15.2903C111.573 15.2903 111.716 15.2788 111.847 15.2673V16.1183C111.656 16.1528 111.465 16.1643 111.274 16.1758C110.092 16.1758 109.627 15.7733 109.627 14.7728V11.8517H108.779V10.9892H109.627V9.66674H110.677Z" fill="#F5F5F5"/>
<path d="M113.28 8.94228H114.33V11.7943H114.414C114.7 11.1848 115.357 10.8168 116.049 10.8628C117.028 10.8168 117.864 11.5298 117.912 12.4728C117.924 12.5763 117.912 12.6913 117.9 12.7948V16.1413H116.837V13.0478C116.837 12.2198 116.443 11.8058 115.691 11.8058C114.999 11.7483 114.39 12.2428 114.342 12.9098C114.342 12.9788 114.342 13.0478 114.342 13.1168V16.1413H113.28V8.94228Z" fill="#F5F5F5"/>
<path d="M124.096 14.7383C123.797 15.7158 122.818 16.3483 121.768 16.2333C120.419 16.2678 119.297 15.2443 119.261 13.9448C119.261 13.8183 119.261 13.6918 119.285 13.5653C119.106 12.2543 120.061 11.0583 121.41 10.8858C121.529 10.8743 121.648 10.8628 121.756 10.8628C123.248 10.8628 124.155 11.8518 124.155 13.4733V13.8298H120.359V13.8873C120.287 14.6463 120.872 15.3018 121.66 15.3708C121.708 15.3708 121.756 15.3708 121.792 15.3708C122.305 15.4283 122.818 15.1868 123.069 14.7383H124.096ZM120.371 13.0708H123.081C123.129 12.3808 122.603 11.7828 121.887 11.7368C121.839 11.7368 121.804 11.7368 121.756 11.7368C120.992 11.7253 120.371 12.3118 120.359 13.0478C120.371 13.0478 120.371 13.0593 120.371 13.0708Z" fill="#F5F5F5"/>
</svg>
