<svg width="149" height="45" viewBox="0 0 149 45" fill="none" xmlns="http://www.w3.org/2000/svg">
<path d="M52.0897 11.4494C52.0897 12.3886 51.8151 13.1377 51.2658 13.6856C50.6507 14.3452 49.8378 14.6807 48.8492 14.6807C47.8935 14.6807 47.0916 14.3452 46.4215 13.6744C45.7514 13.0035 45.4219 12.1649 45.4219 11.181C45.4219 10.1859 45.7514 9.35852 46.4215 8.68766C47.0916 8.0168 47.8935 7.68137 48.8492 7.68137C49.3215 7.68137 49.7719 7.77081 50.2003 7.96089C50.6287 8.15097 50.9692 8.39695 51.2329 8.71002L50.6507 9.30261C50.2113 8.7771 49.6181 8.50876 48.8492 8.50876C48.1571 8.50876 47.5529 8.75474 47.0476 9.25789C46.5423 9.74985 46.2897 10.3984 46.2897 11.1922C46.2897 11.9861 46.5423 12.6346 47.0476 13.1265C47.5529 13.6185 48.1571 13.8756 48.8492 13.8756C49.5851 13.8756 50.2003 13.6297 50.6946 13.1265C51.0132 12.8023 51.1999 12.3438 51.2439 11.7624H48.8492V10.9462H52.0458C52.0677 11.1251 52.0897 11.2928 52.0897 11.4494Z" fill="#F5F5F5" stroke="#F5F5F5" stroke-width="0.201132" stroke-miterlimit="10"/>
<path d="M57.1538 8.65416H54.1549V10.7786H56.8572V11.5836H54.1549V13.708H57.1538V14.5354H53.3091V7.82677H57.1538V8.65416V8.65416Z" fill="#F5F5F5" stroke="#F5F5F5" stroke-width="0.201132" stroke-miterlimit="10"/>
<path d="M60.7235 14.5354H59.8777V8.65416H58.0322V7.82677H62.558V8.65416H60.7125V14.5354H60.7235Z" fill="#F5F5F5" stroke="#F5F5F5" stroke-width="0.201132" stroke-miterlimit="10"/>
<path d="M65.8428 14.5354V7.82677H66.6895V14.5354H65.8428Z" fill="#F5F5F5" stroke="#F5F5F5" stroke-width="0.201132" stroke-miterlimit="10"/>
<path d="M70.4457 14.5354H69.5998V8.65416H67.7544V7.82677H72.2801V8.65416H70.4347V14.5354H70.4457Z" fill="#F5F5F5" stroke="#F5F5F5" stroke-width="0.201132" stroke-miterlimit="10"/>
<path d="M80.8591 13.6632C80.211 14.3452 79.4091 14.6807 78.4424 14.6807C77.4757 14.6807 76.6738 14.3452 76.0257 13.6632C75.3776 12.9812 75.0591 12.1538 75.0591 11.181C75.0591 10.2083 75.3776 9.3697 76.0257 8.69884C76.6738 8.0168 77.4757 7.68137 78.4424 7.68137C79.3981 7.68137 80.2 8.0168 80.8591 8.69884C81.5072 9.38088 81.8367 10.2083 81.8367 11.181C81.8257 12.1649 81.5072 12.9923 80.8591 13.6632ZM76.6519 13.1042C77.1352 13.6073 77.7394 13.8533 78.4424 13.8533C79.1454 13.8533 79.7496 13.6073 80.2329 13.1042C80.7163 12.601 80.9689 11.9637 80.9689 11.181C80.9689 10.3983 80.7272 9.76103 80.2329 9.25789C79.7496 8.75474 79.1454 8.49758 78.4424 8.49758C77.7394 8.49758 77.1352 8.74356 76.6519 9.24671C76.1685 9.76103 75.9159 10.3983 75.9159 11.181C75.9159 11.9637 76.1685 12.601 76.6519 13.1042Z" fill="#F5F5F5" stroke="#F5F5F5" stroke-width="0.201132" stroke-miterlimit="10"/>
<path d="M83.0229 14.5354V7.82677H84.0555L87.2631 13.0483H87.2961L87.2631 11.7513V7.82677H88.1089V14.5354H87.2301L83.8798 9.06786H83.8468L83.8798 10.3649V14.5354H83.0229Z" fill="#F5F5F5" stroke="#F5F5F5" stroke-width="0.201132" stroke-miterlimit="10"/>
<path d="M74.85 24.3187C72.2686 24.3187 70.1595 26.3201 70.1595 29.0706C70.1595 31.8099 72.2686 33.8225 74.85 33.8225C77.4314 33.8225 79.5405 31.8099 79.5405 29.0706C79.5405 26.3201 77.4314 24.3187 74.85 24.3187ZM74.85 31.9553C73.433 31.9553 72.2136 30.7701 72.2136 29.0706C72.2136 27.3599 73.433 26.1859 74.85 26.1859C76.267 26.1859 77.4864 27.3599 77.4864 29.0706C77.4864 30.7701 76.2561 31.9553 74.85 31.9553ZM64.6121 24.3187C62.0307 24.3187 59.9216 26.3201 59.9216 29.0706C59.9216 31.8099 62.0307 33.8225 64.6121 33.8225C67.1936 33.8225 69.3027 31.8099 69.3027 29.0706C69.3027 26.3201 67.1936 24.3187 64.6121 24.3187ZM64.6121 31.9553C63.1951 31.9553 61.9758 30.7701 61.9758 29.0706C61.9758 27.3599 63.1951 26.1859 64.6121 26.1859C66.0292 26.1859 67.2485 27.3599 67.2485 29.0706C67.2485 30.7701 66.0292 31.9553 64.6121 31.9553ZM52.4409 25.7834V27.796H57.1864C57.0436 28.9252 56.6701 29.7638 56.1098 30.334C55.4178 31.0385 54.3413 31.8099 52.4519 31.8099C49.5299 31.8099 47.2451 29.4172 47.2451 26.4431C47.2451 23.4689 49.5299 21.0762 52.4519 21.0762C54.0227 21.0762 55.1761 21.7023 56.022 22.5186L57.417 21.0986C56.2307 19.9469 54.6598 19.0636 52.4409 19.0636C48.4424 19.0636 45.0811 22.3732 45.0811 26.4543C45.0811 30.5241 48.4424 33.8449 52.4409 33.8449C54.6049 33.8449 56.2307 33.1293 57.5049 31.7764C58.8121 30.4459 59.2186 28.5675 59.2186 27.058C59.2186 26.5884 59.1856 26.1524 59.1087 25.7946H52.4409V25.7834ZM102.213 27.3487C101.829 26.2865 100.642 24.3187 98.2148 24.3187C95.8091 24.3187 93.8099 26.2418 93.8099 29.0706C93.8099 31.7317 95.7871 33.8225 98.4455 33.8225C100.588 33.8225 101.829 32.492 102.334 31.7205L100.741 30.6359C100.214 31.4298 99.489 31.9553 98.4455 31.9553C97.4019 31.9553 96.6549 31.4633 96.1826 30.5129L102.433 27.8854L102.213 27.3487ZM95.8421 28.9364C95.7871 27.1027 97.2371 26.1635 98.2807 26.1635C99.0936 26.1635 99.7856 26.5772 100.016 27.1698L95.8421 28.9364ZM90.767 33.543H92.8212V19.5668H90.767V33.543ZM87.4057 25.3809H87.3288C86.8674 24.8218 85.9886 24.3187 84.8682 24.3187C82.5284 24.3187 80.3864 26.4095 80.3864 29.093C80.3864 31.754 82.5284 33.8337 84.8682 33.8337C85.9777 33.8337 86.8674 33.3306 87.3288 32.7491H87.3947V33.4312C87.3947 35.2537 86.439 36.2264 84.9011 36.2264C83.6489 36.2264 82.8689 35.3096 82.5504 34.5381L80.7598 35.2984C81.2761 36.5619 82.6383 38.1048 84.9011 38.1048C87.3068 38.1048 89.339 36.6625 89.339 33.1517V24.6094H87.3947V25.3809H87.4057ZM85.0439 31.9553C83.6269 31.9553 82.4405 30.7477 82.4405 29.093C82.4405 27.4158 83.6269 26.1971 85.0439 26.1971C86.439 26.1971 87.5375 27.427 87.5375 29.093C87.5485 30.7477 86.45 31.9553 85.0439 31.9553ZM111.836 19.5668H106.926V33.543H108.98V28.2432H111.847C114.121 28.2432 116.351 26.5661 116.351 23.905C116.351 21.2439 114.099 19.5668 111.836 19.5668ZM111.88 26.2977H108.969V21.5011H111.88C113.418 21.5011 114.286 22.7981 114.286 23.8938C114.286 24.9895 113.418 26.2977 111.88 26.2977ZM124.556 24.2963C123.073 24.2963 121.536 24.9672 120.898 26.4319L122.722 27.2034C123.106 26.4319 123.831 26.1747 124.589 26.1747C125.655 26.1747 126.731 26.8232 126.742 27.9749V28.1202C126.369 27.9078 125.578 27.5835 124.6 27.5835C122.634 27.5835 120.646 28.6793 120.646 30.7254C120.646 32.5926 122.25 33.8002 124.051 33.8002C125.424 33.8002 126.193 33.174 126.666 32.4361H126.731V33.5206H128.709V28.1649C128.72 25.6828 126.896 24.2963 124.556 24.2963ZM124.304 31.9553C123.634 31.9553 122.7 31.6087 122.7 30.7701C122.7 29.6967 123.864 29.283 124.875 29.283C125.776 29.283 126.204 29.4843 126.742 29.7526C126.589 31.0385 125.49 31.9553 124.304 31.9553ZM135.926 24.5982L133.575 30.6583H133.509L131.07 24.5982H128.863L132.52 33.0734L130.433 37.7806H132.575L138.211 24.5982H135.926ZM117.471 33.543H119.525V19.5668H117.471V33.543Z" fill="#F5F5F5"/>
<path d="M11.4682 8.43017C11.1496 8.77678 10.9629 9.31347 10.9629 9.99551V34.7279C10.9629 35.4211 11.1496 35.9578 11.4682 36.2932L11.5451 36.3715L25.1553 22.5294V22.3617V22.194L11.5451 8.35191L11.4682 8.43017Z" fill="url(#paint0_linear_146_1312)"/>
<path d="M29.6915 27.1474L25.1548 22.5297V22.362V22.1942L29.6915 17.5765L29.7904 17.6324L35.162 20.7407C36.6999 21.624 36.6999 23.0775 35.162 23.972L29.7904 27.0803L29.6915 27.1474Z" fill="url(#paint1_linear_146_1312)"/>
<path d="M29.791 27.0915L25.1554 22.362L11.4683 36.2935C11.9736 36.8413 12.8084 36.9084 13.7531 36.3606L29.791 27.0915Z" fill="url(#paint2_linear_146_1312)"/>
<path d="M29.7903 17.6436L13.7414 8.36336C12.7967 7.81549 11.9618 7.88257 11.4565 8.43044L25.1547 22.362L29.7903 17.6436Z" fill="url(#paint3_linear_146_1312)"/>
<path opacity="0.2" d="M29.6921 26.9797L13.7421 36.2041C12.8524 36.7184 12.0505 36.6848 11.5452 36.2152L11.4683 36.2935L11.5452 36.3718C12.0614 36.8414 12.8524 36.8749 13.7421 36.3606L29.791 27.0803L29.6921 26.9797Z" fill="#041A26"/>
<path opacity="0.12" d="M11.4692 36.1369C11.1503 35.7903 10.9634 35.2536 10.9634 34.5716V34.7393C10.9634 35.4325 11.1503 35.9692 11.4692 36.3046L11.5462 36.2264L11.4692 36.1369Z" fill="#041A26"/>
<path opacity="0.12" d="M35.1621 23.8155L29.6807 26.9797L29.7795 27.0803L35.1511 23.972C35.9201 23.5248 36.3046 22.9434 36.3046 22.362C36.2496 22.8875 35.8652 23.413 35.1621 23.8155Z" fill="#041A26"/>
<path opacity="0.25" d="M13.7413 8.52052L35.1618 20.9091C35.8538 21.3116 36.2493 21.8259 36.3152 22.3626C36.3152 21.7812 35.9307 21.1886 35.1618 20.7525L13.7413 8.36399C12.2034 7.48069 10.9512 8.21863 10.9512 10.0076V10.1753C10.9512 8.37517 12.2144 7.63722 13.7413 8.52052Z" fill="#F5F5F5"/>
<defs>
<linearGradient id="paint0_linear_146_1312" x1="23.9466" y1="9.73813" x2="5.18509" y2="28.1705" gradientUnits="userSpaceOnUse">
<stop stop-color="#00A0FF"/>
<stop offset="0.00657445" stop-color="#00A1FF"/>
<stop offset="0.2601" stop-color="#00BEFF"/>
<stop offset="0.5122" stop-color="#00D2FF"/>
<stop offset="0.7604" stop-color="#00DFFF"/>
<stop offset="1" stop-color="#00E3FF"/>
</linearGradient>
<linearGradient id="paint1_linear_146_1312" x1="37.166" y1="22.3636" x2="10.586" y2="22.3636" gradientUnits="userSpaceOnUse">
<stop stop-color="#FFE000"/>
<stop offset="0.4087" stop-color="#FFBD00"/>
<stop offset="0.7754" stop-color="#FFA500"/>
<stop offset="1" stop-color="#FF9C00"/>
</linearGradient>
<linearGradient id="paint2_linear_146_1312" x1="27.2721" y1="24.9293" x2="1.83003" y2="49.9251" gradientUnits="userSpaceOnUse">
<stop stop-color="#FF3A44"/>
<stop offset="1" stop-color="#C31162"/>
</linearGradient>
<linearGradient id="paint3_linear_146_1312" x1="8.0152" y1="0.197083" x2="19.3762" y2="11.3587" gradientUnits="userSpaceOnUse">
<stop stop-color="#32A071"/>
<stop offset="0.0685" stop-color="#2DA771"/>
<stop offset="0.4762" stop-color="#15CF74"/>
<stop offset="0.8009" stop-color="#06E775"/>
<stop offset="1" stop-color="#00F076"/>
</linearGradient>
</defs>
</svg>
