<svg width="1266" height="1225" viewBox="0 0 1266 1225" fill="none" xmlns="http://www.w3.org/2000/svg">
<g clip-path="url(#clip0_543_1455)">
<path d="M106.76 140.11L972.6 964.58C976.62 955.44 986.41 948.7 994.48 949.53L128.64 125.06C120.58 124.23 110.78 130.97 106.76 140.11Z" fill="#041A26"/>
<path d="M106.76 140.11L972.6 964.58C976.08 956.66 983.9 950.54 991.18 949.59L125.34 125.12C118.06 126.08 110.24 132.19 106.76 140.11Z" fill="#041A26"/>
<path d="M125.34 125.12L991.18 949.6C992.3 949.45 993.41 949.43 994.49 949.54L128.65 125.07C127.57 124.95 126.46 124.98 125.34 125.12Z" fill="#041A26"/>
<path d="M128.65 125.06L994.48 949.54L1015.86 951.74L150.03 127.27L128.65 125.06Z" fill="#041A26"/>
<path d="M192.32 81.2699L1058.15 905.74C1062.17 896.6 1071.97 889.87 1080.04 890.7L214.2 66.2299C206.13 65.3999 196.33 72.1299 192.32 81.2699Z" fill="#041A26"/>
<path d="M192.32 81.27L1058.15 905.74C1061.63 897.82 1069.45 891.71 1076.73 890.76L210.89 66.29C203.62 67.24 195.8 73.35 192.32 81.27Z" fill="#041A26"/>
<path d="M210.89 66.29L1076.73 890.76C1077.85 890.61 1078.96 890.59 1080.04 890.7L214.2 66.23C213.12 66.12 212.02 66.14 210.89 66.29Z" fill="#041A26"/>
<path d="M181.65 105.53L1047.49 930L1058.15 905.74L192.32 81.27L181.65 105.53Z" fill="#041A26"/>
<path d="M1024.5 955.51L158.66 131.04C156.49 128.98 153.58 127.63 150.02 127.27L1015.86 951.74C1019.42 952.1 1022.34 953.45 1024.5 955.51Z" fill="#041A26"/>
<path d="M150.03 127.27L1015.86 951.74C1019.42 952.11 1022.33 953.45 1024.5 955.51L158.66 131.04C156.5 128.97 153.58 127.63 150.03 127.27Z" fill="#041A26"/>
<path d="M57.16 252.95L923 1077.43L972.6 964.58L106.76 140.11L57.16 252.95Z" fill="#00E220"/>
<path d="M0 247.07L865.84 1071.54L923 1077.43L57.16 252.95L0 247.07Z" fill="#041A26"/>
<path d="M183.61 127.84L1049.45 952.31C1044.52 947.61 1043.46 939.18 1047.49 930L181.65 105.53C177.62 114.71 178.68 123.14 183.61 127.84Z" fill="#041A26"/>
<path d="M183.61 127.84L1049.45 952.31C1045.23 948.29 1043.85 941.55 1046.05 933.94L180.21 109.47C178.01 117.08 179.39 123.82 183.61 127.84Z" fill="#041A26"/>
<path d="M180.21 109.47L1046.05 933.95C1046.42 932.66 1046.9 931.34 1047.49 930.01L181.65 105.54C181.06 106.86 180.59 108.18 180.21 109.47Z" fill="#041A26"/>
<path d="M214.2 66.23L1080.04 890.7L1179.74 900.96L313.9 76.49L214.2 66.23Z" fill="#041A26"/>
<path d="M313.9 76.49L1179.74 900.96L1208.19 836.24L342.35 11.77L313.9 76.49Z" fill="url(#paint0_linear_543_1455)"/>
<path d="M132.02 256.56L997.85 1081.03C1000.93 1083.97 1005.08 1085.88 1010.15 1086.4L144.31 261.93C139.25 261.41 135.1 259.49 132.02 256.56Z" fill="#041A26"/>
<path d="M132.02 256.56L997.85 1081.03C1000.93 1083.97 1005.08 1085.88 1010.15 1086.4L144.31 261.93C139.25 261.41 135.1 259.49 132.02 256.56Z" fill="#041A26"/>
<path d="M1133.53 967.96L267.69 143.49C274.71 150.18 276.23 162.19 270.48 175.25L1136.33 999.72C1142.07 986.66 1140.56 974.64 1133.53 967.96Z" fill="#3B6EFF"/>
<path d="M270.49 175.25L1136.33 999.72C1137.16 997.82 1137.84 995.95 1138.38 994.11L272.54 169.64C272.01 171.48 271.33 173.35 270.49 175.25Z" fill="#3B6EFF"/>
<path d="M272.54 169.64L1138.38 994.11C1141.52 983.28 1139.54 973.67 1133.54 967.96L267.7 143.49C273.7 149.2 275.68 158.81 272.54 169.64Z" fill="#3B6EFF"/>
<path d="M144.31 261.93L1010.15 1086.4L1073.3 1092.9L207.46 268.43L144.31 261.93Z" fill="#041A26"/>
<path d="M239.09 246.69L1104.93 1071.16L1136.33 999.72L270.49 175.25L239.09 246.69Z" fill="#3B6EFF"/>
<path d="M1081.94 1096.67L216.1 272.2C213.93 270.14 211.02 268.79 207.46 268.43L1073.3 1092.9C1076.86 1093.27 1079.77 1094.61 1081.94 1096.67Z" fill="#041A26"/>
<path d="M207.46 268.43L1073.3 1092.9C1076.86 1093.27 1079.77 1094.61 1081.94 1096.67L216.1 272.2C213.94 270.14 211.02 268.79 207.46 268.43Z" fill="#041A26"/>
<path d="M241.05 269L1106.89 1093.47C1101.95 1088.77 1100.89 1080.33 1104.93 1071.15L239.09 246.68C235.06 255.86 236.12 264.3 241.05 269Z" fill="#3B6EFF"/>
<path d="M241.05 269L1106.89 1093.47C1102.67 1089.45 1101.28 1082.7 1103.49 1075.1L237.65 250.63C235.44 258.24 236.83 264.99 241.05 269Z" fill="#3B6EFF"/>
<path d="M237.65 250.63L1103.49 1075.1C1103.86 1073.81 1104.34 1072.49 1104.93 1071.16L239.09 246.69C238.5 248.02 238.02 249.34 237.65 250.63Z" fill="#3B6EFF"/>
<path d="M192.85 351.87L1058.69 1176.34C1062.71 1167.2 1072.5 1160.46 1080.57 1161.29L214.73 336.82C206.67 335.99 196.87 342.73 192.85 351.87Z" fill="#041A26"/>
<path d="M192.85 351.87L1058.69 1176.34C1062.17 1168.42 1069.99 1162.3 1077.27 1161.35L211.43 336.88C204.15 337.83 196.33 343.95 192.85 351.87Z" fill="#041A26"/>
<path d="M211.43 336.88L1077.27 1161.35C1078.39 1161.2 1079.5 1161.18 1080.58 1161.29L214.74 336.82C213.66 336.71 212.55 336.73 211.43 336.88Z" fill="#041A26"/>
<path d="M171.68 400.04L1037.51 1224.51L1058.69 1176.34L192.85 351.87L171.68 400.04Z" fill="#00E220"/>
<path d="M57.36 388.27L923.2 1212.74L1037.51 1224.51L171.68 400.04L57.36 388.27Z" fill="#041A26"/>
<path d="M278.46 293.03L1144.3 1117.5C1148.32 1108.36 1158.11 1101.63 1166.18 1102.46L300.34 277.99C292.27 277.16 282.48 283.89 278.46 293.03Z" fill="#041A26"/>
<path d="M278.46 293.03L1144.3 1117.5C1147.78 1109.58 1155.6 1103.47 1162.87 1102.52L297.03 278.05C289.76 279 281.94 285.11 278.46 293.03Z" fill="#041A26"/>
<path d="M297.03 278.05L1162.87 1102.52C1163.99 1102.37 1165.1 1102.35 1166.18 1102.46L300.34 277.99C299.26 277.88 298.15 277.9 297.03 278.05Z" fill="#041A26"/>
<path d="M214.74 336.82L1080.57 1161.29L1123.12 1165.67L257.29 341.2L214.74 336.82Z" fill="#041A26"/>
<path d="M257.29 341.2L1123.12 1165.67L1144.3 1117.5L278.46 293.03L257.29 341.2Z" fill="#3B6EFF"/>
<path d="M300.34 277.99L1166.18 1102.46L1208.67 1106.84L342.83 282.36L300.34 277.99Z" fill="#041A26"/>
<path d="M342.83 282.36L1208.67 1106.84L1265.55 977.44L399.71 152.97L342.83 282.36Z" fill="#3B6EFF"/>
</g>
<g clip-path="url(#clip1_543_1455)">
<path d="M228.05 0L206.87 48.17C202.85 57.31 193.05 64.05 184.98 63.22L142.49 58.85L121.31 107.02C117.29 116.16 107.49 122.89 99.42 122.06L56.88 117.68L-3.05176e-05 247.07L57.16 252.95L106.76 140.11C110.78 130.97 120.57 124.23 128.64 125.06L150.02 127.26C161.68 128.46 166.42 140.14 160.62 153.35L129.22 224.79C120.96 243.59 127.71 260.21 144.31 261.92L207.46 268.42C219.12 269.62 223.87 281.3 218.06 294.5L207.39 318.76C203.37 327.9 193.57 334.63 185.5 333.8L85.8 323.54L57.35 388.26L171.66 400.03L192.84 351.86C196.86 342.72 206.65 335.98 214.72 336.81L257.27 341.19L278.45 293.02C282.47 283.88 292.26 277.15 300.33 277.98L342.82 282.35L399.72 152.97L342.62 147.09L293.02 259.93C289 269.07 279.2 275.81 271.13 274.98L249.7 272.77C238.04 271.57 233.3 259.89 239.1 246.68L270.5 175.24C278.76 156.44 272 139.82 255.41 138.11L192.26 131.61C180.6 130.41 175.85 118.73 181.66 105.53L192.32 81.27C196.34 72.13 206.14 65.4 214.21 66.23L313.91 76.49L342.36 11.77L228.05 0Z" fill="url(#paint1_linear_543_1455)"/>
<mask id="mask0_543_1455" style="mask-type:alpha" maskUnits="userSpaceOnUse" x="0" y="0" width="400" height="401">
<path d="M228.05 0L206.87 48.17C202.85 57.31 193.05 64.05 184.98 63.22L142.49 58.85L121.31 107.02C117.29 116.16 107.49 122.89 99.42 122.06L56.88 117.68L-3.05176e-05 247.07L57.16 252.95L106.76 140.11C110.78 130.97 120.57 124.23 128.64 125.06L150.02 127.26C161.68 128.46 166.42 140.14 160.62 153.35L129.22 224.79C120.96 243.59 127.71 260.21 144.31 261.92L207.46 268.42C219.12 269.62 223.87 281.3 218.06 294.5L207.39 318.76C203.37 327.9 193.57 334.63 185.5 333.8L85.8 323.54L57.35 388.26L171.66 400.03L192.84 351.86C196.86 342.72 206.65 335.98 214.72 336.81L257.27 341.19L278.45 293.02C282.47 283.88 292.26 277.15 300.33 277.98L342.82 282.35L399.72 152.97L342.62 147.09L293.02 259.93C289 269.07 279.2 275.81 271.13 274.98L249.7 272.77C238.04 271.57 233.3 259.89 239.1 246.68L270.5 175.24C278.76 156.44 272 139.82 255.41 138.11L192.26 131.61C180.6 130.41 175.85 118.73 181.66 105.53L192.32 81.27C196.34 72.13 206.14 65.4 214.21 66.23L313.91 76.49L342.36 11.77L228.05 0Z" fill="url(#paint2_linear_543_1455)"/>
</mask>
<g mask="url(#mask0_543_1455)">
<g filter="url(#filter0_f_543_1455)">
<ellipse cx="268.183" cy="310.942" rx="92.0733" ry="101.746" transform="rotate(-31.6856 268.183 310.942)" fill="#EAEAEA"/>
</g>
</g>
</g>
<defs>
<filter id="filter0_f_543_1455" x="88.3329" y="126.753" width="359.699" height="368.379" filterUnits="userSpaceOnUse" color-interpolation-filters="sRGB">
<feFlood flood-opacity="0" result="BackgroundImageFix"/>
<feBlend mode="normal" in="SourceGraphic" in2="BackgroundImageFix" result="shape"/>
<feGaussianBlur stdDeviation="42.5" result="effect1_foregroundBlur_543_1455"/>
</filter>
<linearGradient id="paint0_linear_543_1455" x1="310.27" y1="24.4257" x2="860.227" y2="551.404" gradientUnits="userSpaceOnUse">
<stop stop-color="#3B6EFF"/>
<stop offset="1" stop-color="#00E927"/>
</linearGradient>
<linearGradient id="paint1_linear_543_1455" x1="200" y1="177" x2="135.5" y2="217.5" gradientUnits="userSpaceOnUse">
<stop stop-color="#06E522"/>
<stop offset="0.49389" stop-color="#1FAA8F"/>
<stop offset="1" stop-color="#396DFE"/>
</linearGradient>
<linearGradient id="paint2_linear_543_1455" x1="214.5" y1="170" x2="150.5" y2="218.5" gradientUnits="userSpaceOnUse">
<stop stop-color="#06E522"/>
<stop offset="0.520833" stop-color="#00E727"/>
<stop offset="1" stop-color="#396DFE"/>
</linearGradient>
<clipPath id="clip0_543_1455">
<rect width="1265.55" height="1224.51" fill="white" transform="matrix(-1 0 0 1 1265.55 0)"/>
</clipPath>
<clipPath id="clip1_543_1455">
<rect width="399.71" height="400.04" fill="white"/>
</clipPath>
</defs>
</svg>
