<svg width="798" height="707" viewBox="0 0 798 707" fill="none" xmlns="http://www.w3.org/2000/svg">
<g clip-path="url(#clip0_184_1229)">
<path d="M117.64 142.22L503.435 432.698L539.103 349.7L153.308 59.2157L117.64 142.22Z" fill="#00E220"/>
<path d="M0.000152588 279.656L385.795 570.134L437.316 585.542L51.515 295.065L0.000152588 279.656Z" fill="#041A26"/>
<path d="M52.093 294.739L437.894 585.216L473.556 502.231L87.7608 211.747L52.093 294.739Z" fill="#00E927"/>
<path d="M153.308 59.2157L539.103 349.7L611.983 371.496L226.188 81.0181L153.308 59.2157Z" fill="#041A26"/>
<path d="M87.7612 211.747L473.557 502.231L546.437 524.027L160.641 233.549L87.7612 211.747Z" fill="#041A26"/>
<path d="M251.57 182.277L637.365 472.761L673.033 389.757L287.238 99.2792L251.57 182.277Z" fill="#00E220"/>
<path d="M186.029 334.796L571.825 625.28L607.486 542.288L221.691 251.81L186.029 334.796Z" fill="#00E220"/>
<path d="M287.238 99.2792L673.033 389.757L745.919 411.559L360.124 121.075L287.238 99.2792Z" fill="#041A26"/>
<path d="M360.69 120.756L746.485 411.24L771.695 352.571L385.9 62.0872L360.69 120.756Z" fill="#3B6EFF"/>
<path d="M221.691 251.81L607.486 542.288L680.366 564.09L294.571 273.606L221.691 251.81Z" fill="#041A26"/>
<path d="M233.89 415.814L619.685 706.298L644.895 647.636L259.1 357.152L233.89 415.814Z" fill="#3B6EFF"/>
<path d="M26.3048 353.727L412.106 644.205L619.685 706.298L233.89 415.814L26.3048 353.727Z" fill="#041A26"/>
<path d="M310.615 372.56L696.41 663.044L798 426.648L412.205 136.164L310.615 372.56Z" fill="#3B6EFF"/>
<path d="M259.1 357.152L644.895 647.636L696.41 663.044L310.614 372.56L259.1 357.152Z" fill="#041A26"/>
<path fill-rule="evenodd" clip-rule="evenodd" d="M153.307 58.9293L178.275 0L386.512 62.4251L361.045 121.354L287.637 98.8814L252.681 182.281L325.09 204.255L361.045 121.354L412.48 136.336L311.108 372.553L259.672 357.072L295.128 274.171L222.719 252.697L186.265 335.098L259.672 357.072L234.205 416.5L26.4666 354.075L51.9345 295.146L0 279.664L101.872 43.4479L153.307 58.9293ZM118.351 142.829L190.759 164.303L226.714 81.4024L153.307 58.9294L118.351 142.829ZM88.3885 212.245L160.797 233.72L125.342 317.12L51.9345 295.146L88.3885 212.245Z" fill="#EFEFEF"/>
<mask id="mask0_184_1229" style="mask-type:alpha" maskUnits="userSpaceOnUse" x="0" y="0" width="413" height="417">
<path fill-rule="evenodd" clip-rule="evenodd" d="M153.307 58.9293L178.275 0L386.512 62.4251L361.045 121.354L287.637 98.8814L252.681 182.281L325.09 204.255L361.045 121.354L412.48 136.336L311.108 372.553L259.672 357.072L295.128 274.171L222.719 252.697L186.265 335.098L259.672 357.072L234.205 416.5L26.4666 354.075L51.9345 295.146L0 279.664L101.872 43.4479L153.307 58.9293ZM118.351 142.829L190.759 164.303L226.714 81.4024L153.307 58.9294L118.351 142.829ZM88.3885 212.245L160.797 233.72L125.342 317.12L51.9345 295.146L88.3885 212.245Z" fill="#C4C4C4"/>
</mask>
<g mask="url(#mask0_184_1229)">
<g filter="url(#filter0_f_184_1229)">
<ellipse rx="336.318" ry="186.01" transform="matrix(0.973559 0.228435 -0.228459 0.973554 336.32 79.526)" fill="#00E927"/>
<ellipse cx="325.536" cy="394.26" rx="205.566" ry="159.726" fill="#EFEFEF"/>
<ellipse rx="244.726" ry="149.311" transform="matrix(0.77086 0.637004 -0.639459 0.768825 28.8476 247.286)" fill="#3B6EFF"/>
</g>
</g>
<mask id="mask1_184_1229" style="mask-type:alpha" maskUnits="userSpaceOnUse" x="0" y="0" width="798" height="707">
<path d="M117.64 142.22L503.435 432.698L539.103 349.7L153.308 59.2157L117.64 142.22Z" fill="#00E220"/>
<path d="M0.000152608 279.656L385.795 570.134L437.316 585.542L51.515 295.065L0.000152608 279.656Z" fill="#041A26"/>
<path d="M52.093 294.739L437.894 585.216L473.556 502.231L87.7608 211.747L52.093 294.739Z" fill="#00E927"/>
<path d="M153.308 59.2157L539.103 349.7L611.983 371.496L226.188 81.0181L153.308 59.2157Z" fill="#041A26"/>
<path d="M87.7612 211.747L473.557 502.231L546.437 524.027L160.641 233.549L87.7612 211.747Z" fill="#041A26"/>
<path d="M251.57 182.277L637.365 472.761L673.033 389.757L287.238 99.2792L251.57 182.277Z" fill="#00E220"/>
<path d="M186.029 334.796L571.825 625.28L607.486 542.288L221.691 251.81L186.029 334.796Z" fill="#00E220"/>
<path d="M287.238 99.2792L673.033 389.757L745.919 411.559L360.124 121.075L287.238 99.2792Z" fill="#041A26"/>
<path d="M360.69 120.756L746.485 411.24L771.695 352.571L385.9 62.0872L360.69 120.756Z" fill="#3B6EFF"/>
<path d="M221.691 251.81L607.486 542.288L680.366 564.09L294.571 273.606L221.691 251.81Z" fill="#041A26"/>
<path d="M233.89 415.814L619.685 706.298L644.895 647.636L259.1 357.152L233.89 415.814Z" fill="#3B6EFF"/>
<path d="M26.3048 353.727L412.106 644.205L619.685 706.298L233.89 415.814L26.3048 353.727Z" fill="#041A26"/>
<path d="M310.615 372.56L696.41 663.044L798 426.648L412.205 136.164L310.615 372.56Z" fill="#3B6EFF"/>
<path d="M259.1 357.152L644.895 647.636L696.41 663.044L310.614 372.56L259.1 357.152Z" fill="#041A26"/>
<path fill-rule="evenodd" clip-rule="evenodd" d="M153.307 58.9293L178.275 0L386.512 62.4251L361.045 121.354L287.637 98.8814L252.681 182.281L325.09 204.255L361.045 121.354L412.48 136.336L311.108 372.553L259.672 357.072L295.128 274.171L222.719 252.697L186.265 335.098L259.672 357.072L234.205 416.5L26.4666 354.075L51.9345 295.146L0 279.664L101.872 43.4479L153.307 58.9293ZM118.351 142.829L190.759 164.303L226.714 81.4024L153.307 58.9294L118.351 142.829ZM88.3885 212.245L160.797 233.72L125.342 317.12L51.9345 295.146L88.3885 212.245Z" fill="#EFEFEF"/>
<mask id="mask2_184_1229" style="mask-type:alpha" maskUnits="userSpaceOnUse" x="0" y="0" width="413" height="417">
<path fill-rule="evenodd" clip-rule="evenodd" d="M153.307 58.9293L178.275 0L386.512 62.4251L361.045 121.354L287.637 98.8814L252.681 182.281L325.09 204.255L361.045 121.354L412.48 136.336L311.108 372.553L259.672 357.072L295.128 274.171L222.719 252.697L186.265 335.098L259.672 357.072L234.205 416.5L26.4666 354.075L51.9345 295.146L0 279.664L101.872 43.4479L153.307 58.9293ZM118.351 142.829L190.759 164.303L226.714 81.4024L153.307 58.9294L118.351 142.829ZM88.3885 212.245L160.797 233.72L125.342 317.12L51.9345 295.146L88.3885 212.245Z" fill="#C4C4C4"/>
</mask>
<g mask="url(#mask2_184_1229)">
<ellipse rx="336.318" ry="186.01" transform="matrix(0.973559 0.228435 -0.228459 0.973554 336.32 79.526)" fill="#00E927"/>
<ellipse cx="325.536" cy="394.26" rx="205.566" ry="159.726" fill="#EFEFEF"/>
<ellipse rx="244.726" ry="149.311" transform="matrix(0.77086 0.637004 -0.639459 0.768825 28.8476 247.286)" fill="#3B6EFF"/>
</g>
</mask>
<g mask="url(#mask1_184_1229)">
<rect width="798" height="706" fill="url(#paint0_linear_184_1229)"/>
</g>
</g>
<defs>
<filter id="filter0_f_184_1229" x="-272.633" y="-207.239" width="1029.16" height="851.224" filterUnits="userSpaceOnUse" color-interpolation-filters="sRGB">
<feFlood flood-opacity="0" result="BackgroundImageFix"/>
<feBlend mode="normal" in="SourceGraphic" in2="BackgroundImageFix" result="shape"/>
<feGaussianBlur stdDeviation="45" result="effect1_foregroundBlur_184_1229"/>
</filter>
<linearGradient id="paint0_linear_184_1229" x1="399" y1="403.249" x2="399" y2="706" gradientUnits="userSpaceOnUse">
<stop stop-color="#041A26" stop-opacity="0"/>
<stop offset="1" stop-color="#041A26"/>
</linearGradient>
<clipPath id="clip0_184_1229">
<rect width="798" height="706.298" fill="white" transform="matrix(-1 0 0 1 798 0)"/>
</clipPath>
</defs>
</svg>
