<svg width="178" height="178" viewBox="0 0 178 178" fill="none" xmlns="http://www.w3.org/2000/svg">
<path d="M62.9134 147.825V167.228H53.151C29.7456 167.234 10.7659 148.254 10.7659 124.843V115.067H30.1561C33.8378 115.067 36.8268 118.056 36.8268 121.738V141.154H56.2426C59.9244 141.154 62.9134 144.143 62.9134 147.825Z" fill="#3B6EFF"/>
<path d="M36.8268 62.9263H10.7659V53.151C10.7659 29.7456 29.7456 10.766 53.151 10.766H62.9134V36.8397H108.416C112.098 36.8397 115.087 39.8223 115.087 43.5041V53.2921C115.087 58.6095 110.776 62.9263 105.452 62.9263H76.6334C69.0582 62.9263 62.9198 69.0647 62.9198 76.6398V105.433C62.9198 110.757 58.6095 115.067 53.2857 115.067H43.4976C39.8159 115.067 36.8268 112.085 36.8268 108.403V62.9263Z" fill="#3B6EFF"/>
<path d="M167.234 53.151V62.9263H147.811C144.13 62.9263 141.147 59.9372 141.147 56.2555V36.8397H121.757C118.069 36.8397 115.086 33.8507 115.086 30.1689V10.766H124.842C148.254 10.766 167.234 29.7456 167.234 53.151Z" fill="#3B6EFF"/>
<path d="M141.147 115.074H167.234V124.849C167.234 148.261 148.254 167.234 124.849 167.234H115.093V141.16H69.5839C65.9022 141.16 62.9131 138.178 62.9131 134.49V124.708C62.9131 119.39 67.2235 115.074 72.5473 115.074H101.366C108.941 115.074 115.086 108.935 115.086 101.36V72.5604C115.086 67.2366 119.397 62.9263 124.72 62.9263H134.476C138.158 62.9263 141.147 65.9089 141.147 69.5906V115.074Z" fill="#3B6EFF"/>
</svg>
