<svg width="125" height="34" viewBox="0 0 125 34" fill="none" xmlns="http://www.w3.org/2000/svg">
<path d="M51.6769 16.6897C51.015 16.1709 50.2814 15.751 49.4992 15.4432C48.5886 15.0824 47.6465 14.8074 46.685 14.6218C46.2455 14.5493 45.8109 14.4498 45.3835 14.3241C45.0002 14.2144 44.6303 14.0622 44.2807 13.8704C43.9909 13.7163 43.7321 13.5099 43.5172 13.2615C43.3271 13.0308 43.2267 12.7391 43.2343 12.4401C43.2259 12.1016 43.3459 11.7725 43.5702 11.5192C43.8301 11.2427 44.1565 11.0377 44.5181 10.9238C44.9884 10.7722 45.4806 10.7003 45.9745 10.7113C46.5177 10.7097 47.0576 10.7951 47.5739 10.9643C48.0973 11.1367 48.5927 11.3847 49.0446 11.7005C49.5292 12.0434 49.9626 12.4537 50.3317 12.9191L53.2511 9.9767C52.2984 8.53713 50.8552 7.49421 49.1911 7.04272C48.2578 6.76891 47.1407 6.63201 45.8398 6.63201C44.8798 6.62863 43.9253 6.77662 43.0112 7.07055C42.1467 7.341 41.3365 7.76209 40.618 8.31447C39.9444 8.83649 39.386 9.49261 38.9781 10.2415C38.5712 10.9935 38.362 11.8369 38.3703 12.6923C38.3589 13.4614 38.4931 14.2258 38.766 14.9448C39.0327 15.6202 39.4429 16.2294 39.9681 16.7302C40.5588 17.2851 41.2427 17.7311 41.9884 18.0475C42.9089 18.4418 43.8655 18.7454 44.8447 18.9541C45.2404 19.03 45.6271 19.1196 46.0048 19.2231C46.3702 19.3231 46.729 19.4462 47.0789 19.5916C47.3866 19.7166 47.6806 19.8732 47.9561 20.0588C48.1878 20.2155 48.3849 20.4181 48.5353 20.6542C48.6776 20.8836 48.7512 21.1491 48.7474 21.4192C48.7591 21.7667 48.6387 22.1058 48.4107 22.3679C48.1862 22.6232 47.8657 22.8169 47.4493 22.949C47.0004 23.0862 46.533 23.153 46.0637 23.1472C45.043 23.1469 44.0345 22.9245 43.1081 22.4953C42.2101 22.0871 41.3186 21.3109 40.4336 20.1668L37.3525 23.261C37.9799 24.0593 38.7125 24.7686 39.5303 25.3694C40.3735 25.9805 41.316 26.4407 42.3159 26.7297C43.3614 27.0468 44.5349 27.2053 45.8364 27.2053C47.3449 27.2053 48.6789 26.9551 49.8384 26.4547C50.9979 25.9544 51.9124 25.2271 52.5819 24.273C53.2503 23.3172 53.5848 22.1509 53.5853 20.774C53.5853 19.8862 53.4204 19.107 53.0904 18.4363C52.7539 17.7565 52.2712 17.16 51.6769 16.6897Z" fill="#F5F5F5"/>
<path d="M65.7748 20.855C65.7794 21.2106 65.7121 21.5634 65.577 21.8923C65.448 22.1993 65.2607 22.4782 65.0256 22.7137C64.7833 22.9541 64.4946 23.1424 64.177 23.2669C63.8298 23.4019 63.4601 23.4692 63.0877 23.4651C62.6109 23.4788 62.1402 23.3559 61.7307 23.1109C61.3502 22.8721 61.0536 22.5204 60.8821 22.1048C60.693 21.6702 60.5987 21.1507 60.5993 20.5463V11.8734H56.0459V21.1661C56.0459 22.4317 56.258 23.5179 56.6823 24.4248C57.1066 25.3317 57.7099 26.0258 58.4922 26.507C59.274 26.9883 60.2213 27.2292 61.3342 27.2298C62.1432 27.2342 62.9437 27.0651 63.682 26.7339C64.3948 26.4189 65.0387 25.9664 65.577 25.4022C65.7031 25.2681 65.8219 25.1274 65.9331 24.9806L66.0576 26.9152H70.3282V11.8734H65.7748V20.855Z" fill="#F5F5F5"/>
<path d="M85.3726 12.5674C84.3624 11.8967 83.2077 11.5613 81.9085 11.5613C81.2938 11.5605 80.6828 11.6561 80.0977 11.8447C79.5267 12.0277 78.984 12.29 78.4857 12.6239C78.1446 12.852 77.8315 13.1195 77.5529 13.4209V7.04187H72.9995V26.8899H77.2137L77.3273 25.2833C77.6364 25.6302 77.9919 25.9324 78.3838 26.1815C79.4718 26.8684 80.7319 27.2319 82.0179 27.2298C83.2247 27.2467 84.4081 26.8959 85.4113 26.2237C86.4108 25.5535 87.1982 24.6281 87.7735 23.4474C88.3487 22.2667 88.636 20.9115 88.6355 19.3816C88.6355 17.8704 88.3434 16.5244 87.7591 15.3437C87.1749 14.163 86.3794 13.2376 85.3726 12.5674ZM83.7891 21.4925C83.5361 22.062 83.1276 22.5482 82.6106 22.895C82.0812 23.2395 81.4604 23.4159 80.8293 23.401C80.1317 23.401 79.5284 23.2323 79.0194 22.895C78.5027 22.5456 78.092 22.0604 77.8324 21.4925C77.5518 20.8971 77.4115 20.1943 77.4115 19.3842C77.4115 18.5903 77.5518 17.8915 77.8324 17.2876C78.0848 16.7186 78.4977 16.2358 79.0202 15.8986C79.5287 15.5782 80.132 15.4177 80.8301 15.4171C81.4577 15.4034 82.076 15.5705 82.6114 15.8986C83.1339 16.2333 83.5444 16.7171 83.79 17.2876C84.0627 17.892 84.1994 18.5909 84.1999 19.3842C84.1994 20.1949 84.0624 20.8977 83.7891 21.4925Z" fill="#F5F5F5"/>
<path d="M108.512 7.00224H103.592L99.9156 17.1173C99.635 17.8729 99.3993 18.5195 99.2085 19.057C99.0177 19.5944 98.8479 20.1139 98.6992 20.6154L98.6781 20.6871C98.5999 20.4114 98.5182 20.1364 98.4306 19.8649C98.3077 19.4871 98.1674 19.0809 98.0097 18.6462C97.852 18.2116 97.6587 17.7017 97.4297 17.1164L93.6079 7.00224H88.6016L96.5206 26.8351H100.537L106.803 11.2518H112.534V26.8351H117.341V11.2518H123.365V7.00224H108.512Z" fill="#F5F5F5"/>
<path d="M26.4106 2.09231H6.55963V7.02754H1.6333V26.9144H6.55963V31.8496H26.4106V26.9144H31.3369V7.02754H26.4106V2.09231ZM26.3735 7.06802V14.0492H19.405V7.06465L26.3735 7.06802ZM13.5661 14.0492H6.59667V7.06465H13.5661V14.0492ZM6.59667 26.8781V19.8961H13.5661V26.8781H6.59667ZM19.405 19.8961H26.3735V26.8781H19.405V19.8961Z" fill="#F5F5F5"/>
</svg>
