<svg width="14" height="14" viewBox="0 0 14 14" fill="none" xmlns="http://www.w3.org/2000/svg">
<path fill-rule="evenodd" clip-rule="evenodd" d="M7 1.33334C7.55228 1.33334 8 1.78106 8 2.33334V11.6667C8 12.219 7.55228 12.6667 7 12.6667C6.44772 12.6667 6 12.219 6 11.6667V2.33334C6 1.78106 6.44772 1.33334 7 1.33334Z" fill="#F15A29"/>
<path fill-rule="evenodd" clip-rule="evenodd" d="M2.20956 6.87624C2.60008 6.48571 3.23325 6.48571 3.62377 6.87624L7 10.2525L10.3762 6.87624C10.7667 6.48571 11.3999 6.48571 11.7904 6.87624C12.181 7.26676 12.181 7.89993 11.7904 8.29045L7.7071 12.3738C7.31658 12.7643 6.68342 12.7643 6.29289 12.3738L2.20956 8.29045C1.81903 7.89993 1.81903 7.26676 2.20956 6.87624Z" fill="#F15A29"/>
</svg>
