<svg width="24" height="24" viewBox="0 0 24 24" fill="none" xmlns="http://www.w3.org/2000/svg">
<path fill-rule="evenodd" clip-rule="evenodd" d="M2.99999 12C2.99999 11.4477 3.44771 11 3.99999 11L20 11C20.5523 11 21 11.4477 21 12C21 12.5523 20.5523 13 20 13L3.99999 13C3.44771 13 2.99999 12.5523 2.99999 12Z" fill="#F15A29"/>
<path fill-rule="evenodd" clip-rule="evenodd" d="M12.2929 19.7071C11.9024 19.3166 11.9024 18.6834 12.2929 18.2929L18.5858 12L12.2929 5.7071C11.9024 5.31658 11.9024 4.68342 12.2929 4.29289C12.6834 3.90237 13.3166 3.90237 13.7071 4.29289L20.7071 11.2929C20.8946 11.4804 21 11.7348 21 12C21 12.2652 20.8946 12.5196 20.7071 12.7071L13.7071 19.7071C13.3166 20.0976 12.6834 20.0976 12.2929 19.7071Z" fill="#F15A29"/>
</svg>
