<svg width="256" height="189" viewBox="0 0 256 189" fill="none" xmlns="http://www.w3.org/2000/svg">
<g opacity="0.5" filter="url(#filter0_f_205_3585)">
<rect x="22" y="48" width="214" height="121" rx="12" fill="#041A26"/>
</g>
<rect x="4" width="212" height="145" rx="12" fill="#0E2938"/>
<path d="M25.75 37.8261V27.2348H29.7477C30.4746 27.2348 31.1358 27.366 31.7314 27.6282C32.3371 27.8804 32.8621 28.2435 33.3063 28.7176C33.7505 29.1917 34.0937 29.7515 34.336 30.3971C34.5783 31.0427 34.6994 31.7538 34.6994 32.5305C34.6994 33.3072 34.5783 34.0234 34.336 34.679C34.0937 35.3246 33.7505 35.8844 33.3063 36.3585C32.8722 36.8225 32.3523 37.1856 31.7466 37.4479C31.1409 37.7 30.4746 37.8261 29.7477 37.8261H25.75ZM26.9311 36.888L26.7949 36.6762H29.672C30.2272 36.6762 30.737 36.5804 31.2014 36.3887C31.6759 36.187 32.0797 35.9046 32.4129 35.5414C32.7561 35.1682 33.0186 34.7294 33.2003 34.2251C33.3921 33.7207 33.488 33.1559 33.488 32.5305C33.488 31.9051 33.3921 31.3402 33.2003 30.8359C33.0186 30.3315 32.7561 29.8978 32.4129 29.5347C32.0696 29.1614 31.6658 28.879 31.2014 28.6874C30.737 28.4856 30.2272 28.3847 29.672 28.3847H26.7494L26.9311 28.2032V36.888Z" fill="#F5F5F5"/>
<path d="M40.0473 37.9774C39.2599 37.9774 38.5583 37.8009 37.9425 37.4479C37.3368 37.0948 36.8572 36.6056 36.5039 35.9802C36.1607 35.3548 35.9891 34.6437 35.9891 33.8468C35.9891 33.06 36.1607 32.359 36.5039 31.7437C36.8572 31.1284 37.3368 30.6442 37.9425 30.2912C38.5583 29.9381 39.2599 29.7616 40.0473 29.7616C40.8247 29.7616 41.5162 29.9381 42.1219 30.2912C42.7377 30.6442 43.2172 31.1284 43.5605 31.7437C43.9138 32.359 44.0905 33.06 44.0905 33.8468C44.0905 34.6437 43.9138 35.3548 43.5605 35.9802C43.2172 36.6056 42.7377 37.0948 42.1219 37.4479C41.5162 37.8009 40.8247 37.9774 40.0473 37.9774ZM40.0473 36.9032C40.6026 36.9032 41.0972 36.772 41.5313 36.5098C41.9654 36.2374 42.3036 35.8743 42.5459 35.4204C42.7882 34.9564 42.9093 34.4319 42.9093 33.8468C42.9093 33.2618 42.7882 32.7423 42.5459 32.2884C42.3036 31.8345 41.9654 31.4814 41.5313 31.2293C41.0972 30.967 40.6026 30.8359 40.0473 30.8359C39.4921 30.8359 38.9924 30.967 38.5482 31.2293C38.1141 31.4814 37.7709 31.8395 37.5185 32.3035C37.2762 32.7574 37.1601 33.2719 37.1702 33.8468C37.1601 34.4319 37.2762 34.9564 37.5185 35.4204C37.7709 35.8743 38.1141 36.2374 38.5482 36.5098C38.9924 36.772 39.4921 36.9032 40.0473 36.9032Z" fill="#F5F5F5"/>
<path d="M47.3143 37.8261L44.5734 29.928L45.7848 29.9129L47.92 36.3434L47.5414 36.3131L49.8583 31.1385H50.5397L52.8717 36.3131L52.4174 36.3434L54.598 29.928H55.7943L53.0534 37.8261H52.3871L49.934 32.1976L50.3883 32.2279L48.0108 37.8261H47.3143Z" fill="#F5F5F5"/>
<path d="M57.1342 37.8261V29.928H58.2547L58.3002 31.5773L58.1184 31.6529C58.2194 31.31 58.4163 30.9973 58.709 30.7148C59.0018 30.4324 59.3501 30.2054 59.7539 30.034C60.1678 29.8524 60.5918 29.7616 61.0259 29.7616C61.6114 29.7616 62.101 29.8776 62.4947 30.1096C62.8884 30.3416 63.1863 30.6997 63.3882 31.1839C63.5901 31.668 63.691 32.2834 63.691 33.0298V37.8261H62.5402V33.0903C62.5402 32.5658 62.4695 32.1371 62.3282 31.8042C62.1969 31.4613 61.99 31.2091 61.7073 31.0477C61.4246 30.8863 61.0763 30.8107 60.6624 30.8207C60.3192 30.8207 60.0012 30.8813 59.7084 31.0023C59.4157 31.1133 59.1633 31.2696 58.9513 31.4714C58.7393 31.6731 58.5727 31.9051 58.4516 32.1674C58.3304 32.4296 58.2699 32.712 58.2699 33.0147V37.8261H57.7096C57.6389 37.8261 57.5582 37.8261 57.4673 37.8261C57.3764 37.8261 57.2654 37.8261 57.1342 37.8261Z" fill="#F5F5F5"/>
<path d="M65.8893 37.8261V26.6296H67.025V37.8261H65.8893Z" fill="#F5F5F5"/>
<path d="M72.6104 37.9774C71.823 37.9774 71.1213 37.8009 70.5055 37.4479C69.8998 37.0948 69.4203 36.6056 69.067 35.9802C68.7237 35.3548 68.5521 34.6437 68.5521 33.8468C68.5521 33.06 68.7237 32.359 69.067 31.7437C69.4203 31.1284 69.8998 30.6442 70.5055 30.2912C71.1213 29.9381 71.823 29.7616 72.6104 29.7616C73.3877 29.7616 74.0792 29.9381 74.685 30.2912C75.3008 30.6442 75.7803 31.1284 76.1235 31.7437C76.4769 32.359 76.6535 33.06 76.6535 33.8468C76.6535 34.6437 76.4769 35.3548 76.1235 35.9802C75.7803 36.6056 75.3008 37.0948 74.685 37.4479C74.0792 37.8009 73.3877 37.9774 72.6104 37.9774ZM72.6104 36.9032C73.1656 36.9032 73.6603 36.772 74.0944 36.5098C74.5285 36.2374 74.8667 35.8743 75.109 35.4204C75.3512 34.9564 75.4724 34.4319 75.4724 33.8468C75.4724 33.2618 75.3512 32.7423 75.109 32.2884C74.8667 31.8345 74.5285 31.4814 74.0944 31.2293C73.6603 30.967 73.1656 30.8359 72.6104 30.8359C72.0552 30.8359 71.5554 30.967 71.1112 31.2293C70.6772 31.4814 70.3339 31.8395 70.0815 32.3035C69.8393 32.7574 69.7232 33.2719 69.7332 33.8468C69.7232 34.4319 69.8393 34.9564 70.0815 35.4204C70.3339 35.8743 70.6772 36.2374 71.1112 36.5098C71.5554 36.772 72.0552 36.9032 72.6104 36.9032Z" fill="#F5F5F5"/>
<path d="M81.3996 37.9774C80.7132 37.9774 80.0923 37.8009 79.5371 37.4479C78.9818 37.0847 78.5427 36.5955 78.2196 35.9802C77.8966 35.3548 77.7351 34.6487 77.7351 33.862C77.7351 33.0651 77.9016 32.359 78.2348 31.7437C78.5679 31.1284 79.0121 30.6442 79.5674 30.2912C80.1327 29.9381 80.7636 29.7616 81.4602 29.7616C81.8741 29.7616 82.2577 29.8221 82.6111 29.9432C82.9644 30.0642 83.2774 30.2357 83.5499 30.4576C83.8326 30.6694 84.0648 30.9216 84.2465 31.2141C84.4383 31.4966 84.5695 31.8042 84.6402 32.1371L84.3071 31.9707L84.3525 29.928H85.4882V37.8261H84.3374V35.8894L84.6402 35.6927C84.5695 35.9954 84.4333 36.2879 84.2314 36.5703C84.0294 36.8427 83.7821 37.0847 83.4893 37.2966C83.2067 37.5084 82.8836 37.6748 82.5202 37.7959C82.1669 37.9169 81.7934 37.9774 81.3996 37.9774ZM81.6571 36.888C82.182 36.888 82.6514 36.762 83.0654 36.5098C83.4793 36.2475 83.8023 35.8894 84.0345 35.4355C84.2768 34.9715 84.3979 34.447 84.3979 33.862C84.3979 33.2769 84.2768 32.7574 84.0345 32.3035C83.8023 31.8496 83.4793 31.4915 83.0654 31.2293C82.6514 30.967 82.182 30.8359 81.6571 30.8359C81.122 30.8359 80.6475 30.967 80.2336 31.2293C79.8298 31.4915 79.5068 31.8496 79.2645 32.3035C79.0323 32.7574 78.9162 33.2769 78.9162 33.862C78.9162 34.4369 79.0323 34.9564 79.2645 35.4204C79.4967 35.8743 79.8197 36.2324 80.2336 36.4947C80.6475 36.7569 81.122 36.888 81.6571 36.888Z" fill="#F5F5F5"/>
<path d="M90.9111 37.9774C90.1944 37.9774 89.5483 37.8009 88.9728 37.4479C88.4075 37.0948 87.9583 36.6107 87.6251 35.9954C87.3021 35.37 87.1406 34.6639 87.1406 33.8771C87.1406 33.0802 87.3071 32.3741 87.6403 31.7588C87.9734 31.1334 88.4227 30.6442 88.988 30.2912C89.5533 29.9381 90.1893 29.7616 90.896 29.7616C91.2897 29.7616 91.6683 29.8221 92.0317 29.9432C92.4052 30.0642 92.7384 30.2357 93.0311 30.4576C93.3239 30.6694 93.5662 30.9166 93.758 31.199C93.9498 31.4714 94.0659 31.7588 94.1063 32.0614L93.758 31.9404V26.6296H94.8937V37.8261H93.7731L93.7428 35.8592L94.0306 35.7533C93.9902 36.0357 93.8741 36.3131 93.6823 36.5854C93.5006 36.8477 93.2684 37.0847 92.9857 37.2966C92.703 37.5084 92.38 37.6748 92.0166 37.7959C91.6632 37.9169 91.2947 37.9774 90.9111 37.9774ZM91.0777 36.9334C91.6027 36.9334 92.0721 36.8023 92.486 36.54C92.8999 36.2778 93.2229 35.9147 93.4551 35.4507C93.6974 34.9867 93.8186 34.4571 93.8186 33.862C93.8186 33.2668 93.6974 32.7423 93.4551 32.2884C93.2229 31.8244 92.8999 31.4613 92.486 31.199C92.0721 30.9267 91.6027 30.7905 91.0777 30.7905C90.5326 30.7905 90.053 30.9267 89.6391 31.199C89.2353 31.4613 88.9123 31.8244 88.67 32.2884C88.4378 32.7423 88.3217 33.2668 88.3217 33.862C88.3217 34.447 88.4378 34.9715 88.67 35.4355C88.9022 35.8995 89.2252 36.2677 89.6391 36.54C90.053 36.8023 90.5326 36.9334 91.0777 36.9334Z" fill="#F5F5F5"/>
<path d="M101.804 37.8261V27.2348H106.105C106.721 27.2348 107.251 27.3458 107.695 27.5677C108.149 27.7795 108.498 28.0872 108.74 28.4907C108.982 28.884 109.103 29.3531 109.103 29.8978C109.103 30.4828 108.937 30.9872 108.604 31.4108C108.27 31.8244 107.816 32.1119 107.241 32.2733L107.21 31.9858C107.705 32.0766 108.134 32.2531 108.498 32.5154C108.861 32.7675 109.144 33.0802 109.346 33.4534C109.558 33.8267 109.664 34.2453 109.664 34.7093C109.664 35.1834 109.583 35.612 109.421 35.9954C109.26 36.3787 109.028 36.7065 108.725 36.9788C108.432 37.2512 108.074 37.463 107.65 37.6143C107.236 37.7555 106.771 37.8261 106.256 37.8261H101.804ZM102.986 36.6762H106.166C106.62 36.6762 107.014 36.6006 107.347 36.4493C107.69 36.2879 107.952 36.0609 108.134 35.7684C108.326 35.4759 108.422 35.138 108.422 34.7547C108.422 34.3915 108.321 34.0738 108.119 33.8014C107.927 33.5291 107.655 33.3173 107.301 33.166C106.958 33.0147 106.554 32.939 106.09 32.939H102.986V36.6762ZM102.986 31.7891H106.014C106.378 31.7891 106.701 31.7185 106.983 31.5773C107.266 31.426 107.488 31.2242 107.65 30.972C107.811 30.7098 107.892 30.4173 107.892 30.0945C107.892 29.58 107.715 29.1665 107.362 28.8538C107.019 28.5411 106.534 28.3847 105.908 28.3847H102.986V31.7891Z" fill="#F5F5F5"/>
<path d="M114.584 37.9774C113.897 37.9774 113.276 37.8009 112.721 37.4479C112.166 37.0847 111.727 36.5955 111.404 35.9802C111.081 35.3548 110.919 34.6487 110.919 33.862C110.919 33.0651 111.086 32.359 111.419 31.7437C111.752 31.1284 112.196 30.6442 112.752 30.2912C113.317 29.9381 113.948 29.7616 114.644 29.7616C115.058 29.7616 115.442 29.8221 115.795 29.9432C116.149 30.0642 116.461 30.2357 116.734 30.4576C117.017 30.6694 117.249 30.9216 117.431 31.2141C117.622 31.4966 117.754 31.8042 117.824 32.1371L117.491 31.9707L117.537 29.928H118.672V37.8261H117.521V35.8894L117.824 35.6927C117.754 35.9954 117.617 36.2879 117.415 36.5703C117.214 36.8427 116.966 37.0847 116.674 37.2966C116.391 37.5084 116.068 37.6748 115.704 37.7959C115.351 37.9169 114.977 37.9774 114.584 37.9774ZM114.841 36.888C115.366 36.888 115.836 36.762 116.249 36.5098C116.663 36.2475 116.986 35.8894 117.219 35.4355C117.461 34.9715 117.582 34.447 117.582 33.862C117.582 33.2769 117.461 32.7574 117.219 32.3035C116.986 31.8496 116.663 31.4915 116.249 31.2293C115.836 30.967 115.366 30.8359 114.841 30.8359C114.306 30.8359 113.832 30.967 113.418 31.2293C113.014 31.4915 112.691 31.8496 112.449 32.3035C112.216 32.7574 112.1 33.2769 112.1 33.862C112.1 34.4369 112.216 34.9564 112.449 35.4204C112.681 35.8743 113.004 36.2324 113.418 36.4947C113.832 36.7569 114.306 36.888 114.841 36.888Z" fill="#F5F5F5"/>
<path d="M120.885 37.8261V29.928H122.006L122.051 31.5773L121.869 31.6529C121.97 31.31 122.167 30.9973 122.46 30.7148C122.753 30.4324 123.101 30.2054 123.505 30.034C123.919 29.8524 124.343 29.7616 124.777 29.7616C125.362 29.7616 125.852 29.8776 126.246 30.1096C126.639 30.3416 126.937 30.6997 127.139 31.1839C127.341 31.668 127.442 32.2834 127.442 33.0298V37.8261H126.291V33.0903C126.291 32.5658 126.22 32.1371 126.079 31.8042C125.948 31.4613 125.741 31.2091 125.458 31.0477C125.175 30.8863 124.827 30.8107 124.413 30.8207C124.07 30.8207 123.752 30.8813 123.459 31.0023C123.167 31.1133 122.914 31.2696 122.702 31.4714C122.49 31.6731 122.324 31.9051 122.202 32.1674C122.081 32.4296 122.021 32.712 122.021 33.0147V37.8261H121.46C121.39 37.8261 121.309 37.8261 121.218 37.8261C121.127 37.8261 121.016 37.8261 120.885 37.8261Z" fill="#F5F5F5"/>
<path d="M132.82 37.9774C132.103 37.9774 131.457 37.8009 130.882 37.4479C130.317 37.0948 129.867 36.6107 129.534 35.9954C129.211 35.37 129.05 34.6639 129.05 33.8771C129.05 33.0802 129.216 32.3741 129.549 31.7588C129.882 31.1334 130.332 30.6442 130.897 30.2912C131.462 29.9381 132.098 29.7616 132.805 29.7616C133.199 29.7616 133.577 29.8221 133.941 29.9432C134.314 30.0642 134.647 30.2357 134.94 30.4576C135.233 30.6694 135.475 30.9166 135.667 31.199C135.859 31.4714 135.975 31.7588 136.015 32.0614L135.667 31.9404V26.6296H136.803V37.8261H135.682L135.652 35.8592L135.94 35.7533C135.899 36.0357 135.783 36.3131 135.591 36.5854C135.41 36.8477 135.177 37.0847 134.895 37.2966C134.612 37.5084 134.289 37.6748 133.926 37.7959C133.572 37.9169 133.204 37.9774 132.82 37.9774ZM132.987 36.9334C133.512 36.9334 133.981 36.8023 134.395 36.54C134.809 36.2778 135.132 35.9147 135.364 35.4507C135.606 34.9867 135.728 34.4571 135.728 33.862C135.728 33.2668 135.606 32.7423 135.364 32.2884C135.132 31.8244 134.809 31.4613 134.395 31.199C133.981 30.9267 133.512 30.7905 132.987 30.7905C132.442 30.7905 131.962 30.9267 131.548 31.199C131.144 31.4613 130.821 31.8244 130.579 32.2884C130.347 32.7423 130.231 33.2668 130.231 33.862C130.231 34.447 130.347 34.9715 130.579 35.4355C130.811 35.8995 131.134 36.2677 131.548 36.54C131.962 36.8023 132.442 36.9334 132.987 36.9334Z" fill="#F5F5F5"/>
<path d="M140.878 37.8261L138.137 29.928L139.348 29.9129L141.483 36.3434L141.105 36.3131L143.422 31.1385H144.103L146.435 36.3131L145.981 36.3434L148.161 29.928H149.358L146.617 37.8261H145.95L143.497 32.1976L143.952 32.2279L141.574 37.8261H140.878Z" fill="#F5F5F5"/>
<path d="M151 37.8261V29.928H152.136V37.8261H151ZM151.561 28.2183C151.278 28.2183 151.061 28.1477 150.909 28.0065C150.768 27.8552 150.697 27.6534 150.697 27.4013C150.697 27.1491 150.773 26.9474 150.925 26.796C151.076 26.6447 151.288 26.5691 151.561 26.5691C151.833 26.5691 152.045 26.6447 152.197 26.796C152.348 26.9373 152.424 27.139 152.424 27.4013C152.424 27.6434 152.348 27.84 152.197 27.9914C152.045 28.1427 151.833 28.2183 151.561 28.2183Z" fill="#F5F5F5"/>
<path d="M157.827 37.9774C157.11 37.9774 156.464 37.8009 155.888 37.4479C155.323 37.0948 154.874 36.6107 154.541 35.9954C154.218 35.37 154.056 34.6639 154.056 33.8771C154.056 33.0802 154.223 32.3741 154.556 31.7588C154.889 31.1334 155.338 30.6442 155.903 30.2912C156.469 29.9381 157.105 29.7616 157.811 29.7616C158.205 29.7616 158.584 29.8221 158.947 29.9432C159.321 30.0642 159.654 30.2357 159.947 30.4576C160.239 30.6694 160.482 30.9166 160.673 31.199C160.865 31.4714 160.981 31.7588 161.022 32.0614L160.673 31.9404V26.6296H161.809V37.8261H160.689L160.658 35.8592L160.946 35.7533C160.906 36.0357 160.79 36.3131 160.598 36.5854C160.416 36.8477 160.184 37.0847 159.901 37.2966C159.618 37.5084 159.295 37.6748 158.932 37.7959C158.579 37.9169 158.21 37.9774 157.827 37.9774ZM157.993 36.9334C158.518 36.9334 158.988 36.8023 159.401 36.54C159.815 36.2778 160.138 35.9147 160.371 35.4507C160.613 34.9867 160.734 34.4571 160.734 33.862C160.734 33.2668 160.613 32.7423 160.371 32.2884C160.138 31.8244 159.815 31.4613 159.401 31.199C158.988 30.9267 158.518 30.7905 157.993 30.7905C157.448 30.7905 156.968 30.9267 156.555 31.199C156.151 31.4613 155.828 31.8244 155.585 32.2884C155.353 32.7423 155.237 33.2668 155.237 33.862C155.237 34.447 155.353 34.9715 155.585 35.4355C155.818 35.8995 156.141 36.2677 156.555 36.54C156.968 36.8023 157.448 36.9334 157.993 36.9334Z" fill="#F5F5F5"/>
<path d="M165.112 37.8261V27.8552H166.247V37.8261H165.112ZM163.325 31.0174V29.928H168.246V31.0174H163.325Z" fill="#F5F5F5"/>
<path d="M169.641 37.8261V26.6296H170.777V31.6529L170.549 31.8799C170.66 31.4663 170.867 31.1032 171.17 30.7905C171.473 30.4677 171.826 30.2155 172.23 30.034C172.644 29.8524 173.063 29.7616 173.487 29.7616C174.093 29.7616 174.598 29.8776 175.001 30.1096C175.405 30.3416 175.703 30.6997 175.895 31.1839C176.097 31.668 176.198 32.2834 176.198 33.0298V37.8261H175.047V33.0903C175.047 32.5658 174.976 32.1371 174.835 31.8042C174.704 31.4613 174.497 31.2091 174.214 31.0477C173.931 30.8863 173.578 30.8107 173.154 30.8207C172.821 30.8207 172.508 30.8813 172.215 31.0023C171.922 31.1133 171.67 31.2696 171.458 31.4714C171.246 31.6731 171.079 31.9051 170.958 32.1674C170.837 32.4296 170.777 32.712 170.777 33.0147V37.8261H170.216C170.146 37.8261 170.065 37.8261 169.974 37.8261C169.883 37.8261 169.772 37.8261 169.641 37.8261Z" fill="#F5F5F5"/>
<path d="M31.1566 82.2086C29.7769 82.2086 28.5739 81.9144 27.5475 81.326C26.538 80.7376 25.6042 79.7289 24.7461 78.2999L27.5223 76.5347C27.9093 77.1231 28.3047 77.6023 28.7085 77.9721C29.1123 78.342 29.5245 78.611 29.9451 78.7791C30.3826 78.9472 30.8369 79.0312 31.308 79.0312C31.8128 79.0312 32.2839 78.9136 32.7213 78.6782C33.1588 78.426 33.5037 78.0898 33.7561 77.6695C34.0253 77.2492 34.1599 76.7617 34.1599 76.2069C34.1599 75.6353 34.0505 75.1562 33.8318 74.7695C33.6131 74.3828 33.2934 74.0886 32.8728 73.8869C32.4521 73.6852 31.9558 73.5843 31.3837 73.5843C31.1313 73.5843 30.8537 73.6095 30.5509 73.6599C30.2648 73.7104 29.9536 73.7944 29.617 73.9121C29.2974 74.013 28.9524 74.1475 28.5823 74.3156L27.699 71.9704L32.368 66.8765L33.327 67.5573L25.907 67.4565V64.2034H36.5323L37.2137 65.5904L31.3837 71.8947L30.5256 70.8608C30.6602 70.7936 30.879 70.7347 31.1818 70.6843C31.5015 70.617 31.7875 70.5834 32.0399 70.5834C32.8139 70.5834 33.5374 70.7263 34.2104 71.0121C34.8834 71.2979 35.4807 71.693 36.0023 72.1973C36.5239 72.7017 36.9277 73.2901 37.2137 73.9625C37.5166 74.635 37.668 75.3579 37.668 76.1312C37.668 77.2912 37.3736 78.3336 36.7847 79.2582C36.2126 80.166 35.4302 80.8889 34.4375 81.4269C33.4617 81.9481 32.368 82.2086 31.1566 82.2086Z" fill="#F5F5F5"/>
<path d="M44.0101 81.9565L43.9091 81.7043L49.3605 70.5582L49.8905 72.2478C49.6718 72.8194 49.3774 73.3321 49.0072 73.786C48.637 74.2399 48.208 74.6434 47.7201 74.9965C47.2489 75.3327 46.7526 75.5933 46.231 75.7782C45.7094 75.9463 45.1962 76.0304 44.6915 76.0304C43.7324 76.0304 42.8491 75.7698 42.0415 75.2486C41.2339 74.7275 40.5861 74.0382 40.0982 73.1808C39.6102 72.3234 39.3662 71.382 39.3662 70.3565C39.3662 69.146 39.6439 68.0533 40.1991 67.0782C40.7712 66.1031 41.5451 65.3382 42.521 64.7834C43.4969 64.2118 44.5989 63.926 45.8272 63.926C46.7021 63.926 47.5266 64.0857 48.3005 64.4052C49.0745 64.7078 49.7559 65.1449 50.3448 65.7165C50.9337 66.2712 51.388 66.9101 51.7077 67.633C52.0442 68.3559 52.2124 69.1292 52.2124 69.953C52.2124 70.491 52.162 71.0373 52.061 71.5921C51.9601 72.1469 51.8086 72.7269 51.6067 73.3321C51.4048 73.9205 51.144 74.5678 50.8243 75.2739C50.5215 75.9631 50.1682 76.7281 49.7643 77.5686L47.5686 81.9565H44.0101ZM45.5748 72.9034C46.1469 72.9034 46.6516 72.7773 47.0891 72.5252C47.5266 72.273 47.8715 71.9368 48.1239 71.5165C48.3763 71.0794 48.5024 70.6002 48.5024 70.0791C48.5024 69.5075 48.3763 69.0031 48.1239 68.566C47.8883 68.1121 47.5518 67.7591 47.1143 67.5069C46.6769 67.2379 46.1721 67.1034 45.6001 67.1034C45.0785 67.1034 44.6074 67.2295 44.1867 67.4817C43.7829 67.7339 43.4548 68.0785 43.2024 68.5156C42.9669 68.9527 42.8491 69.4654 42.8491 70.0539C42.8491 70.5582 42.9669 71.0289 43.2024 71.466C43.4548 71.8863 43.7829 72.231 44.1867 72.4999C44.6074 72.7689 45.0701 72.9034 45.5748 72.9034Z" fill="#F5F5F5"/>
<path d="M61.8114 81.9565V67.6834L63.5781 67.7843L57.3695 75.3747L56.9404 74.7695H68.3985V77.9469H55.0981L53.5333 74.9712L62.4423 64.2034H65.4709V81.9565H61.8114Z" fill="#F5F5F5"/>
<path d="M72.4729 82.2339C71.8167 82.2339 71.312 82.0489 70.9586 81.6791C70.6053 81.3092 70.4286 80.7797 70.4286 80.0904C70.4286 79.4683 70.6137 78.964 70.9839 78.5773C71.3709 78.1739 71.8672 77.9721 72.4729 77.9721C73.1123 77.9721 73.6086 78.157 73.962 78.5269C74.3153 78.8968 74.492 79.4179 74.492 80.0904C74.492 80.7292 74.3069 81.2504 73.9367 81.6539C73.5666 82.0405 73.0786 82.2339 72.4729 82.2339Z" fill="#F5F5F5"/>
<path d="M80.9547 80.7208V66.3973L81.8885 68.0869L78.2037 69.8773L77.4718 66.5234L82.3933 64.0521H84.6899V80.7208H80.9547ZM77.8504 81.9565V78.5521H87.8699V81.9565H77.8504Z" fill="#F5F5F5"/>
<path d="M104.094 77.8209L103.968 74.9965L110.303 68.7174H113.811L104.094 77.8209ZM101.722 81.9565V63.2957H104.321V81.9565H101.722ZM110.656 81.9565L105.659 76.1313L107.501 74.4417L113.987 81.9565H110.656Z" fill="#A2A9AC"/>
<path d="M116.722 81.9565V64.3043H124.092C125.219 64.3043 126.17 64.4725 126.944 64.8087C127.718 65.1449 128.298 65.6493 128.685 66.3217C129.089 66.9774 129.291 67.7843 129.291 68.7426C129.291 69.7009 129.022 70.5162 128.483 71.1887C127.962 71.8612 127.23 72.3235 126.287 72.5757V72.0713C127.078 72.2394 127.768 72.542 128.357 72.9791C128.946 73.3994 129.4 73.929 129.72 74.5678C130.056 75.2067 130.225 75.938 130.225 76.7617C130.225 77.6023 130.09 78.3504 129.821 79.0061C129.568 79.6449 129.181 80.1829 128.66 80.62C128.155 81.0571 127.541 81.3933 126.817 81.6287C126.094 81.8472 125.269 81.9565 124.344 81.9565H116.722ZM119.448 79.3339H124.193C124.882 79.3339 125.463 79.233 125.934 79.0313C126.422 78.8296 126.792 78.5354 127.045 78.1487C127.314 77.7452 127.448 77.2661 127.448 76.7113C127.448 76.1901 127.305 75.7446 127.019 75.3748C126.75 75.0049 126.363 74.7275 125.858 74.5426C125.354 74.3409 124.756 74.24 124.066 74.24H119.448V79.3339ZM119.448 71.6174H123.94C124.445 71.6174 124.891 71.5165 125.278 71.3148C125.682 71.113 125.993 70.8357 126.212 70.4826C126.447 70.1296 126.565 69.7261 126.565 69.2722C126.565 68.5157 126.313 67.9357 125.808 67.5322C125.303 67.1287 124.58 66.927 123.637 66.927H119.448V71.6174Z" fill="#A2A9AC"/>
<path d="M130.871 85.2852L141.269 64.3043H143.768L133.395 85.2852H130.871Z" fill="#A2A9AC"/>
<path d="M149.935 82.2087C148.825 82.2087 147.824 82.0154 146.932 81.6287C146.04 81.242 145.3 80.6704 144.711 79.9139L146.478 78.4009C146.982 78.9893 147.529 79.418 148.118 79.687C148.724 79.9391 149.405 80.0652 150.162 80.0652C150.465 80.0652 150.743 80.0316 150.995 79.9643C151.265 79.8803 151.492 79.7626 151.677 79.6113C151.879 79.46 152.03 79.2835 152.131 79.0817C152.232 78.8632 152.282 78.6278 152.282 78.3757C152.282 77.9386 152.123 77.5855 151.803 77.3165C151.635 77.1988 151.365 77.0728 150.995 76.9383C150.642 76.787 150.179 76.6357 149.607 76.4843C148.631 76.2322 147.832 75.9464 147.21 75.627C146.587 75.3075 146.108 74.9461 145.771 74.5426C145.519 74.2232 145.334 73.8786 145.216 73.5087C145.098 73.122 145.039 72.7017 145.039 72.2478C145.039 71.693 145.157 71.1887 145.392 70.7348C145.645 70.2641 145.981 69.8606 146.402 69.5243C146.839 69.1713 147.344 68.9023 147.916 68.7174C148.505 68.5325 149.128 68.44 149.784 68.44C150.406 68.44 151.021 68.5241 151.626 68.6922C152.249 68.8603 152.821 69.1041 153.342 69.4235C153.864 69.7429 154.302 70.1212 154.655 70.5583L153.166 72.1974C152.846 71.878 152.493 71.6006 152.106 71.3652C151.736 71.113 151.357 70.9197 150.97 70.7852C150.583 70.6507 150.23 70.5835 149.91 70.5835C149.557 70.5835 149.237 70.6171 148.951 70.6843C148.665 70.7516 148.421 70.8525 148.219 70.987C148.034 71.1215 147.891 71.2896 147.79 71.4913C147.689 71.693 147.639 71.92 147.639 72.1722C147.655 72.3907 147.706 72.6009 147.79 72.8026C147.891 72.9875 148.026 73.1472 148.194 73.2817C148.379 73.4162 148.657 73.5591 149.027 73.7104C149.397 73.8617 149.868 74.0046 150.44 74.1391C151.281 74.3577 151.971 74.6014 152.51 74.8704C153.065 75.1226 153.502 75.4168 153.822 75.753C154.158 76.0725 154.394 76.4423 154.529 76.8626C154.663 77.2829 154.731 77.7536 154.731 78.2748C154.731 79.0313 154.512 79.7122 154.074 80.3174C153.654 80.9058 153.082 81.3681 152.358 81.7043C151.635 82.0406 150.827 82.2087 149.935 82.2087Z" fill="#A2A9AC"/>
<path fill-rule="evenodd" clip-rule="evenodd" d="M192.384 91.2309C185.984 94.1176 179.054 97.2438 171.15 99.7773C139.943 109.78 115.389 111.939 90.215 113.134C86.4047 113.315 82.5825 113.474 78.722 113.635C57.0884 114.534 34.2543 115.483 5.59784 120.642L4.92654 116.919C33.8564 111.711 56.9593 110.752 78.6006 109.853C82.4502 109.694 86.2536 109.536 90.0353 109.356C115.065 108.168 139.243 106.032 169.993 96.1755C177.678 93.7123 184.404 90.6792 190.813 87.7889C191.732 87.3744 192.645 86.9629 193.553 86.5564C200.746 83.3359 207.679 80.4174 215.034 79.0933L215.705 82.816C208.854 84.0494 202.299 86.7855 195.101 90.0083C194.205 90.4093 193.3 90.8176 192.384 91.2309Z" fill="url(#paint0_linear_205_3585)"/>
<g opacity="0.3" filter="url(#filter1_f_205_3585)">
<path fill-rule="evenodd" clip-rule="evenodd" d="M192.384 97.5353C185.984 100.422 179.054 103.548 171.15 106.082C139.943 116.084 115.389 118.244 90.215 119.439C86.4047 119.62 82.5825 119.779 78.722 119.939C57.0884 120.838 34.2543 121.787 5.59784 126.947L4.92654 123.224C33.8564 118.016 56.9593 117.056 78.6006 116.158C82.4502 115.998 86.2536 115.84 90.0353 115.661C115.065 114.472 139.243 112.336 169.993 102.48C177.678 100.017 184.404 96.9837 190.813 94.0933C191.732 93.6788 192.645 93.2673 193.553 92.8609C200.746 89.6403 207.679 86.7218 215.034 85.3977L215.705 89.1204C208.854 90.3538 202.299 93.09 195.101 96.3128C194.205 96.7138 193.3 97.1221 192.384 97.5353Z" fill="url(#paint1_linear_205_3585)"/>
</g>
<defs>
<filter id="filter0_f_205_3585" x="2" y="28" width="254" height="161" filterUnits="userSpaceOnUse" color-interpolation-filters="sRGB">
<feFlood flood-opacity="0" result="BackgroundImageFix"/>
<feBlend mode="normal" in="SourceGraphic" in2="BackgroundImageFix" result="shape"/>
<feGaussianBlur stdDeviation="10" result="effect1_foregroundBlur_205_3585"/>
</filter>
<filter id="filter1_f_205_3585" x="0.926758" y="81.3977" width="218.778" height="49.5488" filterUnits="userSpaceOnUse" color-interpolation-filters="sRGB">
<feFlood flood-opacity="0" result="BackgroundImageFix"/>
<feBlend mode="normal" in="SourceGraphic" in2="BackgroundImageFix" result="shape"/>
<feGaussianBlur stdDeviation="2" result="effect1_foregroundBlur_205_3585"/>
</filter>
<linearGradient id="paint0_linear_205_3585" x1="159.159" y1="101.758" x2="13.5927" y2="109.388" gradientUnits="userSpaceOnUse">
<stop stop-color="#02E62D"/>
<stop offset="1" stop-color="#3B6FFF"/>
</linearGradient>
<linearGradient id="paint1_linear_205_3585" x1="159.159" y1="108.063" x2="13.5927" y2="115.693" gradientUnits="userSpaceOnUse">
<stop stop-color="#02E62D"/>
<stop offset="1" stop-color="#3B6FFF"/>
</linearGradient>
</defs>
</svg>
