<svg width="208" height="170" viewBox="0 0 208 170" fill="none" xmlns="http://www.w3.org/2000/svg">
<g opacity="0.87" filter="url(#filter0_f_128_1374)">
<rect x="36.4951" y="48.5363" width="158.3" height="107.987" rx="12" fill="#041A26"/>
</g>
<rect width="177" height="135" rx="16" fill="#0E2938"/>
<path d="M17.2358 29V20.6H22.3238V21.512H18.1718V28.088H22.2998V29H17.2358ZM17.6678 25.136V24.224H21.6518V25.136H17.6678Z" fill="#F5F5F5"/>
<path d="M24.0594 29V22.736H24.9594L24.9834 24.404L24.8874 24.176C24.9754 23.896 25.1154 23.636 25.3074 23.396C25.5074 23.156 25.7434 22.964 26.0154 22.82C26.2874 22.676 26.5874 22.604 26.9154 22.604C27.0514 22.604 27.1794 22.616 27.2994 22.64C27.4194 22.656 27.5194 22.68 27.5994 22.712L27.3474 23.72C27.2434 23.672 27.1354 23.64 27.0234 23.624C26.9194 23.6 26.8194 23.588 26.7234 23.588C26.4514 23.588 26.2074 23.636 25.9914 23.732C25.7754 23.828 25.5914 23.964 25.4394 24.14C25.2874 24.308 25.1714 24.504 25.0914 24.728C25.0114 24.952 24.9714 25.192 24.9714 25.448V29H24.0594Z" fill="#F5F5F5"/>
<path d="M30.7145 29.12C30.1705 29.12 29.6785 28.98 29.2385 28.7C28.7985 28.412 28.4505 28.024 28.1945 27.536C27.9385 27.04 27.8105 26.48 27.8105 25.856C27.8105 25.224 27.9425 24.664 28.2065 24.176C28.4705 23.688 28.8225 23.304 29.2625 23.024C29.7105 22.744 30.2105 22.604 30.7625 22.604C31.0905 22.604 31.3945 22.652 31.6745 22.748C31.9545 22.844 32.2025 22.98 32.4185 23.156C32.6425 23.324 32.8265 23.524 32.9705 23.756C33.1225 23.98 33.2265 24.224 33.2825 24.488L33.0185 24.356L33.0545 22.736H33.9545V29H33.0425V27.464L33.2825 27.308C33.2265 27.548 33.1185 27.78 32.9585 28.004C32.7985 28.22 32.6025 28.412 32.3705 28.58C32.1465 28.748 31.8905 28.88 31.6025 28.976C31.3225 29.072 31.0265 29.12 30.7145 29.12ZM30.9185 28.256C31.3345 28.256 31.7065 28.156 32.0345 27.956C32.3625 27.748 32.6185 27.464 32.8025 27.104C32.9945 26.736 33.0905 26.32 33.0905 25.856C33.0905 25.392 32.9945 24.98 32.8025 24.62C32.6185 24.26 32.3625 23.976 32.0345 23.768C31.7065 23.56 31.3345 23.456 30.9185 23.456C30.4945 23.456 30.1185 23.56 29.7905 23.768C29.4705 23.976 29.2145 24.26 29.0225 24.62C28.8385 24.98 28.7465 25.392 28.7465 25.856C28.7465 26.312 28.8385 26.724 29.0225 27.092C29.2065 27.452 29.4625 27.736 29.7905 27.944C30.1185 28.152 30.4945 28.256 30.9185 28.256Z" fill="#F5F5F5"/>
<path d="M19.7999 56V49.93L20.0199 50L17.1199 53.54L17.0399 53.36H21.7799V54.1H16.7499L16.3799 53.36L19.9499 49H20.5599V56H19.7999Z" fill="#F5F5F5"/>
<path d="M26.0338 56V49H26.7438L31.3238 55.06L31.1838 55.24C31.1638 55.1334 31.1471 54.9734 31.1338 54.76C31.1271 54.5467 31.1171 54.3067 31.1038 54.04C31.0971 53.7667 31.0905 53.4834 31.0838 53.19C31.0771 52.8967 31.0705 52.61 31.0638 52.33C31.0638 52.05 31.0638 51.7967 31.0638 51.57V49H31.8438V56H31.1138L26.5538 50.02L26.6738 49.81C26.6938 50.0767 26.7105 50.34 26.7238 50.6C26.7438 50.86 26.7571 51.11 26.7638 51.35C26.7771 51.59 26.7871 51.81 26.7938 52.01C26.8005 52.21 26.8038 52.38 26.8038 52.52C26.8105 52.66 26.8138 52.76 26.8138 52.82V56H26.0338Z" fill="#F5F5F5"/>
<path d="M35.9149 56.1C35.3949 56.1 34.9315 55.9834 34.5249 55.75C34.1249 55.5167 33.8082 55.1934 33.5749 54.78C33.3482 54.3667 33.2349 53.8967 33.2349 53.37C33.2349 52.85 33.3482 52.3867 33.5749 51.98C33.8082 51.5734 34.1249 51.2534 34.5249 51.02C34.9315 50.7867 35.3949 50.67 35.9149 50.67C36.4282 50.67 36.8849 50.7867 37.2849 51.02C37.6916 51.2534 38.0082 51.5734 38.2349 51.98C38.4682 52.3867 38.5849 52.85 38.5849 53.37C38.5849 53.8967 38.4682 54.3667 38.2349 54.78C38.0082 55.1934 37.6916 55.5167 37.2849 55.75C36.8849 55.9834 36.4282 56.1 35.9149 56.1ZM35.9149 55.39C36.2816 55.39 36.6082 55.3034 36.8949 55.13C37.1816 54.95 37.4049 54.71 37.5649 54.41C37.7249 54.1034 37.8049 53.7567 37.8049 53.37C37.8049 52.9834 37.7249 52.64 37.5649 52.34C37.4049 52.04 37.1816 51.8067 36.8949 51.64C36.6082 51.4667 36.2816 51.38 35.9149 51.38C35.5482 51.38 35.2182 51.4667 34.9249 51.64C34.6382 51.8067 34.4116 52.0434 34.2449 52.35C34.0849 52.65 34.0082 52.99 34.0149 53.37C34.0082 53.7567 34.0849 54.1034 34.2449 54.41C34.4116 54.71 34.6382 54.95 34.9249 55.13C35.2182 55.3034 35.5482 55.39 35.9149 55.39Z" fill="#F5F5F5"/>
<path d="M41.1526 56L38.9526 50.78H39.7826L41.5226 55.05L41.3226 55.16L43.2326 50.78H44.0326L41.6926 56H41.1526Z" fill="#F5F5F5"/>
<path d="M47.9162 56L47.6762 55.42L50.0362 52.77C50.1495 52.6434 50.2662 52.5 50.3862 52.34C50.5129 52.18 50.6295 52.0134 50.7362 51.84C50.8495 51.66 50.9395 51.4834 51.0062 51.31C51.0729 51.1367 51.1062 50.9667 51.1062 50.8C51.1062 50.5534 51.0529 50.3467 50.9462 50.18C50.8395 50.0067 50.6862 49.8734 50.4862 49.78C50.2929 49.6867 50.0662 49.64 49.8062 49.64C49.5795 49.64 49.3562 49.6934 49.1362 49.8C48.9162 49.9067 48.7162 50.07 48.5362 50.29C48.3562 50.51 48.2162 50.79 48.1162 51.13L47.4962 50.76C47.6162 50.3534 47.7929 50.0134 48.0262 49.74C48.2595 49.46 48.5362 49.25 48.8562 49.11C49.1762 48.97 49.5195 48.9 49.8862 48.9C50.2729 48.9 50.6195 48.98 50.9262 49.14C51.2329 49.2934 51.4762 49.5134 51.6562 49.8C51.8362 50.08 51.9262 50.4034 51.9262 50.77C51.9262 50.93 51.9062 51.09 51.8662 51.25C51.8329 51.41 51.7795 51.57 51.7062 51.73C51.6329 51.89 51.5429 52.0534 51.4362 52.22C51.3362 52.3867 51.2162 52.5567 51.0762 52.73C50.9429 52.9034 50.7929 53.0834 50.6262 53.27L48.6162 55.51L48.4962 55.25H52.1462V56H47.9162Z" fill="#F5F5F5"/>
<path d="M55.5247 56.1C54.9781 56.1 54.5114 55.9567 54.1247 55.67C53.7447 55.3834 53.4514 54.9734 53.2447 54.44C53.0447 53.9 52.9447 53.2534 52.9447 52.5C52.9447 51.7467 53.0447 51.1034 53.2447 50.57C53.4514 50.03 53.7447 49.6167 54.1247 49.33C54.5114 49.0434 54.9781 48.9 55.5247 48.9C56.0647 48.9 56.5281 49.0434 56.9147 49.33C57.3014 49.6167 57.5947 50.03 57.7947 50.57C58.0014 51.1034 58.1047 51.7467 58.1047 52.5C58.1047 53.2534 58.0014 53.9 57.7947 54.44C57.5947 54.9734 57.3014 55.3834 56.9147 55.67C56.5281 55.9567 56.0647 56.1 55.5247 56.1ZM55.5247 55.37C56.0981 55.37 56.5381 55.12 56.8447 54.62C57.1581 54.12 57.3147 53.4134 57.3147 52.5C57.3147 51.5867 57.1581 50.88 56.8447 50.38C56.5381 49.88 56.0981 49.63 55.5247 49.63C54.9447 49.63 54.4981 49.88 54.1847 50.38C53.8781 50.88 53.7247 51.5867 53.7247 52.5C53.7247 53.4134 53.8781 54.12 54.1847 54.62C54.4981 55.12 54.9447 55.37 55.5247 55.37Z" fill="#F5F5F5"/>
<path d="M59.5178 56L59.2778 55.42L61.6378 52.77C61.7511 52.6434 61.8678 52.5 61.9878 52.34C62.1144 52.18 62.2311 52.0134 62.3378 51.84C62.4511 51.66 62.5411 51.4834 62.6078 51.31C62.6744 51.1367 62.7078 50.9667 62.7078 50.8C62.7078 50.5534 62.6544 50.3467 62.5478 50.18C62.4411 50.0067 62.2878 49.8734 62.0878 49.78C61.8944 49.6867 61.6678 49.64 61.4078 49.64C61.1811 49.64 60.9578 49.6934 60.7378 49.8C60.5178 49.9067 60.3178 50.07 60.1378 50.29C59.9578 50.51 59.8178 50.79 59.7178 51.13L59.0978 50.76C59.2178 50.3534 59.3944 50.0134 59.6278 49.74C59.8611 49.46 60.1378 49.25 60.4578 49.11C60.7778 48.97 61.1211 48.9 61.4878 48.9C61.8744 48.9 62.2211 48.98 62.5278 49.14C62.8344 49.2934 63.0778 49.5134 63.2578 49.8C63.4378 50.08 63.5278 50.4034 63.5278 50.77C63.5278 50.93 63.5078 51.09 63.4678 51.25C63.4344 51.41 63.3811 51.57 63.3078 51.73C63.2344 51.89 63.1444 52.0534 63.0378 52.22C62.9378 52.3867 62.8178 52.5567 62.6778 52.73C62.5444 52.9034 62.3944 53.0834 62.2278 53.27L60.2178 55.51L60.0978 55.25H63.7478V56H59.5178Z" fill="#F5F5F5"/>
<path d="M66.1363 55.66V49.62L66.4263 49.84L65.1263 50.62L64.8963 49.92L66.6263 48.9H66.9263V55.66H66.1363ZM65.1063 56V55.24H67.9763V56H65.1063Z" fill="#F5F5F5"/>
<path d="M71.8191 57.19L75.8791 49H76.6291L72.5891 57.19H71.8191Z" fill="#F5F5F5"/>
<path d="M82.9075 56.1C82.3609 56.1 81.8942 55.9567 81.5075 55.67C81.1275 55.3834 80.8342 54.9734 80.6275 54.44C80.4275 53.9 80.3275 53.2534 80.3275 52.5C80.3275 51.7467 80.4275 51.1034 80.6275 50.57C80.8342 50.03 81.1275 49.6167 81.5075 49.33C81.8942 49.0434 82.3609 48.9 82.9075 48.9C83.4475 48.9 83.9109 49.0434 84.2975 49.33C84.6842 49.6167 84.9775 50.03 85.1775 50.57C85.3842 51.1034 85.4875 51.7467 85.4875 52.5C85.4875 53.2534 85.3842 53.9 85.1775 54.44C84.9775 54.9734 84.6842 55.3834 84.2975 55.67C83.9109 55.9567 83.4475 56.1 82.9075 56.1ZM82.9075 55.37C83.4809 55.37 83.9209 55.12 84.2275 54.62C84.5409 54.12 84.6975 53.4134 84.6975 52.5C84.6975 51.5867 84.5409 50.88 84.2275 50.38C83.9209 49.88 83.4809 49.63 82.9075 49.63C82.3275 49.63 81.8809 49.88 81.5675 50.38C81.2609 50.88 81.1075 51.5867 81.1075 52.5C81.1075 53.4134 81.2609 54.12 81.5675 54.62C81.8809 55.12 82.3275 55.37 82.9075 55.37Z" fill="#F5F5F5"/>
<path d="M89.7706 56V49.93L89.9906 50L87.0906 53.54L87.0106 53.36H91.7506V54.1H86.7206L86.3506 53.36L89.9206 49H90.5306V56H89.7706Z" fill="#F5F5F5"/>
<path d="M93.3118 56.1C93.1318 56.1 92.9918 56.0467 92.8918 55.94C92.7984 55.8334 92.7518 55.68 92.7518 55.48C92.7518 55.3 92.8018 55.1534 92.9018 55.04C93.0084 54.92 93.1451 54.86 93.3118 54.86C93.4918 54.86 93.6284 54.9167 93.7218 55.03C93.8218 55.1367 93.8718 55.2867 93.8718 55.48C93.8718 55.6667 93.8184 55.8167 93.7118 55.93C93.6118 56.0434 93.4784 56.1 93.3118 56.1ZM93.3118 51.91C93.1318 51.91 92.9918 51.8567 92.8918 51.75C92.7984 51.6434 92.7518 51.49 92.7518 51.29C92.7518 51.11 92.8018 50.9634 92.9018 50.85C93.0084 50.73 93.1451 50.67 93.3118 50.67C93.4918 50.67 93.6284 50.7267 93.7218 50.84C93.8218 50.9467 93.8718 51.0967 93.8718 51.29C93.8718 51.4767 93.8184 51.6267 93.7118 51.74C93.6118 51.8534 93.4784 51.91 93.3118 51.91Z" fill="#F5F5F5"/>
<path d="M95.3772 56L95.1372 55.42L97.4972 52.77C97.6105 52.6434 97.7271 52.5 97.8472 52.34C97.9738 52.18 98.0905 52.0134 98.1972 51.84C98.3105 51.66 98.4005 51.4834 98.4671 51.31C98.5338 51.1367 98.5672 50.9667 98.5672 50.8C98.5672 50.5534 98.5138 50.3467 98.4072 50.18C98.3005 50.0067 98.1471 49.8734 97.9472 49.78C97.7538 49.6867 97.5272 49.64 97.2672 49.64C97.0405 49.64 96.8172 49.6934 96.5972 49.8C96.3772 49.9067 96.1772 50.07 95.9972 50.29C95.8172 50.51 95.6771 50.79 95.5771 51.13L94.9572 50.76C95.0772 50.3534 95.2538 50.0134 95.4872 49.74C95.7205 49.46 95.9972 49.25 96.3172 49.11C96.6372 48.97 96.9805 48.9 97.3472 48.9C97.7338 48.9 98.0805 48.98 98.3872 49.14C98.6938 49.2934 98.9371 49.5134 99.1171 49.8C99.2971 50.08 99.3872 50.4034 99.3872 50.77C99.3872 50.93 99.3671 51.09 99.3271 51.25C99.2938 51.41 99.2405 51.57 99.1672 51.73C99.0938 51.89 99.0038 52.0534 98.8971 52.22C98.7971 52.3867 98.6771 52.5567 98.5371 52.73C98.4038 52.9034 98.2538 53.0834 98.0872 53.27L96.0771 55.51L95.9572 55.25H99.6072V56H95.3772Z" fill="#F5F5F5"/>
<path d="M100.996 56L103.936 49.46L104.066 49.73H100.316V49H104.536L104.666 49.61L101.846 56H100.996Z" fill="#F5F5F5"/>
<path d="M108.445 53.59V52.84H111.265V53.59H108.445Z" fill="#F5F5F5"/>
<path d="M116.693 55.66V49.62L116.983 49.84L115.683 50.62L115.453 49.92L117.183 48.9H117.483V55.66H116.693ZM115.663 56V55.24H118.533V56H115.663Z" fill="#F5F5F5"/>
<path d="M122.263 56.1C121.716 56.1 121.25 55.9567 120.863 55.67C120.483 55.3834 120.19 54.9734 119.983 54.44C119.783 53.9 119.683 53.2534 119.683 52.5C119.683 51.7467 119.783 51.1034 119.983 50.57C120.19 50.03 120.483 49.6167 120.863 49.33C121.25 49.0434 121.716 48.9 122.263 48.9C122.803 48.9 123.266 49.0434 123.653 49.33C124.04 49.6167 124.333 50.03 124.533 50.57C124.74 51.1034 124.843 51.7467 124.843 52.5C124.843 53.2534 124.74 53.9 124.533 54.44C124.333 54.9734 124.04 55.3834 123.653 55.67C123.266 55.9567 122.803 56.1 122.263 56.1ZM122.263 55.37C122.836 55.37 123.276 55.12 123.583 54.62C123.896 54.12 124.053 53.4134 124.053 52.5C124.053 51.5867 123.896 50.88 123.583 50.38C123.276 49.88 122.836 49.63 122.263 49.63C121.683 49.63 121.236 49.88 120.923 50.38C120.616 50.88 120.463 51.5867 120.463 52.5C120.463 53.4134 120.616 54.12 120.923 54.62C121.236 55.12 121.683 55.37 122.263 55.37Z" fill="#F5F5F5"/>
<path d="M126.466 56.1C126.286 56.1 126.146 56.0467 126.046 55.94C125.953 55.8334 125.906 55.68 125.906 55.48C125.906 55.3 125.956 55.1534 126.056 55.04C126.163 54.92 126.299 54.86 126.466 54.86C126.646 54.86 126.783 54.9167 126.876 55.03C126.976 55.1367 127.026 55.2867 127.026 55.48C127.026 55.6667 126.973 55.8167 126.866 55.93C126.766 56.0434 126.633 56.1 126.466 56.1ZM126.466 51.91C126.286 51.91 126.146 51.8567 126.046 51.75C125.953 51.6434 125.906 51.49 125.906 51.29C125.906 51.11 125.956 50.9634 126.056 50.85C126.163 50.73 126.299 50.67 126.466 50.67C126.646 50.67 126.783 50.7267 126.876 50.84C126.976 50.9467 127.026 51.0967 127.026 51.29C127.026 51.4767 126.973 51.6267 126.866 51.74C126.766 51.8534 126.633 51.91 126.466 51.91Z" fill="#F5F5F5"/>
<path d="M128.531 56L128.291 55.42L130.651 52.77C130.765 52.6434 130.881 52.5 131.001 52.34C131.128 52.18 131.245 52.0134 131.351 51.84C131.465 51.66 131.555 51.4834 131.621 51.31C131.688 51.1367 131.721 50.9667 131.721 50.8C131.721 50.5534 131.668 50.3467 131.561 50.18C131.455 50.0067 131.301 49.8734 131.101 49.78C130.908 49.6867 130.681 49.64 130.421 49.64C130.195 49.64 129.971 49.6934 129.751 49.8C129.531 49.9067 129.331 50.07 129.151 50.29C128.971 50.51 128.831 50.79 128.731 51.13L128.111 50.76C128.231 50.3534 128.408 50.0134 128.641 49.74C128.875 49.46 129.151 49.25 129.471 49.11C129.791 48.97 130.135 48.9 130.501 48.9C130.888 48.9 131.235 48.98 131.541 49.14C131.848 49.2934 132.091 49.5134 132.271 49.8C132.451 50.08 132.541 50.4034 132.541 50.77C132.541 50.93 132.521 51.09 132.481 51.25C132.448 51.41 132.395 51.57 132.321 51.73C132.248 51.89 132.158 52.0534 132.051 52.22C131.951 52.3867 131.831 52.5567 131.691 52.73C131.558 52.9034 131.408 53.0834 131.241 53.27L129.231 55.51L129.111 55.25H132.761V56H128.531Z" fill="#F5F5F5"/>
<path d="M134.15 56L137.09 49.46L137.22 49.73H133.47V49H137.69L137.82 49.61L135 56H134.15Z" fill="#F5F5F5"/>
<path d="M18.8167 103.359L24.7799 89.9437L25.5385 91.3148H17.9106V88.5094H27.3717L27.6878 90.1336L22.0406 103.359H18.8167Z" fill="#F5F5F5"/>
<path d="M30.3813 103.359L36.3445 89.9437L37.1031 91.3148H29.4752V88.5094H38.9363L39.2524 90.1336L33.6052 103.359H30.3813Z" fill="#F5F5F5"/>
<path d="M43.2945 103.359L53.0505 88.5937H55.8952L46.0338 103.359H43.2945ZM44.3902 96.4195C43.7019 96.4195 43.0838 96.2437 42.5359 95.8922C42.0021 95.5406 41.5807 95.0625 41.2716 94.4578C40.9766 93.839 40.8291 93.1359 40.8291 92.3484C40.8291 91.5609 40.9766 90.8578 41.2716 90.239C41.5807 89.6062 42.0021 89.1211 42.5359 88.7836C43.0838 88.432 43.7019 88.2562 44.3902 88.2562C45.0926 88.2562 45.7036 88.432 46.2234 88.7836C46.7572 89.1211 47.1716 89.6062 47.4666 90.239C47.7757 90.8578 47.9302 91.5609 47.9302 92.3484C47.9302 93.1219 47.7757 93.8179 47.4666 94.4367C47.1576 95.0414 46.7361 95.5265 46.2023 95.8922C45.6685 96.2437 45.0645 96.4195 44.3902 96.4195ZM44.3902 94.4367C44.643 94.4367 44.8608 94.3523 45.0434 94.1836C45.226 94.0148 45.3665 93.7758 45.4648 93.4664C45.5632 93.1429 45.6123 92.7703 45.6123 92.3484C45.6123 91.9265 45.5632 91.5539 45.4648 91.2304C45.3665 90.907 45.226 90.6609 45.0434 90.4922C44.8608 90.3234 44.643 90.239 44.3902 90.239C44.1373 90.239 43.9126 90.3304 43.7159 90.5133C43.5333 90.682 43.3928 90.9281 43.2945 91.2515C43.1961 91.5609 43.147 91.9265 43.147 92.3484C43.147 92.7703 43.1961 93.1429 43.2945 93.4664C43.3928 93.7758 43.5333 94.0148 43.7159 94.1836C43.9126 94.3523 44.1373 94.4367 44.3902 94.4367ZM55.0102 103.549C54.3219 103.549 53.7038 103.373 53.1559 103.022C52.6221 102.67 52.2007 102.192 51.8916 101.587C51.5826 100.969 51.428 100.266 51.428 99.4781C51.428 98.6906 51.5755 97.9875 51.8705 97.3687C52.1796 96.75 52.601 96.2648 53.1348 95.9133C53.6827 95.5617 54.3078 95.3859 55.0102 95.3859C55.6985 95.3859 56.3096 95.5617 56.8434 95.9133C57.3772 96.2648 57.7916 96.75 58.0866 97.3687C58.3816 97.9875 58.5291 98.6906 58.5291 99.4781C58.5291 100.252 58.3746 100.948 58.0655 101.566C57.7705 102.185 57.3561 102.67 56.8223 103.022C56.2885 103.373 55.6845 103.549 55.0102 103.549ZM55.0102 101.587C55.263 101.587 55.4808 101.503 55.6634 101.334C55.846 101.152 55.9865 100.905 56.0848 100.596C56.1832 100.287 56.2323 99.914 56.2323 99.4781C56.2323 99.0562 56.1832 98.6906 56.0848 98.3812C55.9865 98.0578 55.846 97.8117 55.6634 97.6429C55.4808 97.4601 55.263 97.3687 55.0102 97.3687C54.7433 97.3687 54.5185 97.4601 54.3359 97.6429C54.1533 97.8117 54.0058 98.0578 53.8934 98.3812C53.7951 98.6906 53.7459 99.0562 53.7459 99.4781C53.7459 99.914 53.7951 100.287 53.8934 100.596C53.9917 100.905 54.1322 101.152 54.3148 101.334C54.5115 101.503 54.7433 101.587 55.0102 101.587Z" fill="#F5F5F5"/>
<g opacity="0.5" filter="url(#filter1_f_128_1374)">
<path fill-rule="evenodd" clip-rule="evenodd" d="M152 96L72 96L72 93L152 93L152 96Z" fill="url(#paint0_linear_128_1374)"/>
</g>
<path fill-rule="evenodd" clip-rule="evenodd" d="M152 95L72 95L72 91L152 91L152 95Z" fill="url(#paint1_linear_128_1374)"/>
<path d="M74.0701 108.66V102.62L74.3601 102.84L73.0601 103.62L72.8301 102.92L74.5601 101.9H74.8601V108.66H74.0701ZM73.0401 109V108.24H75.9101V109H73.0401Z" fill="#A2A9AC"/>
<path d="M80.1129 109V101.6H80.8629V104.92L80.7129 105.07C80.7862 104.797 80.9229 104.557 81.1229 104.35C81.3229 104.137 81.5562 103.97 81.8229 103.85C82.0962 103.73 82.3729 103.67 82.6529 103.67C83.0529 103.67 83.3862 103.747 83.6529 103.9C83.9196 104.053 84.1162 104.29 84.2429 104.61C84.3762 104.93 84.4429 105.337 84.4429 105.83V109H83.6829V105.87C83.6829 105.523 83.6362 105.24 83.5429 105.02C83.4562 104.793 83.3196 104.627 83.1329 104.52C82.9462 104.413 82.7129 104.363 82.4329 104.37C82.2129 104.37 82.0062 104.41 81.8129 104.49C81.6196 104.563 81.4529 104.667 81.3129 104.8C81.1729 104.933 81.0629 105.087 80.9829 105.26C80.9029 105.433 80.8629 105.62 80.8629 105.82V109H80.4929C80.4462 109 80.3929 109 80.3329 109C80.2729 109 80.1996 109 80.1129 109Z" fill="#A2A9AC"/>
<path d="M85.8746 109V103.78H86.6246L86.6446 105.17L86.5646 104.98C86.6379 104.747 86.7546 104.53 86.9146 104.33C87.0813 104.13 87.2779 103.97 87.5046 103.85C87.7313 103.73 87.9813 103.67 88.2546 103.67C88.3679 103.67 88.4746 103.68 88.5746 103.7C88.6746 103.713 88.7579 103.733 88.8246 103.76L88.6146 104.6C88.5279 104.56 88.4379 104.533 88.3446 104.52C88.2579 104.5 88.1746 104.49 88.0946 104.49C87.8679 104.49 87.6646 104.53 87.4846 104.61C87.3046 104.69 87.1513 104.803 87.0246 104.95C86.8979 105.09 86.8013 105.253 86.7346 105.44C86.6679 105.627 86.6346 105.827 86.6346 106.04V109H85.8746Z" fill="#A2A9AC"/>
<path d="M91.3151 109.1C90.8684 109.1 90.4684 109.017 90.1151 108.85C89.7617 108.683 89.4817 108.463 89.2751 108.19L89.8051 107.73C89.9984 107.963 90.2251 108.14 90.4851 108.26C90.7517 108.38 91.0484 108.44 91.3751 108.44C91.5417 108.44 91.6917 108.423 91.8251 108.39C91.9584 108.35 92.0751 108.293 92.1751 108.22C92.2751 108.147 92.3517 108.06 92.4051 107.96C92.4584 107.86 92.4851 107.75 92.4851 107.63C92.4851 107.41 92.3884 107.227 92.1951 107.08C92.1084 107.02 91.9851 106.96 91.8251 106.9C91.6651 106.833 91.4717 106.77 91.2451 106.71C90.8717 106.603 90.5617 106.497 90.3151 106.39C90.0684 106.277 89.8751 106.147 89.7351 106C89.6351 105.88 89.5584 105.75 89.5051 105.61C89.4584 105.47 89.4351 105.317 89.4351 105.15C89.4351 104.937 89.4784 104.74 89.5651 104.56C89.6584 104.38 89.7851 104.223 89.9451 104.09C90.1117 103.95 90.3051 103.847 90.5251 103.78C90.7517 103.707 90.9951 103.67 91.2551 103.67C91.5017 103.67 91.7451 103.703 91.9851 103.77C92.2251 103.837 92.4484 103.933 92.6551 104.06C92.8617 104.187 93.0384 104.337 93.1851 104.51L92.7251 105.01C92.5984 104.877 92.4584 104.757 92.3051 104.65C92.1517 104.543 91.9884 104.46 91.8151 104.4C91.6484 104.34 91.4751 104.31 91.2951 104.31C91.1351 104.31 90.9851 104.33 90.8451 104.37C90.7117 104.41 90.5951 104.467 90.4951 104.54C90.4017 104.607 90.3284 104.69 90.2751 104.79C90.2284 104.89 90.2051 105 90.2051 105.12C90.2051 105.22 90.2251 105.31 90.2651 105.39C90.3051 105.47 90.3617 105.54 90.4351 105.6C90.5284 105.673 90.6584 105.743 90.8251 105.81C90.9984 105.87 91.2117 105.933 91.4651 106C91.7584 106.08 92.0051 106.163 92.2051 106.25C92.4117 106.33 92.5817 106.427 92.7151 106.54C92.8951 106.673 93.0217 106.827 93.0951 107C93.1751 107.173 93.2151 107.37 93.2151 107.59C93.2151 107.883 93.1317 108.143 92.9651 108.37C92.8051 108.597 92.5817 108.777 92.2951 108.91C92.0084 109.037 91.6817 109.1 91.3151 109.1Z" fill="#A2A9AC"/>
<path d="M97.393 109L97.153 108.42L99.513 105.77C99.6263 105.643 99.743 105.5 99.863 105.34C99.9896 105.18 100.106 105.013 100.213 104.84C100.326 104.66 100.416 104.483 100.483 104.31C100.55 104.137 100.583 103.967 100.583 103.8C100.583 103.553 100.53 103.347 100.423 103.18C100.316 103.007 100.163 102.873 99.963 102.78C99.7696 102.687 99.543 102.64 99.283 102.64C99.0563 102.64 98.833 102.693 98.613 102.8C98.393 102.907 98.193 103.07 98.013 103.29C97.833 103.51 97.693 103.79 97.593 104.13L96.973 103.76C97.093 103.353 97.2696 103.013 97.503 102.74C97.7363 102.46 98.013 102.25 98.333 102.11C98.653 101.97 98.9963 101.9 99.363 101.9C99.7496 101.9 100.096 101.98 100.403 102.14C100.71 102.293 100.953 102.513 101.133 102.8C101.313 103.08 101.403 103.403 101.403 103.77C101.403 103.93 101.383 104.09 101.343 104.25C101.31 104.41 101.256 104.57 101.183 104.73C101.11 104.89 101.02 105.053 100.913 105.22C100.813 105.387 100.693 105.557 100.553 105.73C100.42 105.903 100.27 106.083 100.103 106.27L98.093 108.51L97.973 108.25H101.623V109H97.393Z" fill="#A2A9AC"/>
<path d="M104.501 109.1C104.008 109.1 103.571 108.99 103.191 108.77C102.818 108.543 102.468 108.16 102.141 107.62L102.781 107.22C102.961 107.507 103.145 107.737 103.331 107.91C103.525 108.077 103.721 108.197 103.921 108.27C104.121 108.343 104.335 108.38 104.561 108.38C104.841 108.38 105.098 108.313 105.331 108.18C105.565 108.04 105.751 107.853 105.891 107.62C106.031 107.38 106.101 107.113 106.101 106.82C106.101 106.52 106.038 106.257 105.911 106.03C105.785 105.803 105.608 105.627 105.381 105.5C105.161 105.373 104.905 105.31 104.611 105.31C104.505 105.31 104.388 105.323 104.261 105.35C104.141 105.37 104.008 105.413 103.861 105.48C103.721 105.54 103.568 105.63 103.401 105.75L103.171 105.13L105.641 102.44L105.811 102.73H102.631V102H106.411L106.611 102.4L104.211 104.96L104.011 104.76C104.098 104.707 104.201 104.663 104.321 104.63C104.441 104.59 104.561 104.57 104.681 104.57C104.988 104.57 105.275 104.627 105.541 104.74C105.808 104.853 106.038 105.013 106.231 105.22C106.431 105.42 106.588 105.653 106.701 105.92C106.815 106.187 106.871 106.477 106.871 106.79C106.871 107.223 106.768 107.617 106.561 107.97C106.355 108.317 106.071 108.593 105.711 108.8C105.351 109 104.948 109.1 104.501 109.1Z" fill="#A2A9AC"/>
<path d="M110.757 109V103.78H111.507L111.527 104.97L111.377 105.02C111.431 104.82 111.517 104.64 111.637 104.48C111.764 104.313 111.914 104.17 112.087 104.05C112.261 103.93 112.451 103.84 112.657 103.78C112.864 103.713 113.081 103.68 113.307 103.68C113.581 103.68 113.824 103.727 114.037 103.82C114.257 103.907 114.441 104.06 114.587 104.28C114.741 104.493 114.857 104.777 114.937 105.13L114.757 105.04L114.827 104.87C114.894 104.717 114.991 104.57 115.117 104.43C115.251 104.283 115.401 104.153 115.567 104.04C115.741 103.927 115.927 103.84 116.127 103.78C116.334 103.713 116.544 103.68 116.757 103.68C117.124 103.68 117.434 103.76 117.687 103.92C117.941 104.073 118.131 104.31 118.257 104.63C118.391 104.95 118.457 105.357 118.457 105.85V109H117.687V105.89C117.687 105.543 117.644 105.26 117.557 105.04C117.471 104.82 117.341 104.657 117.167 104.55C117.001 104.437 116.787 104.38 116.527 104.38C116.301 104.38 116.091 104.42 115.897 104.5C115.711 104.573 115.547 104.68 115.407 104.82C115.274 104.953 115.167 105.107 115.087 105.28C115.014 105.453 114.977 105.64 114.977 105.84V109H114.217V105.88C114.217 105.547 114.171 105.27 114.077 105.05C113.991 104.83 113.861 104.663 113.687 104.55C113.514 104.437 113.301 104.38 113.047 104.38C112.827 104.38 112.624 104.42 112.437 104.5C112.251 104.573 112.087 104.677 111.947 104.81C111.814 104.943 111.707 105.097 111.627 105.27C111.554 105.443 111.517 105.63 111.517 105.83V109H110.757Z" fill="#A2A9AC"/>
<path d="M120.079 109V103.78H120.829V109H120.079ZM120.449 102.65C120.262 102.65 120.119 102.603 120.019 102.51C119.925 102.41 119.879 102.277 119.879 102.11C119.879 101.943 119.929 101.81 120.029 101.71C120.129 101.61 120.269 101.56 120.449 101.56C120.629 101.56 120.769 101.61 120.869 101.71C120.969 101.803 121.019 101.937 121.019 102.11C121.019 102.27 120.969 102.4 120.869 102.5C120.769 102.6 120.629 102.65 120.449 102.65Z" fill="#A2A9AC"/>
<path d="M122.466 109V103.78H123.206L123.236 104.87L123.116 104.92C123.183 104.693 123.313 104.487 123.506 104.3C123.7 104.113 123.93 103.963 124.196 103.85C124.47 103.73 124.75 103.67 125.036 103.67C125.423 103.67 125.746 103.747 126.006 103.9C126.266 104.053 126.463 104.29 126.596 104.61C126.73 104.93 126.796 105.337 126.796 105.83V109H126.036V105.87C126.036 105.523 125.99 105.24 125.896 105.02C125.81 104.793 125.673 104.627 125.486 104.52C125.3 104.413 125.07 104.363 124.796 104.37C124.57 104.37 124.36 104.41 124.166 104.49C123.973 104.563 123.806 104.667 123.666 104.8C123.526 104.933 123.416 105.087 123.336 105.26C123.256 105.433 123.216 105.62 123.216 105.82V109H122.846C122.8 109 122.746 109 122.686 109C122.626 109 122.553 109 122.466 109Z" fill="#A2A9AC"/>
<path d="M129.938 109.1C129.491 109.1 129.091 109.017 128.738 108.85C128.385 108.683 128.105 108.463 127.898 108.19L128.428 107.73C128.621 107.963 128.848 108.14 129.108 108.26C129.375 108.38 129.671 108.44 129.998 108.44C130.165 108.44 130.315 108.423 130.448 108.39C130.581 108.35 130.698 108.293 130.798 108.22C130.898 108.147 130.975 108.06 131.028 107.96C131.081 107.86 131.108 107.75 131.108 107.63C131.108 107.41 131.011 107.227 130.818 107.08C130.731 107.02 130.608 106.96 130.448 106.9C130.288 106.833 130.095 106.77 129.868 106.71C129.495 106.603 129.185 106.497 128.938 106.39C128.691 106.277 128.498 106.147 128.358 106C128.258 105.88 128.181 105.75 128.128 105.61C128.081 105.47 128.058 105.317 128.058 105.15C128.058 104.937 128.101 104.74 128.188 104.56C128.281 104.38 128.408 104.223 128.568 104.09C128.735 103.95 128.928 103.847 129.148 103.78C129.375 103.707 129.618 103.67 129.878 103.67C130.125 103.67 130.368 103.703 130.608 103.77C130.848 103.837 131.071 103.933 131.278 104.06C131.485 104.187 131.661 104.337 131.808 104.51L131.348 105.01C131.221 104.877 131.081 104.757 130.928 104.65C130.775 104.543 130.611 104.46 130.438 104.4C130.271 104.34 130.098 104.31 129.918 104.31C129.758 104.31 129.608 104.33 129.468 104.37C129.335 104.41 129.218 104.467 129.118 104.54C129.025 104.607 128.951 104.69 128.898 104.79C128.851 104.89 128.828 105 128.828 105.12C128.828 105.22 128.848 105.31 128.888 105.39C128.928 105.47 128.985 105.54 129.058 105.6C129.151 105.673 129.281 105.743 129.448 105.81C129.621 105.87 129.835 105.933 130.088 106C130.381 106.08 130.628 106.163 130.828 106.25C131.035 106.33 131.205 106.427 131.338 106.54C131.518 106.673 131.645 106.827 131.718 107C131.798 107.173 131.838 107.37 131.838 107.59C131.838 107.883 131.755 108.143 131.588 108.37C131.428 108.597 131.205 108.777 130.918 108.91C130.631 109.037 130.305 109.1 129.938 109.1Z" fill="#A2A9AC"/>
<path d="M135.836 109V101.6H136.586V109H135.836Z" fill="#A2A9AC"/>
<path d="M140.264 109.1C139.744 109.1 139.281 108.987 138.874 108.76C138.474 108.533 138.161 108.217 137.934 107.81C137.708 107.403 137.594 106.937 137.594 106.41C137.594 106.003 137.658 105.637 137.784 105.31C137.911 104.977 138.088 104.687 138.314 104.44C138.548 104.193 138.824 104.003 139.144 103.87C139.464 103.73 139.811 103.66 140.184 103.66C140.538 103.66 140.858 103.723 141.144 103.85C141.438 103.977 141.688 104.153 141.894 104.38C142.108 104.6 142.268 104.863 142.374 105.17C142.481 105.477 142.528 105.813 142.514 106.18L142.504 106.53H138.154L138.044 105.9H141.934L141.754 106.07V105.83C141.741 105.59 141.671 105.36 141.544 105.14C141.418 104.913 141.238 104.73 141.004 104.59C140.778 104.45 140.504 104.38 140.184 104.38C139.811 104.38 139.488 104.457 139.214 104.61C138.941 104.757 138.731 104.977 138.584 105.27C138.438 105.563 138.364 105.927 138.364 106.36C138.364 106.773 138.444 107.133 138.604 107.44C138.764 107.74 138.991 107.973 139.284 108.14C139.584 108.307 139.944 108.39 140.364 108.39C140.611 108.39 140.854 108.35 141.094 108.27C141.341 108.183 141.611 108.017 141.904 107.77L142.294 108.31C142.141 108.463 141.958 108.6 141.744 108.72C141.531 108.833 141.298 108.927 141.044 109C140.791 109.067 140.531 109.1 140.264 109.1Z" fill="#A2A9AC"/>
<path d="M144.18 109V102.97C144.18 102.71 144.236 102.48 144.35 102.28C144.463 102.08 144.623 101.923 144.83 101.81C145.043 101.69 145.29 101.63 145.57 101.63C145.783 101.63 145.973 101.67 146.14 101.75C146.313 101.823 146.456 101.927 146.57 102.06L146.31 102.65C146.203 102.537 146.086 102.457 145.96 102.41C145.84 102.357 145.723 102.33 145.61 102.33C145.463 102.33 145.34 102.357 145.24 102.41C145.14 102.457 145.063 102.53 145.01 102.63C144.963 102.723 144.94 102.837 144.94 102.97V109H144.59C144.516 109 144.446 109 144.38 109C144.313 109 144.246 109 144.18 109ZM143.25 104.52V103.82H146.27V104.52H143.25Z" fill="#A2A9AC"/>
<path d="M148.108 109V102.41H148.858V109H148.108ZM146.928 104.5V103.78H150.178V104.5H146.928Z" fill="#A2A9AC"/>
<defs>
<filter id="filter0_f_128_1374" x="23.4951" y="35.5363" width="184.3" height="133.987" filterUnits="userSpaceOnUse" color-interpolation-filters="sRGB">
<feFlood flood-opacity="0" result="BackgroundImageFix"/>
<feBlend mode="normal" in="SourceGraphic" in2="BackgroundImageFix" result="shape"/>
<feGaussianBlur stdDeviation="6.5" result="effect1_foregroundBlur_128_1374"/>
</filter>
<filter id="filter1_f_128_1374" x="67" y="88" width="90" height="13" filterUnits="userSpaceOnUse" color-interpolation-filters="sRGB">
<feFlood flood-opacity="0" result="BackgroundImageFix"/>
<feBlend mode="normal" in="SourceGraphic" in2="BackgroundImageFix" result="shape"/>
<feGaussianBlur stdDeviation="2.5" result="effect1_foregroundBlur_128_1374"/>
</filter>
<linearGradient id="paint0_linear_128_1374" x1="132" y1="93" x2="140" y2="93" gradientUnits="userSpaceOnUse">
<stop stop-color="#3B6EFF"/>
<stop offset="1" stop-color="#00E927"/>
</linearGradient>
<linearGradient id="paint1_linear_128_1374" x1="128.5" y1="95" x2="140" y2="95" gradientUnits="userSpaceOnUse">
<stop stop-color="#3B6EFF"/>
<stop offset="1" stop-color="#00E927"/>
</linearGradient>
</defs>
</svg>
