<svg width="418" height="135" viewBox="0 0 418 135" fill="none" xmlns="http://www.w3.org/2000/svg">
<g opacity="0.61" filter="url(#filter0_f_205_3584)">
<rect x="226" y="41" width="179" height="81" rx="12" fill="#041A26"/>
</g>
<rect width="384" height="97" rx="12" fill="#0E2938"/>
<path d="M22.9105 33.542C22.203 33.542 21.5716 33.3859 21.0163 33.0737C20.461 32.7526 20.0221 32.3156 19.6997 31.7626C19.3862 31.2006 19.2295 30.5673 19.2295 29.8627V24.0828H20.2774V29.7423C20.2774 30.2685 20.3938 30.7413 20.6267 31.1605C20.8595 31.5797 21.173 31.9097 21.5671 32.1506C21.9701 32.3914 22.4179 32.5118 22.9105 32.5118C23.43 32.5118 23.8912 32.3914 24.2943 32.1506C24.7063 31.9097 25.0287 31.5797 25.2615 31.1605C25.4944 30.7413 25.6108 30.2685 25.6108 29.7423V24.0828H26.6184V29.8627C26.6184 30.5673 26.4572 31.2006 26.1348 31.7626C25.8213 32.3156 25.3824 32.7526 24.8182 33.0737C24.2629 33.3859 23.627 33.542 22.9105 33.542Z" fill="#F5F5F5"/>
<path d="M28.9301 36.3918V26.4643H29.9377L29.9645 28.1635L29.7764 28.1903C29.857 27.8513 30.0317 27.5436 30.3004 27.2671C30.5691 26.9817 30.896 26.7542 31.2811 26.5848C31.6662 26.4153 32.0737 26.3306 32.5036 26.3306C33.1306 26.3306 33.6903 26.4866 34.1829 26.7988C34.6845 27.111 35.083 27.5392 35.3786 28.0832C35.6741 28.6273 35.8219 29.2517 35.8219 29.9563C35.8219 30.6521 35.6786 31.272 35.392 31.8161C35.1054 32.3602 34.7113 32.7928 34.2098 33.1139C33.7082 33.4261 33.144 33.5821 32.5171 33.5821C32.0782 33.5821 31.6617 33.4929 31.2677 33.3146C30.8736 33.1362 30.5377 32.9043 30.2601 32.6188C29.9824 32.3245 29.7988 32.0078 29.7093 31.6689H29.9511V36.3918H28.9301ZM32.3558 32.6188C32.8305 32.6188 33.2515 32.5029 33.6187 32.271C33.9859 32.0391 34.277 31.7224 34.4919 31.321C34.7069 30.9197 34.8143 30.4648 34.8143 29.9563C34.8143 29.439 34.7069 28.9797 34.4919 28.5783C34.277 28.1769 33.9859 27.8603 33.6187 27.6283C33.2515 27.3964 32.8305 27.2805 32.3558 27.2805C31.8812 27.2805 31.4557 27.3964 31.0796 27.6283C30.7124 27.8513 30.4213 28.1635 30.2063 28.5649C29.9914 28.9663 29.8839 29.4256 29.8839 29.943C29.8839 30.4603 29.9914 30.9197 30.2063 31.321C30.4213 31.7224 30.7124 32.0391 31.0796 32.271C31.4557 32.5029 31.8812 32.6188 32.3558 32.6188Z" fill="#F5F5F5"/>
<path d="M38.2545 33.4484V24.6314H39.2621V33.4484H38.2545ZM36.6692 27.4277V26.4643H41.0354V27.4277H36.6692Z" fill="#F5F5F5"/>
<path d="M42.5413 33.4484V26.4643H43.5489V33.4484H42.5413ZM43.0384 24.9525C42.7876 24.9525 42.5951 24.89 42.4607 24.7652C42.3353 24.6314 42.2726 24.453 42.2726 24.23C42.2726 24.007 42.3398 23.8286 42.4742 23.6948C42.6085 23.561 42.7966 23.4941 43.0384 23.4941C43.2802 23.4941 43.4683 23.561 43.6026 23.6948C43.737 23.8197 43.8042 23.9981 43.8042 24.23C43.8042 24.4441 43.737 24.618 43.6026 24.7518C43.4683 24.8856 43.2802 24.9525 43.0384 24.9525Z" fill="#F5F5F5"/>
<path d="M45.7359 33.4484V26.4643H46.7435L46.7703 28.0565L46.5688 28.1234C46.6405 27.8558 46.7569 27.615 46.9181 27.4009C47.0883 27.1779 47.2898 26.9861 47.5227 26.8256C47.7555 26.665 48.0108 26.5446 48.2884 26.4643C48.5661 26.3752 48.8571 26.3306 49.1617 26.3306C49.5289 26.3306 49.8558 26.393 50.1424 26.5179C50.4379 26.6338 50.6842 26.839 50.8813 27.1333C51.0873 27.4187 51.244 27.7978 51.3515 28.2706L51.1096 28.1501L51.2037 27.9227C51.2933 27.7175 51.4231 27.5213 51.5933 27.334C51.7724 27.1378 51.9739 26.9638 52.1978 26.8122C52.4307 26.6606 52.6815 26.5446 52.9502 26.4643C53.2278 26.3752 53.5099 26.3306 53.7965 26.3306C54.2891 26.3306 54.7056 26.4376 55.0459 26.6517C55.3863 26.8568 55.6415 27.1735 55.8117 27.6016C55.9908 28.0297 56.0804 28.5738 56.0804 29.2339V33.4484H55.0459V29.2874C55.0459 28.8236 54.9877 28.4445 54.8713 28.1501C54.7549 27.8558 54.5802 27.6373 54.3473 27.4946C54.1234 27.3429 53.8368 27.2671 53.4875 27.2671C53.183 27.2671 52.9009 27.3206 52.6412 27.4277C52.3904 27.5258 52.171 27.6685 51.9829 27.8558C51.8038 28.0342 51.6605 28.2393 51.553 28.4712C51.4545 28.7032 51.4052 28.9529 51.4052 29.2205V33.4484H50.3842V29.274C50.3842 28.828 50.3215 28.4579 50.1961 28.1635C50.0797 27.8692 49.905 27.6462 49.6722 27.4946C49.4393 27.3429 49.1527 27.2671 48.8124 27.2671C48.5168 27.2671 48.2436 27.3206 47.9929 27.4277C47.7421 27.5258 47.5227 27.664 47.3346 27.8424C47.1555 28.0208 47.0122 28.226 46.9047 28.4579C46.8062 28.6898 46.7569 28.9395 46.7569 29.2071V33.4484H45.7359Z" fill="#F5F5F5"/>
<path d="M61.0798 33.5821C60.3812 33.5821 59.7587 33.4305 59.2124 33.1272C58.675 32.824 58.2541 32.4003 57.9495 31.8562C57.645 31.3121 57.4928 30.6878 57.4928 29.9831C57.4928 29.439 57.5779 28.9484 57.748 28.5114C57.9182 28.0654 58.1555 27.6774 58.4601 27.3474C58.7735 27.0174 59.1452 26.7632 59.5751 26.5848C60.005 26.3975 60.4707 26.3038 60.9723 26.3038C61.447 26.3038 61.8769 26.3885 62.262 26.558C62.6561 26.7275 62.9919 26.9638 63.2696 27.2671C63.5562 27.5615 63.7711 27.9138 63.9144 28.3241C64.0577 28.7344 64.1204 29.1848 64.1025 29.6754L64.0891 30.1437H58.2451L58.0973 29.3008H63.3233L63.0815 29.5282V29.2071C63.0636 28.886 62.9695 28.5783 62.7994 28.2839C62.6292 27.9807 62.3874 27.7354 62.0739 27.5481C61.7694 27.3608 61.4022 27.2671 60.9723 27.2671C60.4707 27.2671 60.0364 27.3697 59.6691 27.5748C59.3019 27.7711 59.0198 28.0654 58.8228 28.4579C58.6257 28.8503 58.5272 29.3364 58.5272 29.9162C58.5272 30.4692 58.6347 30.9509 58.8497 31.3612C59.0646 31.7626 59.3691 32.0747 59.7632 32.2977C60.1662 32.5207 60.6499 32.6322 61.2141 32.6322C61.5455 32.6322 61.8724 32.5787 62.1948 32.4717C62.5262 32.3557 62.8889 32.1327 63.283 31.8027L63.8069 32.5252C63.6009 32.7303 63.3547 32.9132 63.0681 33.0737C62.7815 33.2254 62.468 33.3502 62.1276 33.4484C61.7873 33.5375 61.438 33.5821 61.0798 33.5821Z" fill="#F5F5F5"/>
<path fill-rule="evenodd" clip-rule="evenodd" d="M20.0117 63.5518C20.0117 58.5504 24.0859 54.4929 29.1079 54.4929C34.1299 54.4929 38.2041 58.5504 38.2041 63.5518C38.2041 68.5532 34.1299 72.6107 29.1079 72.6107C24.0859 72.6107 20.0117 68.5532 20.0117 63.5518ZM29.1079 55.8866C24.8588 55.8866 21.4111 59.3201 21.4111 63.5518C21.4111 67.7835 24.8588 71.2171 29.1079 71.2171C33.3571 71.2171 36.8047 67.7835 36.8047 63.5518C36.8047 59.3201 33.3571 55.8866 29.1079 55.8866Z" fill="#00E927"/>
<path fill-rule="evenodd" clip-rule="evenodd" d="M29.1079 57.2803C29.4943 57.2803 29.8076 57.5923 29.8076 57.9771V63.5518H33.3062C33.6926 63.5518 34.0059 63.8638 34.0059 64.2487C34.0059 64.6335 33.6926 64.9455 33.3062 64.9455H29.1079C28.7215 64.9455 28.4082 64.6335 28.4082 64.2487V57.9771C28.4082 57.5923 28.7215 57.2803 29.1079 57.2803Z" fill="#00E927"/>
<path d="M55.4392 72.6944C54.2152 72.6944 53.1479 72.4342 52.2373 71.9139C51.3417 71.3936 50.5132 70.5016 49.752 69.238L52.2149 67.6771C52.5583 68.1974 52.909 68.6211 53.2673 68.9482C53.6255 69.2752 53.9913 69.5131 54.3644 69.6617C54.7525 69.8104 55.1556 69.8847 55.5735 69.8847C56.0213 69.8847 56.4393 69.7806 56.8274 69.5725C57.2155 69.3495 57.5215 69.0522 57.7454 68.6806C57.9843 68.3089 58.1037 67.8778 58.1037 67.3872C58.1037 66.8818 58.0066 66.4581 57.8126 66.1162C57.6185 65.7743 57.3349 65.5141 56.9617 65.3357C56.5886 65.1573 56.1482 65.0681 55.6407 65.0681C55.4168 65.0681 55.1705 65.0904 54.9018 65.135C54.648 65.1796 54.3719 65.254 54.0734 65.358C53.7897 65.4472 53.4837 65.5662 53.1553 65.7148L52.3717 63.641L56.5139 59.1367L57.3648 59.7387L50.7819 59.6495V56.773H60.2084L60.8129 57.9994L55.6407 63.5741L54.8794 62.6599C54.9988 62.6004 55.1929 62.5484 55.4616 62.5038C55.7452 62.4443 55.999 62.4146 56.2229 62.4146C56.9095 62.4146 57.5514 62.5409 58.1485 62.7937C58.7455 63.0464 59.2755 63.3957 59.7382 63.8417C60.2009 64.2877 60.5592 64.808 60.8129 65.4026C61.0816 65.9973 61.216 66.6365 61.216 67.3203C61.216 68.3461 60.9548 69.2678 60.4323 70.0854C59.9248 70.8882 59.2307 71.5274 58.35 72.0031C57.4842 72.4639 56.5139 72.6944 55.4392 72.6944Z" fill="#F5F5F5"/>
<path d="M68.2755 72.6944C67.2306 72.6944 66.2977 72.4342 65.4767 71.9139C64.6706 71.3787 64.0287 70.6577 63.5511 69.7509C63.0883 68.8292 62.857 67.7663 62.857 66.5622C62.857 65.3878 63.0883 64.3397 63.5511 63.418C64.0287 62.4815 64.6706 61.7531 65.4767 61.2327C66.2977 60.6976 67.2306 60.43 68.2755 60.43C68.8278 60.43 69.3577 60.5192 69.8652 60.6976C70.3877 60.8611 70.8504 61.0915 71.2535 61.3888C71.6714 61.6862 72.0073 62.0206 72.261 62.3923C72.5148 62.7491 72.6566 63.1207 72.6865 63.5072L71.8804 63.6633V55.9702H75.0823V72.4714H72.0595L71.9252 69.7509L72.5521 69.8178C72.5223 70.1895 72.3879 70.5462 72.1491 70.8882C71.9103 71.2301 71.5893 71.5423 71.1863 71.8247C70.7982 72.0923 70.3504 72.3078 69.8429 72.4714C69.3503 72.62 68.8278 72.6944 68.2755 72.6944ZM68.992 70.0631C69.5891 70.0631 70.1115 69.9144 70.5594 69.6171C71.0072 69.3198 71.358 68.911 71.6117 68.3907C71.8655 67.8704 71.9924 67.2609 71.9924 66.5622C71.9924 65.8783 71.8655 65.2763 71.6117 64.756C71.358 64.2357 71.0072 63.8268 70.5594 63.5295C70.1115 63.2322 69.5891 63.0835 68.992 63.0835C68.3949 63.0835 67.8725 63.2322 67.4247 63.5295C66.9918 63.8268 66.6485 64.2357 66.3947 64.756C66.1559 65.2763 66.0364 65.8783 66.0364 66.5622C66.0364 67.2609 66.1559 67.8704 66.3947 68.3907C66.6485 68.911 66.9918 69.3198 67.4247 69.6171C67.8725 69.9144 68.3949 70.0631 68.992 70.0631Z" fill="#F5F5F5"/>
<path d="M88.205 71.3787V58.713L89.0334 60.207L85.7644 61.7902L85.115 58.8245L89.4812 56.6392H91.5188V71.3787H88.205ZM85.4509 72.4714V69.461H94.34V72.4714H85.4509Z" fill="#F5F5F5"/>
<path d="M103.408 72.4714V59.8502L104.975 59.9394L99.4673 66.6514L99.0866 66.1162H109.252V68.9259H97.4521L96.0639 66.2946L103.968 56.773H106.655V72.4714H103.408Z" fill="#F5F5F5"/>
<path d="M111.68 72.4714V55.9702H114.815V63.0835L114.188 63.3511C114.352 62.816 114.643 62.3328 115.061 61.9017C115.494 61.4557 116.009 61.099 116.606 60.8314C117.203 60.5638 117.83 60.43 118.487 60.43C119.382 60.43 120.129 60.6084 120.726 60.9652C121.338 61.3219 121.793 61.8645 122.092 62.593C122.405 63.3065 122.562 64.1911 122.562 65.2465V72.4714H119.382V65.4918C119.382 64.9567 119.308 64.5107 119.158 64.1539C119.009 63.7971 118.778 63.537 118.464 63.3734C118.166 63.2099 117.793 63.1356 117.345 63.1504C116.987 63.1504 116.651 63.2099 116.337 63.3288C116.039 63.4329 115.777 63.589 115.554 63.7971C115.345 64.0052 115.173 64.2431 115.039 64.5107C114.919 64.7783 114.859 65.0681 114.859 65.3803V72.4714H113.292C112.949 72.4714 112.643 72.4714 112.374 72.4714C112.105 72.4714 111.874 72.4714 111.68 72.4714Z" fill="#F5F5F5"/>
<path d="M125.609 72.4714V60.6753H128.676L128.788 64.4661L128.251 63.6856C128.43 63.0761 128.721 62.5261 129.124 62.0355C129.527 61.5301 129.997 61.1361 130.535 60.8537C131.087 60.5712 131.662 60.43 132.259 60.43C132.512 60.43 132.759 60.4523 132.997 60.4969C133.236 60.5415 133.438 60.5935 133.602 60.653L132.751 64.1316C132.587 64.0424 132.371 63.9681 132.102 63.9086C131.848 63.8343 131.587 63.7971 131.318 63.7971C130.96 63.7971 130.624 63.864 130.311 63.9978C130.012 64.1167 129.751 64.2951 129.527 64.533C129.303 64.756 129.124 65.0236 128.99 65.3357C128.87 65.6479 128.81 65.9898 128.81 66.3615V72.4714H125.609Z" fill="#F5F5F5"/>
<path d="M146.882 72.6944C145.658 72.6944 144.591 72.4342 143.68 71.9139C142.785 71.3936 141.956 70.5016 141.195 69.238L143.658 67.6771C144.001 68.1974 144.352 68.6211 144.71 68.9482C145.069 69.2752 145.434 69.5131 145.808 69.6617C146.196 69.8104 146.599 69.8847 147.017 69.8847C147.464 69.8847 147.882 69.7806 148.271 69.5725C148.659 69.3495 148.965 69.0522 149.189 68.6806C149.427 68.3089 149.547 67.8778 149.547 67.3872C149.547 66.8818 149.45 66.4581 149.256 66.1162C149.062 65.7743 148.778 65.5141 148.405 65.3357C148.032 65.1573 147.591 65.0681 147.084 65.0681C146.86 65.0681 146.614 65.0904 146.345 65.135C146.091 65.1796 145.815 65.254 145.517 65.358C145.233 65.4472 144.927 65.5662 144.598 65.7148L143.815 63.641L147.957 59.1367L148.808 59.7387L142.225 59.6495V56.773H151.652L152.256 57.9994L147.084 63.5741L146.323 62.6599C146.442 62.6004 146.636 62.5484 146.905 62.5038C147.188 62.4443 147.442 62.4146 147.666 62.4146C148.353 62.4146 148.995 62.5409 149.592 62.7937C150.189 63.0464 150.719 63.3957 151.181 63.8417C151.644 64.2877 152.002 64.808 152.256 65.4026C152.525 65.9973 152.659 66.6365 152.659 67.3203C152.659 68.3461 152.398 69.2678 151.875 70.0854C151.368 70.8882 150.674 71.5274 149.793 72.0031C148.927 72.4639 147.957 72.6944 146.882 72.6944Z" fill="#F5F5F5"/>
<path d="M155.061 72.4714L154.323 70.6429L158.957 65.5364C159.211 65.2688 159.48 64.9567 159.763 64.5999C160.062 64.2431 160.346 63.8789 160.614 63.5072C160.898 63.1207 161.122 62.7491 161.286 62.3923C161.45 62.0355 161.532 61.701 161.532 61.3888C161.532 61.0469 161.458 60.7496 161.308 60.4969C161.159 60.2293 160.943 60.0212 160.659 59.8725C160.375 59.7239 160.025 59.6495 159.607 59.6495C159.219 59.6495 158.853 59.7536 158.51 59.9617C158.166 60.155 157.845 60.4449 157.547 60.8314C157.248 61.2179 156.987 61.6862 156.763 62.2362L154.255 60.8537C154.554 59.9914 154.979 59.2407 155.532 58.6015C156.084 57.9474 156.741 57.4419 157.502 57.0852C158.263 56.7284 159.077 56.55 159.943 56.55C160.853 56.55 161.674 56.7432 162.406 57.1298C163.137 57.5014 163.712 58.0217 164.13 58.6907C164.548 59.3596 164.757 60.1327 164.757 61.0098C164.757 61.3368 164.719 61.6713 164.645 62.0132C164.585 62.3551 164.473 62.7119 164.309 63.0835C164.159 63.4552 163.958 63.8491 163.704 64.2654C163.465 64.6668 163.167 65.0979 162.809 65.5587C162.465 66.0047 162.07 66.473 161.622 66.9636L158.062 70.8213L157.614 69.461H165.406V72.4714H155.061Z" fill="#F5F5F5"/>
<path d="M171.336 72.6944C170.231 72.6944 169.246 72.516 168.381 72.1592C167.53 71.7875 166.843 71.2821 166.321 70.6429L168.313 68.9482C168.761 69.4387 169.269 69.7955 169.836 70.0185C170.403 70.2266 170.97 70.3307 171.538 70.3307C171.762 70.3307 171.963 70.3084 172.142 70.2638C172.336 70.2043 172.5 70.13 172.635 70.0408C172.769 69.9367 172.866 69.8178 172.926 69.684C173 69.5354 173.038 69.3793 173.038 69.2157C173.038 68.8887 172.903 68.636 172.635 68.4576C172.485 68.3684 172.254 68.2718 171.941 68.1677C171.627 68.0488 171.224 67.9224 170.732 67.7886C169.97 67.5954 169.321 67.3724 168.784 67.1196C168.261 66.8521 167.843 66.5547 167.53 66.2277C167.261 65.9155 167.052 65.581 166.903 65.2242C166.768 64.8526 166.701 64.4438 166.701 63.9978C166.701 63.4626 166.821 62.9795 167.059 62.5484C167.298 62.1024 167.627 61.7233 168.045 61.4111C168.478 61.099 168.97 60.8611 169.522 60.6976C170.075 60.5192 170.657 60.43 171.269 60.43C171.881 60.43 172.478 60.5043 173.06 60.653C173.642 60.8016 174.18 61.0172 174.672 61.2996C175.18 61.5672 175.62 61.8868 175.993 62.2585L174.292 64.1316C174.023 63.8789 173.717 63.6485 173.374 63.4403C173.045 63.2322 172.702 63.0687 172.344 62.9498C171.985 62.8308 171.664 62.7714 171.381 62.7714C171.127 62.7714 170.896 62.7937 170.687 62.8383C170.493 62.8829 170.329 62.9572 170.194 63.0613C170.06 63.1504 169.955 63.2619 169.881 63.3957C169.821 63.5295 169.791 63.6782 169.791 63.8417C169.791 64.0052 169.828 64.1613 169.903 64.31C169.993 64.4586 170.112 64.585 170.261 64.6891C170.426 64.7783 170.664 64.8823 170.978 65.0013C171.306 65.1202 171.747 65.254 172.299 65.4026C173.015 65.5959 173.62 65.8114 174.113 66.0493C174.62 66.2872 175.023 66.5622 175.322 66.8744C175.575 67.1419 175.762 67.4467 175.881 67.7886C176.001 68.1305 176.061 68.5096 176.061 68.9259C176.061 69.6543 175.852 70.3009 175.434 70.8659C175.031 71.4308 174.471 71.8767 173.754 72.2038C173.038 72.5308 172.232 72.6944 171.336 72.6944Z" fill="#F5F5F5"/>
<defs>
<filter id="filter0_f_205_3584" x="213" y="28" width="205" height="107" filterUnits="userSpaceOnUse" color-interpolation-filters="sRGB">
<feFlood flood-opacity="0" result="BackgroundImageFix"/>
<feBlend mode="normal" in="SourceGraphic" in2="BackgroundImageFix" result="shape"/>
<feGaussianBlur stdDeviation="6.5" result="effect1_foregroundBlur_205_3584"/>
</filter>
</defs>
</svg>
