<svg width="68" height="71" viewBox="0 0 68 71" fill="none" xmlns="http://www.w3.org/2000/svg">
<g opacity="0.67" filter="url(#filter0_f_128_1394)">
<rect x="13.0537" y="15.5553" width="41.7224" height="41.7224" rx="12" fill="#041A26"/>
</g>
<rect x="7" width="44" height="44" rx="22" fill="black"/>
<path d="M42 15.4144C42 15.4144 40.6713 14.2996 40.2364 13.9643C39.6905 13.4584 39.0096 13.129 38.2687 13.0143C37.3509 12.9 36.4152 13.4958 35.7824 13.8987L35.7762 13.9026C35.1434 14.3055 33.9196 15.482 33.4247 15.8232C32.9268 16.1614 31.6581 16.4997 29.6395 17.7144C27.6239 18.9292 19.6035 23.9557 19.6035 23.9557L21.6671 23.9763L12.4019 28.7029H13.3347L12 29.7206C12.7409 29.8882 13.5147 29.7706 14.1716 29.397V29.697C14.1716 29.697 25.2184 25.3969 27.3689 26.5087L26.0732 26.8852C26.1842 26.8852 28.2897 27.0205 28.2897 27.0205C28.3887 27.8852 28.8806 28.6617 29.6215 29.1323C30.8872 29.9559 30.9112 30.4029 30.9112 30.4029C30.9112 30.4029 30.2543 30.6647 30.2543 31C30.8632 30.8265 31.4961 30.7353 32.132 30.7323C32.7079 30.7529 33.2777 30.8441 33.8266 31C33.8266 31 33.7606 30.6618 32.8758 30.4029C31.991 30.1412 31.1392 29.2235 30.7073 28.7088C30.1824 28.047 30.0504 27.1587 30.3623 26.3734C30.6653 25.6058 31.7361 25.1734 33.9106 24.0646C36.4871 22.7557 37.075 21.7733 37.4349 21.0204C37.7948 20.2674 38.3407 18.7527 38.6377 18.0409C38.8866 17.3762 39.3125 16.7909 39.8764 16.3467C40.2573 16.0585 42 15.4144 42 15.4144Z" fill="#F5F5F5"/>
<defs>
<filter id="filter0_f_128_1394" x="0.0537109" y="2.5553" width="67.7222" height="67.7224" filterUnits="userSpaceOnUse" color-interpolation-filters="sRGB">
<feFlood flood-opacity="0" result="BackgroundImageFix"/>
<feBlend mode="normal" in="SourceGraphic" in2="BackgroundImageFix" result="shape"/>
<feGaussianBlur stdDeviation="6.5" result="effect1_foregroundBlur_128_1394"/>
</filter>
</defs>
</svg>
