<svg width="70" height="68" viewBox="0 0 70 68" fill="none" xmlns="http://www.w3.org/2000/svg">
<g opacity="0.87" filter="url(#filter0_f_128_1407)">
<rect x="15.0439" y="13.2712" width="41.7224" height="41.7224" rx="20.8612" fill="#041A26"/>
</g>
<g filter="url(#filter1_d_128_1407)">
<rect x="4" y="1" width="41" height="41" rx="20.5" fill="#3B6EFF"/>
<path d="M28.6003 10.5381C28.9628 10.5381 29.3104 10.7031 29.5667 10.9968C29.823 11.2905 29.967 11.6888 29.967 12.1041V30.8958C29.967 31.3111 29.823 31.7094 29.5667 32.0031C29.3104 32.2968 28.9628 32.4618 28.6003 32.4618H20.4003C20.0379 32.4618 19.6902 32.2968 19.4339 32.0031C19.1776 31.7094 19.0337 31.3111 19.0337 30.8958V12.1041C19.0337 11.6888 19.1776 11.2905 19.4339 10.9968C19.6902 10.7031 20.0379 10.5381 20.4003 10.5381H28.6003ZM20.4003 8.97217C19.6754 8.97217 18.9802 9.30214 18.4676 9.88949C17.955 10.4768 17.667 11.2735 17.667 12.1041V30.8958C17.667 31.7264 17.955 32.523 18.4676 33.1104C18.9802 33.6978 19.6754 34.0277 20.4003 34.0277H28.6003C29.3253 34.0277 30.0205 33.6978 30.5331 33.1104C31.0457 32.523 31.3337 31.7264 31.3337 30.8958V12.1041C31.3337 11.2735 31.0457 10.4768 30.5331 9.88949C30.0205 9.30214 29.3253 8.97217 28.6003 8.97217H20.4003Z" fill="#00E927"/>
<path fill-rule="evenodd" clip-rule="evenodd" d="M18.1238 9.58994C18.7156 8.91191 19.5325 8.5166 20.3998 8.5166H28.5998C29.4671 8.5166 30.2841 8.91191 30.8758 9.58994C31.4658 10.266 31.7887 11.1712 31.7887 12.1041V30.8958C31.7887 31.8287 31.4658 32.7339 30.8758 33.4099C30.2841 34.088 29.4671 34.4833 28.5998 34.4833H20.3998C19.5325 34.4833 18.7156 34.088 18.1238 33.4099C17.5338 32.7339 17.2109 31.8287 17.2109 30.8958V12.1041C17.2109 11.1712 17.5338 10.266 18.1238 9.58994ZM20.3998 9.42771C19.8173 9.42771 19.2438 9.69235 18.8103 10.189C18.3751 10.6877 18.122 11.3758 18.122 12.1041V30.8958C18.122 31.6241 18.3751 32.3122 18.8103 32.8108C19.2438 33.3075 19.8173 33.5722 20.3998 33.5722H28.5998C29.1824 33.5722 29.7559 33.3075 30.1894 32.8108C30.6245 32.3122 30.8776 31.6241 30.8776 30.8958V12.1041C30.8776 11.3758 30.6245 10.6877 30.1894 10.189C29.7559 9.69235 29.1824 9.42771 28.5998 9.42771H20.3998ZM20.3998 10.9937C20.1797 10.9937 19.9538 11.0933 19.7767 11.2963C19.5978 11.5013 19.4887 11.7911 19.4887 12.1041V30.8958C19.4887 31.2088 19.5978 31.4986 19.7767 31.7035C19.9538 31.9065 20.1797 32.0062 20.3998 32.0062H28.5998C28.8199 32.0062 29.0458 31.9065 29.223 31.7035C29.4019 31.4986 29.5109 31.2088 29.5109 30.8958V12.1041C29.5109 11.7911 29.4019 11.5013 29.223 11.2963C29.0458 11.0933 28.8199 10.9937 28.5998 10.9937H20.3998ZM19.0902 10.6972C19.4257 10.3129 19.895 10.0826 20.3998 10.0826H28.5998C29.1047 10.0826 29.574 10.3129 29.9094 10.6972C30.2431 11.0796 30.422 11.5865 30.422 12.1041V30.8958C30.422 31.4134 30.2431 31.9202 29.9094 32.3026C29.574 32.687 29.1047 32.9173 28.5998 32.9173H20.3998C19.895 32.9173 19.4257 32.687 19.0902 32.3026C18.7565 31.9202 18.5776 31.4134 18.5776 30.8958V12.1041C18.5776 11.5865 18.7565 11.0796 19.0902 10.6972Z" fill="#00E927"/>
<path d="M24.5003 30.611C24.9534 30.611 25.3879 30.431 25.7083 30.1106C26.0287 29.7903 26.2087 29.3557 26.2087 28.9027C26.2087 28.4496 26.0287 28.0151 25.7083 27.6947C25.3879 27.3743 24.9534 27.1943 24.5003 27.1943C24.0472 27.1943 23.6127 27.3743 23.2924 27.6947C22.972 28.0151 22.792 28.4496 22.792 28.9027C22.792 29.3557 22.972 29.7903 23.2924 30.1106C23.6127 30.431 24.0472 30.611 24.5003 30.611Z" fill="#00E927"/>
</g>
<defs>
<filter id="filter0_f_128_1407" x="2.04395" y="0.27124" width="67.7227" height="67.7224" filterUnits="userSpaceOnUse" color-interpolation-filters="sRGB">
<feFlood flood-opacity="0" result="BackgroundImageFix"/>
<feBlend mode="normal" in="SourceGraphic" in2="BackgroundImageFix" result="shape"/>
<feGaussianBlur stdDeviation="6.5" result="effect1_foregroundBlur_128_1407"/>
</filter>
<filter id="filter1_d_128_1407" x="0" y="1" width="49" height="49" filterUnits="userSpaceOnUse" color-interpolation-filters="sRGB">
<feFlood flood-opacity="0" result="BackgroundImageFix"/>
<feColorMatrix in="SourceAlpha" type="matrix" values="0 0 0 0 0 0 0 0 0 0 0 0 0 0 0 0 0 0 127 0" result="hardAlpha"/>
<feOffset dy="4"/>
<feGaussianBlur stdDeviation="2"/>
<feComposite in2="hardAlpha" operator="out"/>
<feColorMatrix type="matrix" values="0 0 0 0 0 0 0 0 0 0 0 0 0 0 0 0 0 0 0.25 0"/>
<feBlend mode="normal" in2="BackgroundImageFix" result="effect1_dropShadow_128_1407"/>
<feBlend mode="normal" in="SourceGraphic" in2="effect1_dropShadow_128_1407" result="shape"/>
</filter>
</defs>
</svg>
