<svg width="68" height="68" viewBox="0 0 68 68" fill="none" xmlns="http://www.w3.org/2000/svg">
<g opacity="0.87" filter="url(#filter0_f_128_1402)">
<rect x="13.0439" y="13.2712" width="41.7224" height="41.7224" rx="20.8612" fill="#041A26"/>
</g>
<rect x="2" y="1" width="41" height="41" rx="20.5" fill="#3B6EFF"/>
<path d="M28.1944 20.3611C26.9862 20.3611 25.8275 19.8812 24.9732 19.0268C24.1188 18.1725 23.6389 17.0138 23.6389 15.8056C23.6389 14.5973 24.1188 13.4386 24.9732 12.5843C25.8275 11.73 26.9862 11.25 28.1944 11.25C29.4027 11.25 30.5614 11.73 31.4157 12.5843C32.27 13.4386 32.75 14.5973 32.75 15.8056C32.75 17.0138 32.27 18.1725 31.4157 19.0268C30.5614 19.8812 29.4027 20.3611 28.1944 20.3611ZM14.5278 13.5278H21.3611V15.8056H14.5278V29.4722H28.1944V22.6389H30.4722V29.4722C30.4722 30.0763 30.2322 30.6557 29.8051 31.0829C29.3779 31.51 28.7985 31.75 28.1944 31.75H14.5278C13.9237 31.75 13.3443 31.51 12.9171 31.0829C12.49 30.6557 12.25 30.0763 12.25 29.4722V15.8056C12.25 15.2015 12.49 14.6221 12.9171 14.1949C13.3443 13.7678 13.9237 13.5278 14.5278 13.5278Z" fill="#00E927"/>
<defs>
<filter id="filter0_f_128_1402" x="0.0439453" y="0.27124" width="67.7227" height="67.7224" filterUnits="userSpaceOnUse" color-interpolation-filters="sRGB">
<feFlood flood-opacity="0" result="BackgroundImageFix"/>
<feBlend mode="normal" in="SourceGraphic" in2="BackgroundImageFix" result="shape"/>
<feGaussianBlur stdDeviation="6.5" result="effect1_foregroundBlur_128_1402"/>
</filter>
</defs>
</svg>
