<svg width="221" height="146" viewBox="0 0 221 146" fill="none" xmlns="http://www.w3.org/2000/svg">
<rect x="4" width="213" height="146" rx="12" fill="#0E2938"/>
<path d="M29.9451 38.1935C29.1438 38.1935 28.4287 38.0158 27.7999 37.6603C27.171 37.2947 26.674 36.797 26.3089 36.1673C25.9539 35.5274 25.7764 34.8063 25.7764 34.004V27.4225H26.9631V33.8668C26.9631 34.4661 27.0949 35.0044 27.3587 35.4817C27.6224 35.9591 27.9774 36.3349 28.4237 36.6091C28.8801 36.8833 29.3872 37.0204 29.9451 37.0204C30.5334 37.0204 31.0557 36.8833 31.5122 36.6091C31.9787 36.3349 32.3439 35.9591 32.6076 35.4817C32.8713 35.0044 33.0032 34.4661 33.0032 33.8668V27.4225H34.1442V34.004C34.1442 34.8063 33.9617 35.5274 33.5965 36.1673C33.2415 36.797 32.7445 37.2947 32.1055 37.6603C31.4767 38.0158 30.7565 38.1935 29.9451 38.1935Z" fill="#F5F5F5"/>
<path d="M36.7622 41.4385V30.1343H37.9032L37.9337 32.0691L37.7206 32.0996C37.8119 31.7137 38.0097 31.3633 38.314 31.0484C38.6183 30.7234 38.9885 30.4644 39.4246 30.2714C39.8608 30.0785 40.3223 29.982 40.8091 29.982C41.5191 29.982 42.1531 30.1597 42.7109 30.5152C43.2789 30.8707 43.7303 31.3582 44.065 31.9777C44.3997 32.5973 44.5671 33.3082 44.5671 34.1106C44.5671 34.9028 44.4048 35.6087 44.0802 36.2282C43.7556 36.8478 43.3094 37.3404 42.7414 37.706C42.1734 38.0615 41.5344 38.2392 40.8244 38.2392C40.3274 38.2392 39.8557 38.1377 39.4094 37.9345C38.9631 37.7314 38.5828 37.4673 38.2684 37.1423C37.9539 36.8072 37.746 36.4466 37.6446 36.0606H37.9184V41.4385H36.7622ZM40.6418 37.1423C41.1794 37.1423 41.6561 37.0103 42.0719 36.7462C42.4878 36.4821 42.8174 36.1216 43.0609 35.6645C43.3043 35.2075 43.426 34.6895 43.426 34.1106C43.426 33.5215 43.3043 32.9985 43.0609 32.5414C42.8174 32.0844 42.4878 31.7238 42.0719 31.4597C41.6561 31.1957 41.1794 31.0636 40.6418 31.0636C40.1042 31.0636 39.6224 31.1957 39.1964 31.4597C38.7806 31.7137 38.4509 32.0691 38.2075 32.5262C37.9641 32.9832 37.8424 33.5063 37.8424 34.0954C37.8424 34.6844 37.9641 35.2075 38.2075 35.6645C38.4509 36.1216 38.7806 36.4821 39.1964 36.7462C39.6224 37.0103 40.1042 37.1423 40.6418 37.1423Z" fill="#F5F5F5"/>
<path d="M46.2569 38.0869V26.8131H47.398V38.0869H46.2569Z" fill="#F5F5F5"/>
<path d="M53.0097 38.2392C52.2186 38.2392 51.5136 38.0615 50.8949 37.706C50.2863 37.3505 49.8046 36.8579 49.4496 36.2282C49.1047 35.5985 48.9323 34.8825 48.9323 34.0801C48.9323 33.2879 49.1047 32.582 49.4496 31.9625C49.8046 31.3429 50.2863 30.8554 50.8949 30.5C51.5136 30.1445 52.2186 29.9667 53.0097 29.9667C53.7907 29.9667 54.4855 30.1445 55.0941 30.5C55.7128 30.8554 56.1946 31.3429 56.5394 31.9625C56.8944 32.582 57.0719 33.2879 57.0719 34.0801C57.0719 34.8825 56.8944 35.5985 56.5394 36.2282C56.1946 36.8579 55.7128 37.3505 55.0941 37.706C54.4855 38.0615 53.7907 38.2392 53.0097 38.2392ZM53.0097 37.1576C53.5676 37.1576 54.0646 37.0255 54.5007 36.7614C54.9368 36.4872 55.2766 36.1216 55.5201 35.6645C55.7635 35.1973 55.8852 34.6692 55.8852 34.0801C55.8852 33.491 55.7635 32.968 55.5201 32.5109C55.2766 32.0539 54.9368 31.6984 54.5007 31.4445C54.0646 31.1804 53.5676 31.0484 53.0097 31.0484C52.4518 31.0484 51.9498 31.1804 51.5035 31.4445C51.0673 31.6984 50.7225 32.059 50.4689 32.5262C50.2255 32.9832 50.1088 33.5012 50.119 34.0801C50.1088 34.6692 50.2255 35.1973 50.4689 35.6645C50.7225 36.1216 51.0673 36.4872 51.5035 36.7614C51.9498 37.0255 52.4518 37.1576 53.0097 37.1576Z" fill="#F5F5F5"/>
<path d="M61.8404 38.2392C61.1507 38.2392 60.5269 38.0615 59.969 37.706C59.4112 37.3404 58.97 36.8478 58.6454 36.2282C58.3208 35.5985 58.1585 34.8876 58.1585 34.0954C58.1585 33.293 58.3259 32.582 58.6606 31.9625C58.9953 31.3429 59.4416 30.8554 59.9995 30.5C60.5675 30.1445 61.2014 29.9667 61.9013 29.9667C62.3171 29.9667 62.7025 30.0277 63.0575 30.1496C63.4125 30.2714 63.727 30.4441 64.0008 30.6675C64.2848 30.8808 64.5181 31.1347 64.7007 31.4293C64.8934 31.7137 65.0253 32.0234 65.0963 32.3586L64.7615 32.191L64.8072 30.1343H65.9483V38.0869H64.792V36.1368L65.0963 35.9388C65.0253 36.2435 64.8883 36.538 64.6855 36.8224C64.4826 37.0966 64.2341 37.3404 63.94 37.5537C63.656 37.7669 63.3314 37.9345 62.9663 38.0564C62.6113 38.1783 62.236 38.2392 61.8404 38.2392ZM62.099 37.1423C62.6265 37.1423 63.0981 37.0154 63.514 36.7614C63.9298 36.4974 64.2544 36.1368 64.4877 35.6798C64.7311 35.2126 64.8528 34.6844 64.8528 34.0954C64.8528 33.5063 64.7311 32.9832 64.4877 32.5262C64.2544 32.0691 63.9298 31.7086 63.514 31.4445C63.0981 31.1804 62.6265 31.0484 62.099 31.0484C61.5615 31.0484 61.0848 31.1804 60.6689 31.4445C60.2632 31.7086 59.9386 32.0691 59.6952 32.5262C59.4619 32.9832 59.3453 33.5063 59.3453 34.0954C59.3453 34.6743 59.4619 35.1973 59.6952 35.6645C59.9285 36.1216 60.253 36.4821 60.6689 36.7462C61.0848 37.0103 61.5615 37.1423 62.099 37.1423Z" fill="#F5F5F5"/>
<path d="M71.3968 38.2392C70.6766 38.2392 70.0275 38.0615 69.4493 37.706C68.8813 37.3505 68.43 36.863 68.0953 36.2435C67.7707 35.6138 67.6084 34.9028 67.6084 34.1106C67.6084 33.3082 67.7758 32.5973 68.1105 31.9777C68.4452 31.348 68.8965 30.8554 69.4645 30.5C70.0325 30.1445 70.6715 29.9667 71.3815 29.9667C71.7771 29.9667 72.1575 30.0277 72.5226 30.1496C72.8979 30.2714 73.2326 30.4441 73.5268 30.6675C73.8209 30.8808 74.0643 31.1297 74.257 31.414C74.4498 31.6883 74.5664 31.9777 74.607 32.2824L74.257 32.1605V26.8131H75.3981V38.0869H74.2723L74.2418 36.1064L74.5309 35.9997C74.4903 36.2841 74.3737 36.5634 74.181 36.8376C73.9984 37.1017 73.7651 37.3404 73.4811 37.5537C73.1971 37.7669 72.8725 37.9345 72.5074 38.0564C72.1524 38.1783 71.7822 38.2392 71.3968 38.2392ZM71.5641 37.188C72.0915 37.188 72.5632 37.056 72.979 36.7919C73.3949 36.5278 73.7195 36.1622 73.9528 35.695C74.1962 35.2278 74.3179 34.6946 74.3179 34.0954C74.3179 33.4961 74.1962 32.968 73.9528 32.5109C73.7195 32.0437 73.3949 31.6781 72.979 31.414C72.5632 31.1398 72.0915 31.0027 71.5641 31.0027C71.0164 31.0027 70.5346 31.1398 70.1188 31.414C69.713 31.6781 69.3885 32.0437 69.145 32.5109C68.9118 32.968 68.7951 33.4961 68.7951 34.0954C68.7951 34.6844 68.9118 35.2126 69.145 35.6798C69.3783 36.147 69.7029 36.5177 70.1188 36.7919C70.5346 37.056 71.0164 37.188 71.5641 37.188Z" fill="#F5F5F5"/>
<path d="M82.3414 38.0869V27.4225H86.6623C87.281 27.4225 87.8135 27.5342 88.2598 27.7577C88.7162 27.971 89.0661 28.2808 89.3096 28.687C89.553 29.0831 89.6747 29.5554 89.6747 30.1038C89.6747 30.6929 89.5073 31.2008 89.1726 31.6273C88.8379 32.0437 88.3815 32.3332 87.8033 32.4957L87.7729 32.2062C88.2699 32.2977 88.701 32.4754 89.0661 32.7395C89.4313 32.9934 89.7153 33.3082 89.9181 33.684C90.1311 34.0598 90.2376 34.4813 90.2376 34.9485C90.2376 35.4259 90.1565 35.8575 89.9942 36.2435C89.8319 36.6294 89.5986 36.9595 89.2943 37.2337C89.0002 37.508 88.6401 37.7212 88.2141 37.8736C87.7983 38.0158 87.3317 38.0869 86.8144 38.0869H82.3414ZM83.5281 36.929H86.7231C87.1796 36.929 87.5751 36.8529 87.9098 36.7005C88.2547 36.538 88.5184 36.3095 88.701 36.0149C88.8937 35.7204 88.9901 35.3802 88.9901 34.9942C88.9901 34.6286 88.8886 34.3086 88.6858 34.0344C88.4931 33.7602 88.2192 33.5469 87.8642 33.3946C87.5193 33.2422 87.1136 33.166 86.6471 33.166H83.5281V36.929ZM83.5281 32.0082H86.571C86.9361 32.0082 87.2607 31.9371 87.5447 31.7949C87.8287 31.6426 88.0518 31.4394 88.2141 31.1855C88.3764 30.9214 88.4576 30.6269 88.4576 30.3019C88.4576 29.7839 88.2801 29.3675 87.9251 29.0526C87.5802 28.7378 87.0933 28.5804 86.4645 28.5804H83.5281V32.0082Z" fill="#F5F5F5"/>
<path d="M95.1811 38.2392C94.4914 38.2392 93.8676 38.0615 93.3097 37.706C92.7519 37.3404 92.3107 36.8478 91.9861 36.2282C91.6615 35.5985 91.4992 34.8876 91.4992 34.0954C91.4992 33.293 91.6666 32.582 92.0013 31.9625C92.336 31.3429 92.7823 30.8554 93.3401 30.5C93.9081 30.1445 94.5421 29.9667 95.2419 29.9667C95.6578 29.9667 96.0432 30.0277 96.3982 30.1496C96.7532 30.2714 97.0676 30.4441 97.3415 30.6675C97.6255 30.8808 97.8588 31.1347 98.0414 31.4293C98.2341 31.7137 98.3659 32.0234 98.4369 32.3586L98.1022 32.191L98.1479 30.1343H99.2889V38.0869H98.1327V36.1368L98.4369 35.9388C98.3659 36.2435 98.229 36.538 98.0261 36.8224C97.8233 37.0966 97.5748 37.3404 97.2806 37.5537C96.9967 37.7669 96.6721 37.9345 96.3069 38.0564C95.9519 38.1783 95.5767 38.2392 95.1811 38.2392ZM95.4397 37.1423C95.9671 37.1423 96.4388 37.0154 96.8547 36.7614C97.2705 36.4974 97.5951 36.1368 97.8284 35.6798C98.0718 35.2126 98.1935 34.6844 98.1935 34.0954C98.1935 33.5063 98.0718 32.9832 97.8284 32.5262C97.5951 32.0691 97.2705 31.7086 96.8547 31.4445C96.4388 31.1804 95.9671 31.0484 95.4397 31.0484C94.9021 31.0484 94.4254 31.1804 94.0096 31.4445C93.6039 31.7086 93.2793 32.0691 93.0359 32.5262C92.8026 32.9832 92.6859 33.5063 92.6859 34.0954C92.6859 34.6743 92.8026 35.1973 93.0359 35.6645C93.2691 36.1216 93.5937 36.4821 94.0096 36.7462C94.4254 37.0103 94.9021 37.1423 95.4397 37.1423Z" fill="#F5F5F5"/>
<path d="M101.512 38.0869V30.1343H102.638L102.684 31.7949L102.501 31.8711C102.602 31.5258 102.8 31.2109 103.094 30.9265C103.388 30.6421 103.738 30.4136 104.144 30.241C104.56 30.0581 104.986 29.9667 105.422 29.9667C106.01 29.9667 106.502 30.0835 106.898 30.3171C107.293 30.5507 107.593 30.9113 107.795 31.3988C107.998 31.8863 108.1 32.5059 108.1 33.2574V38.0869H106.944V33.3184C106.944 32.7902 106.872 32.3586 106.73 32.0234C106.599 31.6781 106.391 31.4242 106.107 31.2617C105.823 31.0992 105.473 31.023 105.057 31.0332C104.712 31.0332 104.393 31.0941 104.098 31.216C103.804 31.3277 103.551 31.4851 103.338 31.6883C103.125 31.8914 102.957 32.125 102.836 32.3891C102.714 32.6531 102.653 32.9375 102.653 33.2422V38.0869H102.09C102.019 38.0869 101.938 38.0869 101.847 38.0869C101.755 38.0869 101.644 38.0869 101.512 38.0869Z" fill="#F5F5F5"/>
<path d="M113.503 38.2392C112.783 38.2392 112.134 38.0615 111.556 37.706C110.988 37.3505 110.537 36.863 110.202 36.2435C109.877 35.6138 109.715 34.9028 109.715 34.1106C109.715 33.3082 109.882 32.5973 110.217 31.9777C110.552 31.348 111.003 30.8554 111.571 30.5C112.139 30.1445 112.778 29.9667 113.488 29.9667C113.884 29.9667 114.264 30.0277 114.629 30.1496C115.005 30.2714 115.339 30.4441 115.633 30.6675C115.928 30.8808 116.171 31.1297 116.364 31.414C116.556 31.6883 116.673 31.9777 116.714 32.2824L116.364 32.1605V26.8131H117.505V38.0869H116.379L116.349 36.1064L116.638 35.9997C116.597 36.2841 116.48 36.5634 116.288 36.8376C116.105 37.1017 115.872 37.3404 115.588 37.5537C115.304 37.7669 114.979 37.9345 114.614 38.0564C114.259 38.1783 113.889 38.2392 113.503 38.2392ZM113.671 37.188C114.198 37.188 114.67 37.056 115.086 36.7919C115.502 36.5278 115.826 36.1622 116.059 35.695C116.303 35.2278 116.425 34.6946 116.425 34.0954C116.425 33.4961 116.303 32.968 116.059 32.5109C115.826 32.0437 115.502 31.6781 115.086 31.414C114.67 31.1398 114.198 31.0027 113.671 31.0027C113.123 31.0027 112.641 31.1398 112.225 31.414C111.82 31.6781 111.495 32.0437 111.252 32.5109C111.018 32.968 110.902 33.4961 110.902 34.0954C110.902 34.6844 111.018 35.2126 111.252 35.6798C111.485 36.147 111.81 36.5177 112.225 36.7919C112.641 37.056 113.123 37.188 113.671 37.188Z" fill="#F5F5F5"/>
<path d="M121.599 38.0869L118.845 30.1343L120.062 30.1191L122.207 36.5939L121.827 36.5634L124.155 31.3531H124.84L127.183 36.5634L126.726 36.5939L128.917 30.1343H130.119L127.365 38.0869H126.696L124.231 32.4195L124.687 32.45L122.299 38.0869H121.599Z" fill="#F5F5F5"/>
<path d="M131.769 38.0869V30.1343H132.91V38.0869H131.769ZM132.332 28.4128C132.048 28.4128 131.83 28.3417 131.678 28.1995C131.536 28.0472 131.465 27.844 131.465 27.5901C131.465 27.3362 131.541 27.1331 131.693 26.9807C131.845 26.8284 132.058 26.7522 132.332 26.7522C132.606 26.7522 132.819 26.8284 132.971 26.9807C133.123 27.1229 133.2 27.326 133.2 27.5901C133.2 27.8339 133.123 28.0319 132.971 28.1843C132.819 28.3366 132.606 28.4128 132.332 28.4128Z" fill="#F5F5F5"/>
<path d="M138.628 38.2392C137.908 38.2392 137.259 38.0615 136.68 37.706C136.112 37.3505 135.661 36.863 135.326 36.2435C135.002 35.6138 134.839 34.9028 134.839 34.1106C134.839 33.3082 135.007 32.5973 135.342 31.9777C135.676 31.348 136.128 30.8554 136.696 30.5C137.264 30.1445 137.903 29.9667 138.613 29.9667C139.008 29.9667 139.389 30.0277 139.754 30.1496C140.129 30.2714 140.464 30.4441 140.758 30.6675C141.052 30.8808 141.295 31.1297 141.488 31.414C141.681 31.6883 141.797 31.9777 141.838 32.2824L141.488 32.1605V26.8131H142.629V38.0869H141.503L141.473 36.1064L141.762 35.9997C141.721 36.2841 141.605 36.5634 141.412 36.8376C141.229 37.1017 140.996 37.3404 140.712 37.5537C140.428 37.7669 140.104 37.9345 139.738 38.0564C139.383 38.1783 139.013 38.2392 138.628 38.2392ZM138.795 37.188C139.323 37.188 139.794 37.056 140.21 36.7919C140.626 36.5278 140.951 36.1622 141.184 35.695C141.427 35.2278 141.549 34.6946 141.549 34.0954C141.549 33.4961 141.427 32.968 141.184 32.5109C140.951 32.0437 140.626 31.6781 140.21 31.414C139.794 31.1398 139.323 31.0027 138.795 31.0027C138.247 31.0027 137.766 31.1398 137.35 31.414C136.944 31.6781 136.62 32.0437 136.376 32.5109C136.143 32.968 136.026 33.4961 136.026 34.0954C136.026 34.6844 136.143 35.2126 136.376 35.6798C136.609 36.147 136.934 36.5177 137.35 36.7919C137.766 37.056 138.247 37.188 138.795 37.188Z" fill="#F5F5F5"/>
<path d="M145.947 38.0869V28.0472H147.088V38.0869H145.947ZM144.152 31.2312V30.1343H149.097V31.2312H144.152Z" fill="#F5F5F5"/>
<path d="M150.498 38.0869V26.8131H151.639V31.8711L151.411 32.0996C151.522 31.6832 151.73 31.3176 152.034 31.0027C152.339 30.6777 152.694 30.4238 153.099 30.241C153.515 30.0581 153.936 29.9667 154.362 29.9667C154.971 29.9667 155.478 30.0835 155.884 30.3171C156.289 30.5507 156.589 30.9113 156.781 31.3988C156.984 31.8863 157.086 32.5059 157.086 33.2574V38.0869H155.929V33.3184C155.929 32.7902 155.858 32.3586 155.716 32.0234C155.584 31.6781 155.377 31.4242 155.093 31.2617C154.809 31.0992 154.454 31.023 154.028 31.0332C153.693 31.0332 153.378 31.0941 153.084 31.216C152.79 31.3277 152.537 31.4851 152.324 31.6883C152.111 31.8914 151.943 32.125 151.821 32.3891C151.7 32.6531 151.639 32.9375 151.639 33.2422V38.0869H151.076C151.005 38.0869 150.924 38.0869 150.833 38.0869C150.741 38.0869 150.63 38.0869 150.498 38.0869Z" fill="#F5F5F5"/>
<path d="M33.1609 82.522V68.1505L34.9359 68.2521L28.698 75.8948L28.267 75.2854H39.7791V78.4848H26.4159L24.8438 75.4886L33.7948 64.6465H36.8377V82.522H33.1609Z" fill="#F5F5F5"/>
<path d="M49.6034 82.522V68.1505L51.3784 68.2521L45.1406 75.8948L44.7095 75.2854H56.2216V78.4848H42.8584L41.2863 75.4886L50.2373 64.6465H53.2802V82.522H49.6034Z" fill="#F5F5F5"/>
<path d="M59.0339 82.522L66.21 66.3731L67.1228 68.0235H57.9435V64.6465H69.3289L69.7093 66.6016L62.9135 82.522H59.0339Z" fill="#F5F5F5"/>
<path d="M71.7061 82.8013C71.0468 82.8013 70.5397 82.6151 70.1847 82.2427C69.8297 81.8703 69.6522 81.337 69.6522 80.643C69.6522 80.0167 69.8382 79.5089 70.2101 79.1195C70.5989 78.7133 71.0976 78.5101 71.7061 78.5101C72.3485 78.5101 72.8472 78.6963 73.2022 79.0688C73.5572 79.4412 73.7347 79.9659 73.7347 80.643C73.7347 81.2863 73.5487 81.811 73.1768 82.2173C72.8049 82.6066 72.3147 82.8013 71.7061 82.8013Z" fill="#F5F5F5"/>
<path d="M80.2279 81.2778V66.8555L81.1661 68.5568L77.464 70.3595L76.7286 66.9825L81.6733 64.4941H83.9808V81.2778H80.2279ZM77.109 82.522V79.0941H87.1758V82.522H77.109Z" fill="#F5F5F5"/>
<path d="M103.299 78.3573L103.172 75.5135L109.536 69.1911H113.061L103.299 78.3573ZM100.915 82.5215V63.7319H103.527V82.5215H100.915ZM109.891 82.5215L104.871 76.6561L106.722 74.9549L113.239 82.5215H109.891Z" fill="#A2A9AC"/>
<path d="M115.986 82.5215V64.7476H123.391C124.523 64.7476 125.478 64.9169 126.256 65.2554C127.034 65.594 127.617 66.1018 128.006 66.7789C128.411 67.4391 128.614 68.2516 128.614 69.2165C128.614 70.1813 128.344 71.0023 127.803 71.6794C127.279 72.3565 126.543 72.822 125.597 73.0759V72.5681C126.391 72.7374 127.084 73.0421 127.676 73.4822C128.268 73.9054 128.724 74.4386 129.045 75.0818C129.383 75.7251 129.552 76.4614 129.552 77.2909C129.552 78.1373 129.417 78.8905 129.147 79.5507C128.893 80.194 128.504 80.7356 127.98 81.1758C127.473 81.6159 126.856 81.9544 126.129 82.1914C125.402 82.4115 124.574 82.5215 123.644 82.5215H115.986ZM118.725 79.8808H123.492C124.185 79.8808 124.768 79.7792 125.242 79.5761C125.732 79.373 126.104 79.0767 126.357 78.6874C126.628 78.2811 126.763 77.7987 126.763 77.2401C126.763 76.7154 126.619 76.2668 126.332 75.8944C126.062 75.522 125.673 75.2427 125.166 75.0565C124.658 74.8533 124.058 74.7518 123.365 74.7518H118.725V79.8808ZM118.725 72.1111H123.238C123.746 72.1111 124.194 72.0095 124.582 71.8064C124.988 71.6032 125.301 71.3239 125.521 70.9685C125.757 70.613 125.876 70.2067 125.876 69.7497C125.876 68.9879 125.622 68.4039 125.115 67.9977C124.608 67.5914 123.881 67.3883 122.934 67.3883H118.725V72.1111Z" fill="#A2A9AC"/>
<path d="M130.202 85.8731L140.649 64.7476H143.16L132.738 85.8731H130.202Z" fill="#A2A9AC"/>
<path d="M149.356 82.7754C148.24 82.7754 147.235 82.5807 146.339 82.1914C145.443 81.8021 144.699 81.2265 144.107 80.4648L145.882 78.9413C146.389 79.5338 146.939 79.9654 147.53 80.2363C148.139 80.4902 148.824 80.6171 149.584 80.6171C149.889 80.6171 150.168 80.5833 150.421 80.5156C150.692 80.4309 150.92 80.3125 151.106 80.1601C151.309 80.0078 151.461 79.83 151.562 79.6269C151.664 79.4068 151.714 79.1698 151.714 78.9159C151.714 78.4758 151.554 78.1203 151.233 77.8495C151.063 77.731 150.793 77.604 150.421 77.4686C150.066 77.3163 149.601 77.1639 149.026 77.0116C148.046 76.7577 147.243 76.4699 146.618 76.1483C145.992 75.8267 145.51 75.4627 145.172 75.0565C144.919 74.7348 144.733 74.3878 144.614 74.0154C144.496 73.6261 144.437 73.2029 144.437 72.7458C144.437 72.1872 144.555 71.6794 144.792 71.2224C145.045 70.7484 145.383 70.3421 145.806 70.0036C146.246 69.6481 146.753 69.3773 147.328 69.1911C147.919 69.0049 148.545 68.9118 149.204 68.9118C149.829 68.9118 150.446 68.9964 151.055 69.1657C151.681 69.3349 152.255 69.5804 152.779 69.902C153.303 70.2236 153.743 70.6045 154.098 71.0446L152.602 72.6951C152.281 72.3734 151.926 72.0941 151.537 71.8571C151.165 71.6032 150.785 71.4086 150.396 71.2731C150.007 71.1377 149.652 71.07 149.331 71.07C148.976 71.07 148.655 71.1039 148.367 71.1716C148.08 71.2393 147.835 71.3409 147.632 71.4763C147.446 71.6117 147.302 71.781 147.201 71.9841C147.099 72.1872 147.049 72.4158 147.049 72.6697C147.066 72.8897 147.116 73.1013 147.201 73.3045C147.302 73.4907 147.437 73.6515 147.606 73.7869C147.792 73.9223 148.071 74.0662 148.443 74.2185C148.815 74.3709 149.288 74.5148 149.863 74.6502C150.708 74.8702 151.402 75.1157 151.943 75.3865C152.5 75.6405 152.94 75.9367 153.261 76.2752C153.599 76.5969 153.836 76.9693 153.971 77.3925C154.106 77.8156 154.174 78.2896 154.174 78.8144C154.174 79.5761 153.954 80.2617 153.515 80.8711C153.092 81.4635 152.517 81.929 151.79 82.2676C151.063 82.6061 150.252 82.7754 149.356 82.7754Z" fill="#A2A9AC"/>
<path fill-rule="evenodd" clip-rule="evenodd" d="M193.272 91.8602C186.842 94.7668 179.88 97.9145 171.938 100.466C140.584 110.537 115.914 112.711 90.6214 113.915C86.7932 114.097 82.9529 114.257 79.0743 114.419C57.3386 115.324 34.3968 116.28 5.60517 121.474L4.9307 117.726C33.997 112.482 57.2089 111.516 78.9523 110.611C82.8201 110.45 86.6414 110.291 90.4409 110.11C115.589 108.914 139.88 106.763 170.776 96.8388C178.497 94.3587 185.255 91.3047 191.694 88.3944C192.618 87.9771 193.534 87.5627 194.447 87.1535C201.674 83.9107 208.639 80.9721 216.029 79.6389L216.703 83.3872C209.82 84.6291 203.234 87.3841 196.002 90.6292C195.102 91.0329 194.192 91.4441 193.272 91.8602Z" fill="url(#paint0_linear_128_1429)"/>
<g opacity="0.3" filter="url(#filter0_f_128_1429)">
<path fill-rule="evenodd" clip-rule="evenodd" d="M193.272 98.2078C186.842 101.114 179.88 104.262 171.938 106.813C140.584 116.885 115.914 119.059 90.6214 120.262C86.7932 120.445 82.9529 120.605 79.0743 120.766C57.3386 121.672 34.3968 122.627 5.60516 127.822L4.9307 124.074C33.997 118.829 57.2089 117.863 78.9523 116.959C82.8201 116.798 86.6414 116.639 90.4409 116.458C115.589 115.261 139.88 113.111 170.776 103.186C178.497 100.706 185.255 97.6523 191.694 94.7421C192.618 94.3247 193.534 93.9104 194.447 93.5011C201.674 90.2584 208.639 87.3197 216.029 85.9865L216.703 89.7349C209.82 90.9768 203.234 93.7318 196.002 96.9768C195.102 97.3806 194.192 97.7917 193.272 98.2078Z" fill="url(#paint1_linear_128_1429)"/>
</g>
<defs>
<filter id="filter0_f_128_1429" x="0.930664" y="81.9863" width="219.772" height="49.8354" filterUnits="userSpaceOnUse" color-interpolation-filters="sRGB">
<feFlood flood-opacity="0" result="BackgroundImageFix"/>
<feBlend mode="normal" in="SourceGraphic" in2="BackgroundImageFix" result="shape"/>
<feGaussianBlur stdDeviation="2" result="effect1_foregroundBlur_128_1429"/>
</filter>
<linearGradient id="paint0_linear_128_1429" x1="159.891" y1="102.46" x2="13.636" y2="110.11" gradientUnits="userSpaceOnUse">
<stop stop-color="#02E62D"/>
<stop offset="1" stop-color="#3B6FFF"/>
</linearGradient>
<linearGradient id="paint1_linear_128_1429" x1="159.891" y1="108.808" x2="13.636" y2="116.457" gradientUnits="userSpaceOnUse">
<stop stop-color="#02E62D"/>
<stop offset="1" stop-color="#3B6FFF"/>
</linearGradient>
</defs>
</svg>
