<?xml version="1.0" standalone="no"?>
<!DOCTYPE svg PUBLIC "-//W3C//DTD SVG 20010904//EN"
 "http://www.w3.org/TR/2001/REC-SVG-20010904/DTD/svg10.dtd">
<svg version="1.0" xmlns="http://www.w3.org/2000/svg"
 width="700.000000pt" height="700.000000pt" viewBox="0 0 700.000000 700.000000"
 preserveAspectRatio="xMidYMid meet">
<metadata>
Created by potrace 1.14, written by Peter Selinger 2001-2017
</metadata>
<g transform="translate(0.000000,700.000000) scale(0.100000,-0.100000)"
fill="#000000" stroke="none">
<path d="M1190 6384 l0 -574 -574 0 -573 0 0 -2310 0 -2310 573 0 574 0 0
-574 0 -573 2310 0 2310 0 0 573 0 574 573 0 574 0 0 2310 0 2310 -574 0 -573
0 0 574 0 573 -2310 0 -2310 0 0 -573z m1618 -583 c9 -1 12 -170 12 -811 l0
-810 -810 0 c-764 0 -810 1 -811 18 -1 22 -1 1561 0 1584 1 9 11 18 24 20 17
2 1536 1 1585 -1z m2989 -5 c4 -4 8 -1446 4 -1588 l-1 -28 -810 0 -810 0 0
808 c0 445 2 811 4 813 6 6 1607 2 1613 -5z m-2977 -3786 c0 -641 -3 -810 -12
-811 -17 -1 -1578 -1 -1598 0 -13 1 -15 96 -13 803 1 442 2 806 2 811 1 4 366
7 811 7 l810 0 0 -810z m2981 783 c0 -16 1 -380 2 -810 2 -690 0 -783 -13
-784 -19 -1 -1581 -1 -1597 0 -10 1 -13 170 -13 811 l0 810 810 0 810 0 1 -27z"/>
</g>
</svg>
